<?xml version="1.0" standalone="no"?>
<!DOCTYPE svg PUBLIC "-//W3C//DTD SVG 1.1//EN" "http://www.w3.org/Graphics/SVG/1.1/DTD/svg11.dtd" >
<svg xmlns="http://www.w3.org/2000/svg" xmlns:xlink="http://www.w3.org/1999/xlink" version="1.1">
<metadata>
Created by FontForge 20170924 at Tue May 31 08:19:31 2016
 By www-data
Copyright 2011 The Amatic Project Authors. 
</metadata>
<defs>
<font id="AmaticaSC-Regular" horiz-adv-x="800" >
  <font-face 
    font-family="Amatica SC"
    font-weight="400"
    font-stretch="normal"
    units-per-em="2048"
    panose-1="0 0 5 0 0 0 0 0 0 0"
    ascent="1638"
    descent="-410"
    x-height="1356"
    cap-height="1548"
    bbox="-805 -505 1782 2384"
    underline-thickness="50"
    underline-position="-100"
    unicode-range="U+000D-FB4B"
  />
<missing-glyph horiz-adv-x="748" 
d="M612 1365h-544v-1365h544v1365zM544 1297v-1229h-408v1229h408z" />
    <glyph glyph-name="f_f" unicode="ff" horiz-adv-x="1240" 
d="M253 53q0 50 -6 147q-6 98 -6 146v232q0 100 37 100q12 0 34 -6q23 -6 34 -6q18 0 33.5 11.5t15.5 27.5q0 32 -103 32h-11q-23 0 -23 6v72q0 78 10 215q10 136 10 217q6 14 8 22q3 11 5 14t9 5q10 2 25 2q75 0 113 -20q73 0 73 35q0 18 -42.5 31.5t-101 20.5t-101.5 7
q-22 0 -39 -10.5t-17 -28.5q0 -127 -14 -412q-14 -286 -14 -413q0 -307 -19 -498l41 -31q49 0 49 82zM873 53q0 50 -6 147q-6 98 -6 146v232q0 100 37 100q11 0 34 -6q22 -6 34 -6q18 0 33.5 11.5t15.5 27.5q0 32 -103 32h-11q-23 0 -23 6v72q0 78 10 215q10 136 10 217
q6 14 8 22q3 11 5 14t9 5q10 2 25 2q75 0 113 -20q73 0 73 35q0 18 -42.5 31.5t-101 20.5t-101.5 7q-22 0 -39 -10.5t-17 -28.5q0 -127 -14 -412q-14 -286 -14 -413q0 -307 -19 -498l41 -31q49 0 49 82z" />
    <glyph glyph-name="f_f_i" unicode="ffi" horiz-adv-x="1940" 
d="M253 53q0 50 -6 147q-6 98 -6 146v232q0 100 37 100q12 0 34 -6q23 -6 34 -6q18 0 33.5 11.5t15.5 27.5q0 32 -103 32h-11q-23 0 -23 6v72q0 78 10 215q10 136 10 217q6 14 8 22q3 11 5 14t9 5q10 2 25 2q75 0 113 -20q73 0 73 35q0 18 -42.5 31.5t-101 20.5t-101.5 7
q-22 0 -39 -10.5t-17 -28.5q0 -127 -14 -412q-14 -286 -14 -413q0 -307 -19 -498l41 -31q49 0 49 82zM873 53q0 50 -6 147q-6 98 -6 146v232q0 100 37 100q11 0 34 -6q22 -6 34 -6q18 0 33.5 11.5t15.5 27.5q0 32 -103 32h-11q-23 0 -23 6v72q0 78 10 215q10 136 10 217
q6 14 8 22q3 11 5 14t9 5q10 2 25 2q75 0 113 -20q73 0 73 35q0 18 -42.5 31.5t-101 20.5t-101.5 7q-22 0 -39 -10.5t-17 -28.5q0 -127 -14 -412q-14 -286 -14 -413q0 -307 -19 -498l41 -31q49 0 49 82zM1596 0q13 0 35 12q24 11 38 11q12 0 34 -3q20 -4 34 -4q19 0 32 11.5
t13 29.5q0 29 -61 29q-17 0 -30 -1t-30 -1q-45 0 -45 20l2 5q-6 9 -6 57q0 22 1 37l1 26q0 85 -7 225q-7 139 -7 224q0 81 3 244q3 162 3 243q0 91 -6 109l10 6q43 0 59 -12l47 4q5 12 5 16q0 22 -36 35q-41 15 -94 19q-88 8 -155 8q-13 0 -31 -8.5t-18 -16.5q0 -35 39 -35
l25 2l24 2q42 0 61 -6q10 -93 10 -237q0 -61 -5 -238q-5 -178 -5 -240q0 -66 8 -224q7 -139 7 -224q0 -7 -3 -24q-4 -15 -4 -19l-8 -8h-59l-12 -11q-9 -6 -12 -11t-3 -13q12 -21 56 -21q9 0 17 1q7 1 17 1q8 -20 56 -20z" />
    <glyph glyph-name="f_f_l" unicode="ffl" horiz-adv-x="1880" 
d="M253 53q0 50 -6 147q-6 98 -6 146v232q0 100 37 100q12 0 34 -6q23 -6 34 -6q18 0 33.5 11.5t15.5 27.5q0 32 -103 32h-11q-23 0 -23 6v72q0 78 10 215q10 136 10 217q6 14 8 22q3 11 5 14t9 5q10 2 25 2q75 0 113 -20q73 0 73 35q0 18 -42.5 31.5t-101 20.5t-101.5 7
q-22 0 -39 -10.5t-17 -28.5q0 -127 -14 -412q-14 -286 -14 -413q0 -307 -19 -498l41 -31q49 0 49 82zM873 53q0 50 -6 147q-6 98 -6 146v232q0 100 37 100q11 0 34 -6q22 -6 34 -6q18 0 33.5 11.5t15.5 27.5q0 32 -103 32h-11q-23 0 -23 6v72q0 78 10 215q10 136 10 217
q6 14 8 22q3 11 5 14t9 5q10 2 25 2q75 0 113 -20q73 0 73 35q0 18 -42.5 31.5t-101 20.5t-101.5 7q-22 0 -39 -10.5t-17 -28.5q0 -127 -14 -412q-14 -286 -14 -413q0 -307 -19 -498l41 -31q49 0 49 82zM1695 -20q33 3 33 26q0 12 -10 23.5t-21 11.5h-6l-87 3q-76 3 -106 3
q-9 0 -10 10q-2 12 -2 41v13l6 196q-6 12 -6 29q0 5 1 8t1 8l-2 -2l6 17l-2 87l-2 87q0 23 3 84l3 88q0 124 -1 223t-1 223q0 45 1 81t1 81q0 -1 -5 1q-19 7 -29 7q-15 0 -15 -14l-5 -62q-5 -65 -5 -73q0 -164 -6 -533q-6 -370 -6 -559q0 -51 -4 -68q5 -47 34 -47q15 0 38 4
q26 3 38 3l-4 2q100 0 170 -2z" />
    <glyph glyph-name="fi" unicode="fi" horiz-adv-x="1320" 
d="M253 53q0 50 -6 147q-6 98 -6 146v232q0 100 37 100q12 0 34 -6q23 -6 34 -6q18 0 33.5 11.5t15.5 27.5q0 32 -103 32h-11q-23 0 -23 6v72q0 78 10 215q10 136 10 217q6 14 8 22q3 11 5 14t9 5q10 2 25 2q75 0 113 -20q73 0 73 35q0 18 -42.5 31.5t-101 20.5t-101.5 7
q-22 0 -39 -10.5t-17 -28.5q0 -127 -14 -412q-14 -286 -14 -413q0 -307 -19 -498l41 -31q49 0 49 82zM976 0q13 0 35 12q24 11 38 11q12 0 34 -3q20 -4 34 -4q19 0 32 11.5t13 29.5q0 29 -61 29q-17 0 -30 -1t-30 -1q-45 0 -45 20l2 5q-6 9 -6 57q0 22 1 37l1 26
q0 85 -7 225q-7 139 -7 224q0 81 3 244q3 162 3 243q0 91 -6 109l10 6q43 0 59 -12l47 4q5 12 5 16q0 22 -36 35q-41 15 -94 19q-88 8 -155 8q-13 0 -31 -8.5t-18 -16.5q0 -35 39 -35l25 2l24 2q41 0 61 -6q10 -93 10 -237q0 -61 -5 -238q-5 -178 -5 -240q0 -66 8 -224
q7 -139 7 -224q0 -7 -3 -24q-4 -15 -4 -19l-8 -8h-59l-12 -11q-9 -6 -12 -11t-3 -13q12 -21 56 -21q9 0 17 1q7 1 17 1q8 -20 56 -20z" />
    <glyph glyph-name="fl" unicode="fl" horiz-adv-x="1260" 
d="M253 53q0 50 -6 147q-6 98 -6 146v232q0 100 37 100q12 0 34 -6q23 -6 34 -6q18 0 33.5 11.5t15.5 27.5q0 32 -103 32h-11q-23 0 -23 6v72q0 78 10 215q10 136 10 217q6 14 8 22q3 11 5 14t9 5q10 2 25 2q75 0 113 -20q73 0 73 35q0 18 -42.5 31.5t-101 20.5t-101.5 7
q-22 0 -39 -10.5t-17 -28.5q0 -127 -14 -412q-14 -286 -14 -413q0 -307 -19 -498l41 -31q49 0 49 82zM1075 -20q33 3 33 26q0 12 -10 23.5t-21 11.5h-6l-87 3q-76 3 -106 3q-9 0 -10 10q-2 12 -2 41v13l6 196q-6 12 -6 29q0 5 1 8t1 8l-2 -2l6 17l-2 87l-2 87q0 23 3 84
l3 88q0 124 -1 223t-1 223q0 45 1 81t1 81q0 -1 -5 1q-19 7 -29 7q-15 0 -15 -14l-5 -62q-5 -65 -5 -73q0 -164 -6 -533q-6 -370 -6 -559q0 -51 -4 -68q5 -47 34 -47q15 0 38 4q26 3 38 3l-4 2q100 0 170 -2z" />
    <glyph glyph-name=".notdef" horiz-adv-x="748" 
d="M612 1365h-544v-1365h544v1365zM544 1297v-1229h-408v1229h408z" />
    <glyph glyph-name="nonmarkingreturn" unicode="&#xd;" horiz-adv-x="682" 
 />
    <glyph glyph-name="space" unicode=" " horiz-adv-x="700" 
 />
    <glyph glyph-name="A" unicode="A" 
d="M564 10q-12 10 -12 25v268q0 16 -51.5 31.5t-119 25t-105.5 9.5q-6 0 -26 -77q-17 -67 -37 -154t-26 -118q-4 -15 -22 -15q-16 0 -29 10t-13 24q0 2 1 3v3l24 102l42 189l30 135q31 133 78 406q51 293 74 397q17 76 37 145q13 47 30 83q16 34 29 34q32 0 47 -20
q11 -18 32.5 -205t37.5 -371l28 -340q0 -88 12 -267q11 -187 11 -267v-9q0 -27 -6 -40q-7 -17 -39 -17q-15 0 -27 10zM550 416q0 127 -14 347t-30 388q-8 88 -25 238l-4 22q-4 15 -4 25q-16 -46 -29.5 -113t-34.5 -201q-47 -301 -84 -458q-4 -23 -18 -70
q-15 -52 -22.5 -88.5t-7.5 -67.5v-12q87 -29 207 -29h12q6 -1 14 -1q40 0 40 20z" />
    <glyph glyph-name="Aacute" unicode="&#xc1;" 
d="M363.5 1848q10.5 -8 26.5 -8q151 129 256 176l6 31q0 32 -45 32q-7 -7 -76 -60q-77 -59 -122 -96q-56 -45 -56 -53q0 -14 10.5 -22zM564 10q12 -10 27 -10q32 0 39 17q6 13 6 40v9q0 80 -11 267q-12 179 -12 267l-28 340q-16 184 -37.5 371t-32.5 205q-15 20 -47 20
q-13 0 -29 -34q-17 -36 -30 -83q-20 -69 -37 -145q-23 -104 -74 -397q-47 -273 -78 -406l-30 -135l-42 -189l-24 -102v-3q-1 -1 -1 -3q0 -14 13 -24t29 -10q18 0 22 15q6 31 26 118t37 154q20 77 26 77q38 0 105.5 -9.5t119 -25t51.5 -31.5v-268q0 -15 12 -25zM284.5 505.5
q7.5 36.5 22.5 88.5q14 47 18 70q37 157 84 458q21 134 34.5 201t29.5 113q0 -10 4 -25l4 -22q17 -150 25 -238q16 -168 30 -388t14 -347q0 -20 -40 -20q-8 0 -14 1h-12q-120 0 -207 29v12q0 31 7.5 67.5z" />
    <glyph glyph-name="Abreve" unicode="&#x102;" 
d="M384 1802q16 -33 46.5 -51.5t71.5 -18.5q26 0 44 7q21 7 32.5 14t22.5 24q11 16 17.5 29t15.5 34q6 15 10 23l6 12l-5 15l6 15q5 13 5 17q0 12 -9.5 20.5t-21.5 8.5q-37 0 -37 -39q0 -8 1 -14q1 -7 1 -15q0 -20 -10 -44.5t-26.5 -42t-33.5 -17.5h-51l-22 16
q-22 16 -33 50.5t-19 81.5q-6 30 -20 32l-22 -18q0 -76 31 -139zM564 10q12 -10 27 -10q32 0 39 17q6 13 6 40v9q0 80 -11 267q-12 179 -12 267l-28 340q-16 184 -37.5 371t-32.5 205q-15 20 -47 20q-13 0 -29 -34q-17 -36 -30 -83q-20 -69 -37 -145q-23 -104 -74 -397
q-47 -273 -78 -406l-30 -135l-42 -189l-24 -102v-3q-1 -1 -1 -3q0 -14 13 -24t29 -10q18 0 22 15q6 31 26 118t37 154q20 77 26 77q38 0 105.5 -9.5t119 -25t51.5 -31.5v-268q0 -15 12 -25zM284.5 505.5q7.5 36.5 22.5 88.5q14 47 18 70q37 157 84 458q21 134 34.5 201
t29.5 113q0 -10 4 -25l4 -22q17 -150 25 -238q16 -168 30 -388t14 -347q0 -20 -40 -20q-8 0 -14 1h-12q-120 0 -207 29v12q0 31 7.5 67.5z" />
    <glyph glyph-name="uni01CD" unicode="&#x1cd;" 
d="M485 1741q-9 24 -31.5 88t-36.5 108q-16 49 -18 70l-35 47l-37 -27q1 -30 36.5 -116t76 -158t59.5 -72q29 0 29 43q0 38 9 76t28 90q15 45 24 74l-2 12l15 31l-2 10q8 18 8 23q0 18 -37 24l-27 -16q-11 -129 -59 -307zM564 10q12 -10 27 -10q32 0 39 17q6 13 6 40v9
q0 80 -11 267q-12 179 -12 267l-28 340q-16 184 -37.5 371t-32.5 205q-15 20 -47 20q-13 0 -29 -34q-17 -36 -30 -83q-20 -69 -37 -145q-23 -104 -74 -397q-47 -273 -78 -406l-30 -135l-42 -189l-24 -102v-3q-1 -1 -1 -3q0 -14 13 -24t29 -10q18 0 22 15q6 31 26 118t37 154
q20 77 26 77q38 0 105.5 -9.5t119 -25t51.5 -31.5v-268q0 -15 12 -25zM284.5 505.5q7.5 36.5 22.5 88.5q14 47 18 70q37 157 84 458q21 134 34.5 201t29.5 113q0 -10 4 -25l4 -22q17 -150 25 -238q16 -168 30 -388t14 -347q0 -20 -40 -20q-8 0 -14 1h-12q-120 0 -207 29v12
q0 31 7.5 67.5z" />
    <glyph glyph-name="Acircumflex" unicode="&#xc2;" 
d="M618 1706q0 4 -8 22l2 11l-15 30l2 13q-9 29 -24 74q-19 51 -28 89t-9 76q0 43 -29 43q-19 0 -59.5 -72t-76 -158t-36.5 -116l37 -26l35 47q2 21 18 70q14 44 36.5 108t31.5 88q48 -178 59 -307l27 -17q37 6 37 25zM564 10q12 -10 27 -10q32 0 39 17q6 13 6 40v9
q0 80 -11 267q-12 179 -12 267l-28 340q-16 184 -37.5 371t-32.5 205q-15 20 -47 20q-13 0 -29 -34q-17 -36 -30 -83q-20 -69 -37 -145q-23 -104 -74 -397q-47 -273 -78 -406l-30 -135l-42 -189l-24 -102v-3q-1 -1 -1 -3q0 -14 13 -24t29 -10q18 0 22 15q6 31 26 118t37 154
q20 77 26 77q38 0 105.5 -9.5t119 -25t51.5 -31.5v-268q0 -15 12 -25zM284.5 505.5q7.5 36.5 22.5 88.5q14 47 18 70q37 157 84 458q21 134 34.5 201t29.5 113q0 -10 4 -25l4 -22q17 -150 25 -238q16 -168 30 -388t14 -347q0 -20 -40 -20q-8 0 -14 1h-12q-120 0 -207 29v12
q0 31 7.5 67.5z" />
    <glyph glyph-name="uni0200" unicode="&#x200;" 
d="M541.5 1971q-79.5 68 -164 131.5t-95.5 63.5q-4 0 -13 -11t-9 -20q0 -13 13 -20q147 -118 186 -145q23 -10 71 -46q51 -38 85 -45l9 11q-3 13 -82.5 81zM130 2091q-105 60 -115 60q-11 0 -25 -17t-17 -33l107 -60q33 -14 110 -55q3 -1 27 -16l23 -15q35 -24 74 -48
q34 -22 42 -22q11 0 11 15t-97 90q-106 80 -140 101zM564 10q12 -10 27 -10q32 0 39 17q6 13 6 40v9q0 80 -11 267q-12 179 -12 267l-28 340q-16 184 -37.5 371t-32.5 205q-15 20 -47 20q-13 0 -29 -34q-17 -36 -30 -83q-20 -69 -37 -145q-23 -104 -74 -397
q-47 -273 -78 -406l-30 -135l-42 -189l-24 -102v-3q-1 -1 -1 -3q0 -14 13 -24t29 -10q18 0 22 15q6 31 26 118t37 154q20 77 26 77q38 0 105.5 -9.5t119 -25t51.5 -31.5v-268q0 -15 12 -25zM284.5 505.5q7.5 36.5 22.5 88.5q14 47 18 70q37 157 84 458q21 134 34.5 201
t29.5 113q0 -10 4 -25l4 -22q17 -150 25 -238q16 -168 30 -388t14 -347q0 -20 -40 -20q-8 0 -14 1h-12q-120 0 -207 29v12q0 31 7.5 67.5z" />
    <glyph glyph-name="Adieresis" unicode="&#xc4;" 
d="M678 1834.5q13 -14.5 28 -14.5q54 0 54 47q0 16 -14 32.5t-31 16.5q-19 0 -34.5 -16t-15.5 -35q0 -16 13 -30.5zM216.5 1828q11.5 -16 27.5 -16q20 0 35.5 9.5t15.5 25.5q0 28 -10.5 47.5t-30.5 19.5q-18 0 -33.5 -16.5t-15.5 -34.5q0 -19 11.5 -35zM564 10
q12 -10 27 -10q32 0 39 17q6 13 6 40v9q0 80 -11 267q-12 179 -12 267l-28 340q-16 184 -37.5 371t-32.5 205q-15 20 -47 20q-13 0 -29 -34q-17 -36 -30 -83q-20 -69 -37 -145q-23 -104 -74 -397q-47 -273 -78 -406l-30 -135l-42 -189l-24 -102v-3q-1 -1 -1 -3q0 -14 13 -24
t29 -10q18 0 22 15q6 31 26 118t37 154q20 77 26 77q38 0 105.5 -9.5t119 -25t51.5 -31.5v-268q0 -15 12 -25zM284.5 505.5q7.5 36.5 22.5 88.5q14 47 18 70q37 157 84 458q21 134 34.5 201t29.5 113q0 -10 4 -25l4 -22q17 -150 25 -238q16 -168 30 -388t14 -347
q0 -20 -40 -20q-8 0 -14 1h-12q-120 0 -207 29v12q0 31 7.5 67.5z" />
    <glyph glyph-name="uni0226" unicode="&#x226;" 
d="M432.5 1899.5q13.5 -15.5 31.5 -15.5q57 0 57 51q0 18 -15.5 35.5t-33.5 17.5q-20 0 -36.5 -17.5t-16.5 -37.5q0 -18 13.5 -33.5zM564 10q12 -10 27 -10q32 0 39 17q6 13 6 40v9q0 80 -11 267q-12 179 -12 267l-28 340q-16 184 -37.5 371t-32.5 205q-15 20 -47 20
q-13 0 -29 -34q-17 -36 -30 -83q-20 -69 -37 -145q-23 -104 -74 -397q-47 -273 -78 -406l-30 -135l-42 -189l-24 -102v-3q-1 -1 -1 -3q0 -14 13 -24t29 -10q18 0 22 15q6 31 26 118t37 154q20 77 26 77q38 0 105.5 -9.5t119 -25t51.5 -31.5v-268q0 -15 12 -25zM284.5 505.5
q7.5 36.5 22.5 88.5q14 47 18 70q37 157 84 458q21 134 34.5 201t29.5 113q0 -10 4 -25l4 -22q17 -150 25 -238q16 -168 30 -388t14 -347q0 -20 -40 -20q-8 0 -14 1h-12q-120 0 -207 29v12q0 31 7.5 67.5z" />
    <glyph glyph-name="Agrave" unicode="&#xc0;" 
d="M386.5 1911.5q97.5 -34.5 101.5 -34.5q7 0 15.5 5.5t8.5 11.5q0 17 -39 39q-34 19 -84 39q-54 21 -81 30q-10 3 -16.5 5t-8.5 3q-18 23 -79 23h-13q-13 -9 -13 -45q0 -41 70 -41q16 0 33 4q8 -5 105.5 -39.5zM564 10q12 -10 27 -10q32 0 39 17q6 13 6 40v9q0 80 -11 267
q-12 179 -12 267l-28 340q-16 184 -37.5 371t-32.5 205q-15 20 -47 20q-13 0 -29 -34q-17 -36 -30 -83q-20 -69 -37 -145q-23 -104 -74 -397q-47 -273 -78 -406l-30 -135l-42 -189l-24 -102v-3q-1 -1 -1 -3q0 -14 13 -24t29 -10q18 0 22 15q6 31 26 118t37 154q20 77 26 77
q38 0 105.5 -9.5t119 -25t51.5 -31.5v-268q0 -15 12 -25zM284.5 505.5q7.5 36.5 22.5 88.5q14 47 18 70q37 157 84 458q21 134 34.5 201t29.5 113q0 -10 4 -25l4 -22q17 -150 25 -238q16 -168 30 -388t14 -347q0 -20 -40 -20q-8 0 -14 1h-12q-120 0 -207 29v12
q0 31 7.5 67.5z" />
    <glyph glyph-name="uni0202" unicode="&#x202;" 
d="M385 1853q8 47 19 81.5t33 50.5l22 16h51q17 0 33.5 -17.5t26.5 -42t10 -44.5q0 -8 -1 -14q-1 -7 -1 -15q0 -39 37 -39q12 0 21.5 8.5t9.5 20.5q0 4 -5 17l-6 15l5 15q-2 4 -6 12.5t-10 23.5t-10 23l-6 12q-22 42 -41 52q-36 20 -75 20q-41 0 -71.5 -18.5t-46.5 -51.5
q-31 -63 -31 -139l22 -18q14 2 20 32zM564 10q12 -10 27 -10q32 0 39 17q6 13 6 40v9q0 80 -11 267q-12 179 -12 267l-28 340q-16 184 -37.5 371t-32.5 205q-15 20 -47 20q-13 0 -29 -34q-17 -36 -30 -83q-20 -69 -37 -145q-23 -104 -74 -397q-47 -273 -78 -406l-30 -135
l-42 -189l-24 -102v-3q-1 -1 -1 -3q0 -14 13 -24t29 -10q18 0 22 15q6 31 26 118t37 154q20 77 26 77q38 0 105.5 -9.5t119 -25t51.5 -31.5v-268q0 -15 12 -25zM284.5 505.5q7.5 36.5 22.5 88.5q14 47 18 70q37 157 84 458q21 134 34.5 201t29.5 113q0 -10 4 -25l4 -22
q17 -150 25 -238q16 -168 30 -388t14 -347q0 -20 -40 -20q-8 0 -14 1h-12q-120 0 -207 29v12q0 31 7.5 67.5z" />
    <glyph glyph-name="Amacron" unicode="&#x100;" 
d="M706 1870q-10 7 -34 10q-23 3 -46 3.5t-58 0.5h-116q-129 0 -131 -17q0 -7 5 -14q6 -8 39 -15q19 -4 65 -4h40h115q129 0 131 17q0 12 -10 19zM564 10q12 -10 27 -10q32 0 39 17q6 13 6 40v9q0 80 -11 267q-12 179 -12 267l-28 340q-16 184 -37.5 371t-32.5 205
q-15 20 -47 20q-13 0 -29 -34q-17 -36 -30 -83q-20 -69 -37 -145q-23 -104 -74 -397q-47 -273 -78 -406l-30 -135l-42 -189l-24 -102v-3q-1 -1 -1 -3q0 -14 13 -24t29 -10q18 0 22 15q6 31 26 118t37 154q20 77 26 77q38 0 105.5 -9.5t119 -25t51.5 -31.5v-268q0 -15 12 -25
zM284.5 505.5q7.5 36.5 22.5 88.5q14 47 18 70q37 157 84 458q21 134 34.5 201t29.5 113q0 -10 4 -25l4 -22q17 -150 25 -238q16 -168 30 -388t14 -347q0 -20 -40 -20q-8 0 -14 1h-12q-120 0 -207 29v12q0 31 7.5 67.5z" />
    <glyph glyph-name="Aogonek" unicode="&#x104;" 
d="M662 -394q0 -25 -28 -40t-60 -15q-39 0 -75 26.5t-58 65t-22 70.5q0 47 14 96.5t36 88.5q45 77 77 109l11 11q-5 8 -5 17v268q0 16 -51.5 31.5t-119 25t-105.5 9.5q-6 0 -26 -77q-17 -67 -37 -154t-26 -118q-4 -15 -22 -15q-16 0 -29 10t-13 24q0 2 1 3v3l24 102l42 189
l30 135q31 133 78 406q51 293 74 397q17 76 37 145q13 47 30 83q16 34 29 34q32 0 47 -20q11 -18 32.5 -205t37.5 -371l28 -340q0 -88 12 -267q11 -187 11 -267v-9q0 -27 -6 -40q-5 -11 -14 -13l-11 -16q-24 -32 -42.5 -61.5t-33.5 -67.5q-18 -44 -18 -79q0 -22 -4 -47
l-1 -20q-1 -10 -1 -23q0 -27 22.5 -55.5t46.5 -28.5q11 0 33 11q20 10 33 10q22 0 22 -21zM550 416q0 127 -14 347t-30 388q-8 88 -25 238l-4 22q-4 15 -4 25q-16 -46 -29.5 -113t-34.5 -201q-47 -301 -84 -458q-4 -23 -18 -70q-15 -52 -22.5 -88.5t-7.5 -67.5v-12
q87 -29 207 -29h12q6 -1 14 -1q40 0 40 20z" />
    <glyph glyph-name="Aring" unicode="&#xc5;" 
d="M377 1844q14 -25 37 -40.5t49 -15.5q59 0 95 30.5t36 86.5q0 25 -17 53t-43.5 46.5t-51.5 18.5q-29 0 -56.5 -19t-45 -48.5t-17.5 -59.5q0 -27 14 -52zM433.5 1959q23.5 25 48.5 25q28 0 43.5 -30t15.5 -70q0 -22 -29.5 -39.5t-56.5 -17.5q-19 0 -29 16q-10 14 -13 28.5
t-3 35.5q0 27 23.5 52zM564 10q12 -10 27 -10q32 0 39 17q6 13 6 40v9q0 80 -11 267q-12 179 -12 267l-28 340q-16 184 -37.5 371t-32.5 205q-15 20 -47 20q-13 0 -29 -34q-17 -36 -30 -83q-20 -69 -37 -145q-23 -104 -74 -397q-47 -273 -78 -406l-30 -135l-42 -189
l-24 -102v-3q-1 -1 -1 -3q0 -14 13 -24t29 -10q18 0 22 15q6 31 26 118t37 154q20 77 26 77q38 0 105.5 -9.5t119 -25t51.5 -31.5v-268q0 -15 12 -25zM284.5 505.5q7.5 36.5 22.5 88.5q14 47 18 70q37 157 84 458q21 134 34.5 201t29.5 113q0 -10 4 -25l4 -22
q17 -150 25 -238q16 -168 30 -388t14 -347q0 -20 -40 -20q-8 0 -14 1h-12q-120 0 -207 29v12q0 31 7.5 67.5z" />
    <glyph glyph-name="Aringacute" unicode="&#x1fa;" 
d="M450.5 2153q10.5 -8 26.5 -8q151 129 256 176l6 31q0 32 -45 32q-7 -7 -76 -60q-77 -59 -122 -96q-56 -45 -56 -53q0 -14 10.5 -22zM377 1844q14 -25 37 -40.5t49 -15.5q59 0 95 30.5t36 86.5q0 25 -17 53t-43.5 46.5t-51.5 18.5q-29 0 -56.5 -19t-45 -48.5t-17.5 -59.5
q0 -27 14 -52zM433.5 1959q23.5 25 48.5 25q28 0 43.5 -30t15.5 -70q0 -22 -29.5 -39.5t-56.5 -17.5q-19 0 -29 16q-10 14 -13 28.5t-3 35.5q0 27 23.5 52zM564 10q12 -10 27 -10q32 0 39 17q6 13 6 40v9q0 80 -11 267q-12 179 -12 267l-28 340q-16 184 -37.5 371t-32.5 205
q-15 20 -47 20q-13 0 -29 -34q-17 -36 -30 -83q-20 -69 -37 -145q-23 -104 -74 -397q-47 -273 -78 -406l-30 -135l-42 -189l-24 -102v-3q-1 -1 -1 -3q0 -14 13 -24t29 -10q18 0 22 15q6 31 26 118t37 154q20 77 26 77q38 0 105.5 -9.5t119 -25t51.5 -31.5v-268q0 -15 12 -25
zM284.5 505.5q7.5 36.5 22.5 88.5q14 47 18 70q37 157 84 458q21 134 34.5 201t29.5 113q0 -10 4 -25l4 -22q17 -150 25 -238q16 -168 30 -388t14 -347q0 -20 -40 -20q-8 0 -14 1h-12q-120 0 -207 29v12q0 31 7.5 67.5z" />
    <glyph glyph-name="Atilde" unicode="&#xc3;" 
d="M258 1762.5q13 -11.5 26 -11.5l22 31q-10 33 -10 43q0 23 23 39t53 16l14 -6q33 -39 52 -58q22 -23 59 -43t71 -20q28 0 53 15t40.5 40t15.5 53q0 29 -12 49.5t-35 20.5q-15 0 -21 -12q2 -8 7 -18q5 -15 5 -21q0 -73 -53 -73q-30 0 -66 24.5t-51 54.5q-36 42 -87 42
q-50 0 -84.5 -39t-34.5 -103q0 -12 13 -23.5zM564 10q12 -10 27 -10q32 0 39 17q6 13 6 40v9q0 80 -11 267q-12 179 -12 267l-28 340q-16 184 -37.5 371t-32.5 205q-15 20 -47 20q-13 0 -29 -34q-17 -36 -30 -83q-20 -69 -37 -145q-23 -104 -74 -397q-47 -273 -78 -406
l-30 -135l-42 -189l-24 -102v-3q-1 -1 -1 -3q0 -14 13 -24t29 -10q18 0 22 15q6 31 26 118t37 154q20 77 26 77q38 0 105.5 -9.5t119 -25t51.5 -31.5v-268q0 -15 12 -25zM284.5 505.5q7.5 36.5 22.5 88.5q14 47 18 70q37 157 84 458q21 134 34.5 201t29.5 113q0 -10 4 -25
l4 -22q17 -150 25 -238q16 -168 30 -388t14 -347q0 -20 -40 -20q-8 0 -14 1h-12q-120 0 -207 29v12q0 31 7.5 67.5z" />
    <glyph glyph-name="AE" unicode="&#xc6;" horiz-adv-x="940" 
d="M561 -28l19 14q11 5 85 7q71 1 133 9q61 7 61 29q0 12 -14 19t-31 7q-36 0 -116 -11t-116 -11q-18 0 -18 35q0 23 1 42t1 42q0 100 -4 244t-4 243h54q146 0 146 35l-28 35q-31 0 -81 -10q-55 -11 -81 -11l-10 12q0 80 3 239t3 239q0 58 -7 153t-7 152q102 12 202 12
l13 25q0 32 -64 32q-22 0 -80 -5t-78 -5q-24 0 -45 -29t-49 -122q-143 -462 -268 -961q-81 -312 -82 -405q0 -8 5 -16.5t11 -8.5q17 0 32 41q12 34 24.5 90.5t15.5 75.5l102 391q3 10 47 18q32 5 100 11q57 5 64 6l11 -14q0 -50 5 -195t5 -197q0 -125 -17 -241l29 -29
q12 2 28 13zM517 1153q0 -89 -3 -250l-5 -215q-76 -19 -205 -24q3 33 49 210t93 341t58 178q13 -97 13 -240z" />
    <glyph glyph-name="AEacute" unicode="&#x1fc;" horiz-adv-x="940" 
d="M669.5 1701q10.5 -8 26.5 -8q151 129 256 176l6 31q0 32 -45 32q-7 -7 -76 -60q-77 -59 -122 -96q-56 -45 -56 -53q0 -14 10.5 -22zM561 -28l19 14q11 5 85 7q71 1 133 9q61 7 61 29q0 12 -14 19t-31 7q-36 0 -116 -11t-116 -11q-18 0 -18 35q0 23 1 42t1 42
q0 100 -4 244t-4 243h54q146 0 146 35l-28 35q-31 0 -81 -10q-55 -11 -81 -11l-10 12q0 80 3 239t3 239q0 58 -7 153t-7 152q102 12 202 12l13 25q0 32 -64 32q-22 0 -80 -5t-78 -5q-24 0 -45 -29t-49 -122q-143 -462 -268 -961q-81 -312 -82 -405q0 -8 5 -16.5t11 -8.5
q17 0 32 41q12 34 24.5 90.5t15.5 75.5l102 391q3 10 47 18q32 5 100 11q57 5 64 6l11 -14q0 -50 5 -195t5 -197q0 -125 -17 -241l29 -29q12 2 28 13zM517 1153q0 -89 -3 -250l-5 -215q-76 -19 -205 -24q3 33 49 210t93 341t58 178q13 -97 13 -240z" />
    <glyph glyph-name="uni01E2" unicode="&#x1e2;" horiz-adv-x="940" 
d="M882 1729q-10 7 -34 10q-23 3 -46 3.5t-58 0.5h-116q-129 0 -131 -17q0 -7 5 -14q6 -8 39 -15q19 -4 65 -4h40h115q129 0 131 17q0 12 -10 19zM561 -28l19 14q11 5 85 7q71 1 133 9q61 7 61 29q0 12 -14 19t-31 7q-36 0 -116 -11t-116 -11q-18 0 -18 35q0 23 1 42t1 42
q0 100 -4 244t-4 243h54q146 0 146 35l-28 35q-31 0 -81 -10q-55 -11 -81 -11l-10 12q0 80 3 239t3 239q0 58 -7 153t-7 152q102 12 202 12l13 25q0 32 -64 32q-22 0 -80 -5t-78 -5q-24 0 -45 -29t-49 -122q-143 -462 -268 -961q-81 -312 -82 -405q0 -8 5 -16.5t11 -8.5
q17 0 32 41q12 34 24.5 90.5t15.5 75.5l102 391q3 10 47 18q32 5 100 11q57 5 64 6l11 -14q0 -50 5 -195t5 -197q0 -125 -17 -241l29 -29q12 2 28 13zM517 1153q0 -89 -3 -250l-5 -215q-76 -19 -205 -24q3 33 49 210t93 341t58 178q13 -97 13 -240z" />
    <glyph glyph-name="B" unicode="B" horiz-adv-x="740" 
d="M259 -12h4q17 0 41 10q23 8 40 10q63 28 106 57q44 30 70 62.5t40 77.5t19 95.5t5 132.5q0 93 -19 165t-61.5 137.5t-116.5 138.5q132 179 132 340q0 95 -33 168t-98 113.5t-156 40.5q-53 0 -53 -147q0 -162 7 -427t7 -427q0 -67 -5 -259q-5 -193 -5 -260q0 -28 76 -28z
M246 1133q-4 145 -4 245q0 88 53 88q44 0 83.5 -29.5t63 -76t23.5 -92.5q0 -54 -14.5 -118.5t-40.5 -123.5q-27 -62 -68.5 -101.5t-85.5 -39.5l-6 2q0 101 -4 246zM250 788q12 1 47 12q30 9 54 11q176 -74 176 -440q0 -79 -34.5 -149t-93 -112t-126.5 -42l-6 1q-3 1 -7 1
q0 432 -10 718z" />
    <glyph glyph-name="uni1E02" unicode="&#x1e02;" horiz-adv-x="740" 
d="M330.5 1899.5q13.5 -15.5 31.5 -15.5q57 0 57 51q0 18 -15.5 35.5t-33.5 17.5q-20 0 -36.5 -17.5t-16.5 -37.5q0 -18 13.5 -33.5zM259 -12h4q17 0 41 10q23 8 40 10q63 28 106 57q44 30 70 62.5t40 77.5t19 95.5t5 132.5q0 93 -19 165t-61.5 137.5t-116.5 138.5
q132 179 132 340q0 95 -33 168t-98 113.5t-156 40.5q-53 0 -53 -147q0 -162 7 -427t7 -427q0 -67 -5 -259q-5 -193 -5 -260q0 -28 76 -28zM246 1133q-4 145 -4 245q0 88 53 88q44 0 83.5 -29.5t63 -76t23.5 -92.5q0 -54 -14.5 -118.5t-40.5 -123.5q-27 -62 -68.5 -101.5
t-85.5 -39.5l-6 2q0 101 -4 246zM250 788q12 1 47 12q30 9 54 11q176 -74 176 -440q0 -79 -34.5 -149t-93 -112t-126.5 -42l-6 1q-3 1 -7 1q0 432 -10 718z" />
    <glyph glyph-name="C" unicode="C" horiz-adv-x="780" 
d="M185 620.5q12 -172.5 30 -321.5t34 -184q17 -37 52.5 -71.5t78 -55.5t80.5 -21q73 0 144 29q37 15 60 42.5t23 63.5q0 30 -19 30q-21 0 -38 -26q-50 -59 -143 -59q-54 0 -101.5 21t-72.5 59q-19 28 -38.5 170.5t-32.5 310.5t-13 252l-2 107l-2 114q0 64 5 124
q5 58 20.5 114t39.5 91q27 39 72.5 62t103.5 23q19 0 56 -14q35 -15 47 -15q32 0 32 23q0 20 -19 37.5t-47 28t-52 10.5q-61 0 -106 -13q-48 -13 -80 -34.5t-55 -56.5q-24 -35 -37.5 -72t-20.5 -89q-7 -51 -10 -98t-3 -112q0 -57 1 -104q1 -48 1 -109q0 -84 12 -256.5z" />
    <glyph glyph-name="Cacute" unicode="&#x106;" horiz-adv-x="780" 
d="M333.5 1848q10.5 -8 26.5 -8q151 129 256 176l6 31q0 32 -45 32q-7 -7 -76 -60q-77 -59 -122 -96q-56 -45 -56 -53q0 -14 10.5 -22zM185 620.5q12 -172.5 30 -321.5t34 -184q17 -37 52.5 -71.5t78 -55.5t80.5 -21q73 0 144 29q37 15 60 42.5t23 63.5q0 30 -19 30
q-21 0 -38 -26q-50 -59 -143 -59q-54 0 -101.5 21t-72.5 59q-19 28 -38.5 170.5t-32.5 310.5t-13 252l-2 107l-2 114q0 64 5 124q5 58 20.5 114t39.5 91q27 39 72.5 62t103.5 23q19 0 56 -14q35 -15 47 -15q32 0 32 23q0 20 -19 37.5t-47 28t-52 10.5q-61 0 -106 -13
q-48 -13 -80 -34.5t-55 -56.5q-24 -35 -37.5 -72t-20.5 -89q-7 -51 -10 -98t-3 -112q0 -57 1 -104q1 -48 1 -109q0 -84 12 -256.5z" />
    <glyph glyph-name="Ccaron" unicode="&#x10c;" horiz-adv-x="780" 
d="M455 1741q-9 24 -31.5 88t-36.5 108q-16 49 -18 70l-35 47l-37 -27q1 -30 36.5 -116t76 -158t59.5 -72q29 0 29 43q0 38 9 76t28 90q15 45 24 74l-2 12l15 31l-2 10q8 18 8 23q0 18 -37 24l-27 -16q-11 -129 -59 -307zM185 620.5q12 -172.5 30 -321.5t34 -184
q17 -37 52.5 -71.5t78 -55.5t80.5 -21q73 0 144 29q37 15 60 42.5t23 63.5q0 30 -19 30q-21 0 -38 -26q-50 -59 -143 -59q-54 0 -101.5 21t-72.5 59q-19 28 -38.5 170.5t-32.5 310.5t-13 252l-2 107l-2 114q0 64 5 124q5 58 20.5 114t39.5 91q27 39 72.5 62t103.5 23
q19 0 56 -14q35 -15 47 -15q32 0 32 23q0 20 -19 37.5t-47 28t-52 10.5q-61 0 -106 -13q-48 -13 -80 -34.5t-55 -56.5q-24 -35 -37.5 -72t-20.5 -89q-7 -51 -10 -98t-3 -112q0 -57 1 -104q1 -48 1 -109q0 -84 12 -256.5z" />
    <glyph glyph-name="Ccedilla" unicode="&#xc7;" horiz-adv-x="780" 
d="M479 -32q-2 -32 -2 -49q149 -11 149 -206q0 -32 -22 -70.5t-58 -65t-75 -26.5q-32 0 -60 15t-28 40q0 21 22 21q13 0 33 -10q22 -11 33 -11q35 0 57.5 43t22.5 100q0 67 -31 91q-9 0 -27 -3q-17 -4 -28 -4q-30 0 -56 41q14 32 17 97q-53 13 -103.5 54.5t-73.5 89.5
q-16 35 -34 184t-30 321.5t-12 256.5q0 61 -1 109q-1 47 -1 104q0 65 3 112t10 98q7 52 20.5 89t37.5 72q23 35 55 56.5t80 34.5q45 13 106 13q24 0 52 -10.5t47 -28t19 -37.5q0 -23 -32 -23q-12 0 -47 15q-37 14 -56 14q-58 0 -103.5 -23t-72.5 -62q-24 -35 -39.5 -91
t-20.5 -114q-5 -60 -5 -124l2 -114l2 -107q0 -84 13 -252t32.5 -310.5t38.5 -170.5q25 -38 72.5 -59t101.5 -21q93 0 143 59q17 26 38 26q19 0 19 -30q0 -36 -23 -63.5t-60 -42.5q-61 -25 -125 -28z" />
    <glyph glyph-name="Ccircumflex" unicode="&#x108;" horiz-adv-x="780" 
d="M588 1706q0 4 -8 22l2 11l-15 30l2 13q-9 29 -24 74q-19 51 -28 89t-9 76q0 43 -29 43q-19 0 -59.5 -72t-76 -158t-36.5 -116l37 -26l35 47q2 21 18 70q14 44 36.5 108t31.5 88q48 -178 59 -307l27 -17q37 6 37 25zM185 620.5q12 -172.5 30 -321.5t34 -184
q17 -37 52.5 -71.5t78 -55.5t80.5 -21q73 0 144 29q37 15 60 42.5t23 63.5q0 30 -19 30q-21 0 -38 -26q-50 -59 -143 -59q-54 0 -101.5 21t-72.5 59q-19 28 -38.5 170.5t-32.5 310.5t-13 252l-2 107l-2 114q0 64 5 124q5 58 20.5 114t39.5 91q27 39 72.5 62t103.5 23
q19 0 56 -14q35 -15 47 -15q32 0 32 23q0 20 -19 37.5t-47 28t-52 10.5q-61 0 -106 -13q-48 -13 -80 -34.5t-55 -56.5q-24 -35 -37.5 -72t-20.5 -89q-7 -51 -10 -98t-3 -112q0 -57 1 -104q1 -48 1 -109q0 -84 12 -256.5z" />
    <glyph glyph-name="Cdotaccent" unicode="&#x10a;" horiz-adv-x="780" 
d="M402.5 1899.5q13.5 -15.5 31.5 -15.5q57 0 57 51q0 18 -15.5 35.5t-33.5 17.5q-20 0 -36.5 -17.5t-16.5 -37.5q0 -18 13.5 -33.5zM185 620.5q12 -172.5 30 -321.5t34 -184q17 -37 52.5 -71.5t78 -55.5t80.5 -21q73 0 144 29q37 15 60 42.5t23 63.5q0 30 -19 30
q-21 0 -38 -26q-50 -59 -143 -59q-54 0 -101.5 21t-72.5 59q-19 28 -38.5 170.5t-32.5 310.5t-13 252l-2 107l-2 114q0 64 5 124q5 58 20.5 114t39.5 91q27 39 72.5 62t103.5 23q19 0 56 -14q35 -15 47 -15q32 0 32 23q0 20 -19 37.5t-47 28t-52 10.5q-61 0 -106 -13
q-48 -13 -80 -34.5t-55 -56.5q-24 -35 -37.5 -72t-20.5 -89q-7 -51 -10 -98t-3 -112q0 -57 1 -104q1 -48 1 -109q0 -84 12 -256.5z" />
    <glyph glyph-name="D" unicode="D" horiz-adv-x="820" 
d="M196.5 7.5q24.5 -11.5 50.5 -11.5q19 0 72 38t111 103.5t96 146.5q61 130 94.5 278t33.5 275v65q-1 33 -5 88t-10 99q-6 50 -19.5 108t-29.5 104q-18 50 -45.5 97t-59.5 77q-35 33 -82 52t-100 19h-10q-154 0 -154 -49q0 -19 14 -56q13 -36 15 -50q7 -49 12 -286v-26
q3 -214 4 -221l14 -559l6 -180q2 -15 -15 -41q-17 -28 -17 -41q0 -18 24.5 -29.5zM253 719q-16 252 -16 391q0 57 -9 169q-9 113 -9 171q0 23 43 23q330 0 330 -599q0 -67 -6 -141q-7 -81 -28.5 -179t-51.5 -176q-35 -88 -94.5 -163t-133.5 -115h-10v230q0 130 -15 389z" />
    <glyph glyph-name="uni01F1" unicode="&#x1f1;" horiz-adv-x="1440" 
d="M1006 -18q50 0 122 4q71 4 121 4l19 18q0 41 -86 41q-18 0 -66 -5t-67 -5q0 31 22 82t25 74q31 189 82 580l26 199q36 269 35 265q4 25 9 90q5 75 12 122t20 75q0 37 -33 37q-36 0 -96 -10q-66 -11 -96 -11q-34 0 -49 4l-15 -16q0 -41 92 -41q18 0 70 5t68 5
q-1 -59 -17 -160l-6 -39l-4 -32q-19 -141 -78 -566l-16 -114q-11 -49 -26 -181q-14 -137 -36 -232t-63 -167q11 -26 31 -26zM196.5 7.5q24.5 -11.5 50.5 -11.5q19 0 72 38t111 103.5t96 146.5q61 130 94.5 278t33.5 275v65q-1 33 -5 88t-10 99q-6 50 -19.5 108t-29.5 104
q-18 50 -45.5 97t-59.5 77q-35 33 -82 52t-100 19h-10q-154 0 -154 -49q0 -19 14 -56q13 -36 15 -50q7 -49 12 -286v-26q3 -214 4 -221l14 -559l6 -180q2 -15 -15 -41q-17 -28 -17 -41q0 -18 24.5 -29.5zM253 719q-16 252 -16 391q0 57 -9 169q-9 113 -9 171q0 23 43 23
q330 0 330 -599q0 -67 -6 -141q-7 -81 -28.5 -179t-51.5 -176q-35 -88 -94.5 -163t-133.5 -115h-10v230q0 130 -15 389z" />
    <glyph glyph-name="uni01C4" unicode="&#x1c4;" horiz-adv-x="1440" 
d="M1153 1741q-9 24 -31.5 88t-36.5 108q-16 49 -18 70l-35 47l-37 -27q1 -30 36.5 -116t76 -158t59.5 -72q29 0 29 43q0 38 9 76t28 90q15 45 24 74l-2 12l15 31l-2 10q8 18 8 23q0 18 -37 24l-27 -16q-11 -129 -59 -307zM1006 -18q50 0 122 4q71 4 121 4l19 18
q0 41 -86 41q-18 0 -66 -5t-67 -5q0 31 22 82t25 74q31 189 82 580l26 199q36 269 35 265q4 25 9 90q5 75 12 122t20 75q0 37 -33 37q-36 0 -96 -10q-66 -11 -96 -11q-34 0 -49 4l-15 -16q0 -41 92 -41q18 0 70 5t68 5q-1 -59 -17 -160l-6 -39l-4 -32q-19 -141 -78 -566
l-16 -114q-11 -49 -26 -181q-14 -137 -36 -232t-63 -167q11 -26 31 -26zM196.5 7.5q24.5 -11.5 50.5 -11.5q19 0 72 38t111 103.5t96 146.5q61 130 94.5 278t33.5 275v65q-1 33 -5 88t-10 99q-6 50 -19.5 108t-29.5 104q-18 50 -45.5 97t-59.5 77q-35 33 -82 52t-100 19h-10
q-154 0 -154 -49q0 -19 14 -56q13 -36 15 -50q7 -49 12 -286v-26q3 -214 4 -221l14 -559l6 -180q2 -15 -15 -41q-17 -28 -17 -41q0 -18 24.5 -29.5zM253 719q-16 252 -16 391q0 57 -9 169q-9 113 -9 171q0 23 43 23q330 0 330 -599q0 -67 -6 -141q-7 -81 -28.5 -179
t-51.5 -176q-35 -88 -94.5 -163t-133.5 -115h-10v230q0 130 -15 389z" />
    <glyph glyph-name="Eth" unicode="&#xd0;" horiz-adv-x="880" 
d="M255.5 -70q7.5 -6 22.5 -10q21 -7 23 -8q117 52 216 181q94 125 144.5 272t50.5 284q0 317 -96 588v4q-68 126 -171 235q-56 60 -122.5 95t-128.5 35q-8 0 -20.5 -17t-12.5 -26q0 -61 9 -183q8 -130 8 -184q0 -57 14 -185t14 -184l-1 -5l-1 -5l-8 -4h-18q-127 0 -127 -37
q0 -19 5.5 -27t22.5 -8q23 0 62 7q41 6 63 6q6 -21 17 -152q18 -379 18 -651h2q7 -15 14.5 -21zM281.5 591q-5.5 129 -5.5 165q67 14 168 14l20 25q-2 19 -14.5 34t-28.5 15q-21 0 -70 -11q-46 -12 -71 -12q-12 17 -23.5 151.5t-18.5 301.5t-7 260l4 4q140 -41 233 -162.5
t127 -288.5q20 -75 30 -162q9 -82 11 -135.5t2 -173.5q0 -87 -35 -191t-94 -201.5t-127 -164.5l-13 -13q-17 -19 -26 -25q-14 -10 -34 -15q0 81 -10 222q-11 156 -11 221l2 2q-3 11 -8.5 140z" />
    <glyph glyph-name="Dcaron" unicode="&#x10e;" horiz-adv-x="820" 
d="M384 1741q-9 24 -31.5 88t-36.5 108q-16 49 -18 70l-35 47l-37 -27q1 -30 36.5 -116t76 -158t59.5 -72q29 0 29 43q0 38 9 76t28 90q15 45 24 74l-2 12l15 31l-2 10q8 18 8 23q0 18 -37 24l-27 -16q-11 -129 -59 -307zM196.5 7.5q24.5 -11.5 50.5 -11.5q19 0 72 38
t111 103.5t96 146.5q61 130 94.5 278t33.5 275v65q-1 33 -5 88t-10 99q-6 50 -19.5 108t-29.5 104q-18 50 -45.5 97t-59.5 77q-35 33 -82 52t-100 19h-10q-154 0 -154 -49q0 -19 14 -56q13 -36 15 -50q7 -49 12 -286v-26q3 -214 4 -221l14 -559l6 -180q2 -15 -15 -41
q-17 -28 -17 -41q0 -18 24.5 -29.5zM253 719q-16 252 -16 391q0 57 -9 169q-9 113 -9 171q0 23 43 23q330 0 330 -599q0 -67 -6 -141q-7 -81 -28.5 -179t-51.5 -176q-35 -88 -94.5 -163t-133.5 -115h-10v230q0 130 -15 389z" />
    <glyph glyph-name="Dcroat" unicode="&#x110;" horiz-adv-x="880" 
d="M255.5 -70q7.5 -6 22.5 -10q21 -7 23 -8q117 52 216 181q94 125 144.5 272t50.5 284q0 317 -96 588v4q-68 126 -171 235q-56 60 -122.5 95t-128.5 35q-8 0 -20.5 -17t-12.5 -26q0 -61 9 -183q8 -130 8 -184q0 -57 14 -185t14 -184l-1 -5l-1 -5l-8 -4h-18q-127 0 -127 -37
q0 -19 5.5 -27t22.5 -8q23 0 62 7q41 6 63 6q6 -21 17 -152q18 -379 18 -651h2q7 -15 14.5 -21zM281.5 591q-5.5 129 -5.5 165q67 14 168 14l20 25q-2 19 -14.5 34t-28.5 15q-21 0 -70 -11q-46 -12 -71 -12q-12 17 -23.5 151.5t-18.5 301.5t-7 260l4 4q140 -41 233 -162.5
t127 -288.5q20 -75 30 -162q9 -82 11 -135.5t2 -173.5q0 -87 -35 -191t-94 -201.5t-127 -164.5l-13 -13q-17 -19 -26 -25q-14 -10 -34 -15q0 81 -10 222q-11 156 -11 221l2 2q-3 11 -8.5 140z" />
    <glyph glyph-name="uni1E0A" unicode="&#x1e0a;" horiz-adv-x="820" 
d="M331.5 1899.5q13.5 -15.5 31.5 -15.5q57 0 57 51q0 18 -15.5 35.5t-33.5 17.5q-20 0 -36.5 -17.5t-16.5 -37.5q0 -18 13.5 -33.5zM196.5 7.5q24.5 -11.5 50.5 -11.5q19 0 72 38t111 103.5t96 146.5q61 130 94.5 278t33.5 275v65q-1 33 -5 88t-10 99q-6 50 -19.5 108
t-29.5 104q-18 50 -45.5 97t-59.5 77q-35 33 -82 52t-100 19h-10q-154 0 -154 -49q0 -19 14 -56q13 -36 15 -50q7 -49 12 -286v-26q3 -214 4 -221l14 -559l6 -180q2 -15 -15 -41q-17 -28 -17 -41q0 -18 24.5 -29.5zM253 719q-16 252 -16 391q0 57 -9 169q-9 113 -9 171
q0 23 43 23q330 0 330 -599q0 -67 -6 -141q-7 -81 -28.5 -179t-51.5 -176q-35 -88 -94.5 -163t-133.5 -115h-10v230q0 130 -15 389z" />
    <glyph glyph-name="uni01F2" unicode="&#x1f2;" horiz-adv-x="1520" 
d="M196.5 7.5q24.5 -11.5 50.5 -11.5q19 0 72 38t111 103.5t96 146.5q61 130 94.5 278t33.5 275v65q-1 33 -5 88t-10 99q-6 50 -19.5 108t-29.5 104q-18 50 -45.5 97t-59.5 77q-35 33 -82 52t-100 19h-10q-154 0 -154 -49q0 -19 14 -56q13 -36 15 -50q7 -49 12 -286v-26
q3 -214 4 -221l14 -559l6 -180q2 -15 -15 -41q-17 -28 -17 -41q0 -18 24.5 -29.5zM253 719q-16 252 -16 391q0 57 -9 169q-9 113 -9 171q0 23 43 23q330 0 330 -599q0 -67 -6 -141q-7 -81 -28.5 -179t-51.5 -176q-35 -88 -94.5 -163t-133.5 -115h-10v230q0 130 -15 389z
M1014 -4q5 0 29 11q22 11 44 11q21 0 61 -3q41 -3 60 -3q47 0 47 27t-59 27q-14 0 -43 -3q-25 -4 -43 -4q-42 0 -59 4q1 198 130 625q52 175 62 227q0 28 50 184t50 224q0 14 -8 22t-16.5 9.5t-26.5 1.5q-84 0 -153 -7q-74 -8 -74 -26q0 -12 8.5 -22.5t20.5 -10.5q36 0 96 7
q65 6 96 6q0 -83 -25 -191.5t-74 -263.5q-42 -130 -56 -185t-39 -177q-23 -113 -39 -169l-31 -114l-18 -70q-21 -81 -21 -106q0 -31 31 -31z" />
    <glyph glyph-name="uni01C5" unicode="&#x1c5;" horiz-adv-x="1520" 
d="M1243 1561q-9 24 -31.5 88t-36.5 108q-16 49 -18 70l-35 47l-37 -27q1 -30 36.5 -116t76 -158t59.5 -72q29 0 29 43q0 38 9 76t28 90q15 45 24 74l-2 12l15 31l-2 10q8 18 8 23q0 18 -37 24l-27 -16q-11 -129 -59 -307zM196.5 7.5q24.5 -11.5 50.5 -11.5q19 0 72 38
t111 103.5t96 146.5q61 130 94.5 278t33.5 275v65q-1 33 -5 88t-10 99q-6 50 -19.5 108t-29.5 104q-18 50 -45.5 97t-59.5 77q-35 33 -82 52t-100 19h-10q-154 0 -154 -49q0 -19 14 -56q13 -36 15 -50q7 -49 12 -286v-26q3 -214 4 -221l14 -559l6 -180q2 -15 -15 -41
q-17 -28 -17 -41q0 -18 24.5 -29.5zM253 719q-16 252 -16 391q0 57 -9 169q-9 113 -9 171q0 23 43 23q330 0 330 -599q0 -67 -6 -141q-7 -81 -28.5 -179t-51.5 -176q-35 -88 -94.5 -163t-133.5 -115h-10v230q0 130 -15 389zM1014 -4q5 0 29 11q22 11 44 11q21 0 61 -3
q41 -3 60 -3q47 0 47 27t-59 27q-14 0 -43 -3q-25 -4 -43 -4q-42 0 -59 4q1 198 130 625q52 175 62 227q0 28 50 184t50 224q0 14 -8 22t-16.5 9.5t-26.5 1.5q-84 0 -153 -7q-74 -8 -74 -26q0 -12 8.5 -22.5t20.5 -10.5q36 0 96 7q65 6 96 6q0 -83 -25 -191.5t-74 -263.5
q-42 -130 -56 -185t-39 -177q-23 -113 -39 -169l-31 -114l-18 -70q-21 -81 -21 -106q0 -31 31 -31z" />
    <glyph glyph-name="E" unicode="E" horiz-adv-x="620" 
d="M212 -3.5q20 -8.5 68 -8.5h87q79 0 100 8q19 7 19 39q0 27 -38 27h-18h-87l-87 -1v76q0 137 -4 325q-4 187 -4 304q0 10 8 10h117q17 0 24 7.5t7 26.5q0 30 -34 30q-42 0 -111 -4h-2h-2q-4 0 -4 4v256v174q-1 77 -1 174q0 15 4.5 19.5t19.5 4.5l33 -2l33 -2q25 0 34 1
q14 1 27 11.5t13 26.5q0 28 -21 35q-10 3 -19.5 3.5t-22.5 0.5h-127q-17 0 -27 -16t-10 -41q4 -128 4 -228l2 -845l-2 -299v-4q0 -21 1 -38v-38q0 -28 20 -36.5z" />
    <glyph glyph-name="Eacute" unicode="&#xc9;" horiz-adv-x="620" 
d="M211.5 1848q10.5 -8 26.5 -8q151 129 256 176l6 31q0 32 -45 32q-7 -7 -76 -60q-77 -59 -122 -96q-56 -45 -56 -53q0 -14 10.5 -22zM212 -3.5q20 -8.5 68 -8.5h87q79 0 100 8q19 7 19 39q0 27 -38 27h-18h-87l-87 -1v76q0 137 -4 325q-4 187 -4 304q0 10 8 10h117
q17 0 24 7.5t7 26.5q0 30 -34 30q-42 0 -111 -4h-2h-2q-4 0 -4 4v256v174q-1 77 -1 174q0 15 4.5 19.5t19.5 4.5l33 -2l33 -2q25 0 34 1q14 1 27 11.5t13 26.5q0 28 -21 35q-10 3 -19.5 3.5t-22.5 0.5h-127q-17 0 -27 -16t-10 -41q4 -128 4 -228l2 -845l-2 -299v-4
q0 -21 1 -38v-38q0 -28 20 -36.5z" />
    <glyph glyph-name="Ebreve" unicode="&#x114;" horiz-adv-x="620" 
d="M232 1802q16 -33 46.5 -51.5t71.5 -18.5q26 0 44 7q21 7 32.5 14t22.5 24q11 16 17.5 29t15.5 34q6 15 10 23l6 12l-5 15l6 15q5 13 5 17q0 12 -9.5 20.5t-21.5 8.5q-37 0 -37 -39q0 -8 1 -14q1 -7 1 -15q0 -20 -10 -44.5t-26.5 -42t-33.5 -17.5h-51l-22 16
q-22 16 -33 50.5t-19 81.5q-6 30 -20 32l-22 -18q0 -76 31 -139zM212 -3.5q20 -8.5 68 -8.5h87q79 0 100 8q19 7 19 39q0 27 -38 27h-18h-87l-87 -1v76q0 137 -4 325q-4 187 -4 304q0 10 8 10h117q17 0 24 7.5t7 26.5q0 30 -34 30q-42 0 -111 -4h-2h-2q-4 0 -4 4v256v174
q-1 77 -1 174q0 15 4.5 19.5t19.5 4.5l33 -2l33 -2q25 0 34 1q14 1 27 11.5t13 26.5q0 28 -21 35q-10 3 -19.5 3.5t-22.5 0.5h-127q-17 0 -27 -16t-10 -41q4 -128 4 -228l2 -845l-2 -299v-4q0 -21 1 -38v-38q0 -28 20 -36.5z" />
    <glyph glyph-name="Ecaron" unicode="&#x11a;" horiz-adv-x="620" 
d="M333 1741q-9 24 -31.5 88t-36.5 108q-16 49 -18 70l-35 47l-37 -27q1 -30 36.5 -116t76 -158t59.5 -72q29 0 29 43q0 38 9 76t28 90q15 45 24 74l-2 12l15 31l-2 10q8 18 8 23q0 18 -37 24l-27 -16q-11 -129 -59 -307zM212 -3.5q20 -8.5 68 -8.5h87q79 0 100 8
q19 7 19 39q0 27 -38 27h-18h-87l-87 -1v76q0 137 -4 325q-4 187 -4 304q0 10 8 10h117q17 0 24 7.5t7 26.5q0 30 -34 30q-42 0 -111 -4h-2h-2q-4 0 -4 4v256v174q-1 77 -1 174q0 15 4.5 19.5t19.5 4.5l33 -2l33 -2q25 0 34 1q14 1 27 11.5t13 26.5q0 28 -21 35
q-10 3 -19.5 3.5t-22.5 0.5h-127q-17 0 -27 -16t-10 -41q4 -128 4 -228l2 -845l-2 -299v-4q0 -21 1 -38v-38q0 -28 20 -36.5z" />
    <glyph glyph-name="uni0228" unicode="&#x228;" horiz-adv-x="620" 
d="M510 -305q0 -32 -22 -70.5t-58 -65t-75 -26.5q-32 0 -60 15t-28 40q0 21 22 21q13 0 33 -10q22 -11 33 -11q35 0 57.5 43t22.5 100q0 67 -31 91q-9 0 -27 -3q-17 -4 -28 -4q-30 0 -56 41q17 40 17 117v15h-30q-48 0 -68 8.5t-20 36.5v38q-1 17 -1 38v4l2 299l-2 845
q0 100 -4 228q0 25 10 41t27 16h127q13 0 22.5 -0.5t19.5 -3.5q21 -7 21 -35q0 -16 -13 -26.5t-27 -11.5q-9 -1 -34 -1l-33 2l-33 2q-15 0 -19.5 -4.5t-4.5 -19.5q0 -97 1 -174v-174v-256q0 -4 4 -4h2h2q69 4 111 4q34 0 34 -30q0 -19 -7 -26.5t-24 -7.5h-117q-8 0 -8 -10
q0 -117 4 -304q4 -188 4 -325v-76l87 1h87h18q38 0 38 -27q0 -32 -19 -39q-21 -8 -100 -8q-6 -41 -6 -87q149 -11 149 -206z" />
    <glyph glyph-name="Ecircumflex" unicode="&#xca;" horiz-adv-x="620" 
d="M466 1706q0 4 -8 22l2 11l-15 30l2 13q-9 29 -24 74q-19 51 -28 89t-9 76q0 43 -29 43q-19 0 -59.5 -72t-76 -158t-36.5 -116l37 -26l35 47q2 21 18 70q14 44 36.5 108t31.5 88q48 -178 59 -307l27 -17q37 6 37 25zM212 -3.5q20 -8.5 68 -8.5h87q79 0 100 8q19 7 19 39
q0 27 -38 27h-18h-87l-87 -1v76q0 137 -4 325q-4 187 -4 304q0 10 8 10h117q17 0 24 7.5t7 26.5q0 30 -34 30q-42 0 -111 -4h-2h-2q-4 0 -4 4v256v174q-1 77 -1 174q0 15 4.5 19.5t19.5 4.5l33 -2l33 -2q25 0 34 1q14 1 27 11.5t13 26.5q0 28 -21 35q-10 3 -19.5 3.5
t-22.5 0.5h-127q-17 0 -27 -16t-10 -41q4 -128 4 -228l2 -845l-2 -299v-4q0 -21 1 -38v-38q0 -28 20 -36.5z" />
    <glyph glyph-name="uni0204" unicode="&#x204;" horiz-adv-x="620" 
d="M389.5 1971q-79.5 68 -164 131.5t-95.5 63.5q-4 0 -13 -11t-9 -20q0 -13 13 -20q147 -118 186 -145q23 -10 71 -46q51 -38 85 -45l9 11q-3 13 -82.5 81zM-22 2091q-105 60 -115 60q-11 0 -25 -17t-17 -33l107 -60q33 -14 110 -55q3 -1 27 -16l23 -15q35 -24 74 -48
q34 -22 42 -22q11 0 11 15t-97 90q-106 80 -140 101zM212 -3.5q20 -8.5 68 -8.5h87q79 0 100 8q19 7 19 39q0 27 -38 27h-18h-87l-87 -1v76q0 137 -4 325q-4 187 -4 304q0 10 8 10h117q17 0 24 7.5t7 26.5q0 30 -34 30q-42 0 -111 -4h-2h-2q-4 0 -4 4v256v174q-1 77 -1 174
q0 15 4.5 19.5t19.5 4.5l33 -2l33 -2q25 0 34 1q14 1 27 11.5t13 26.5q0 28 -21 35q-10 3 -19.5 3.5t-22.5 0.5h-127q-17 0 -27 -16t-10 -41q4 -128 4 -228l2 -845l-2 -299v-4q0 -21 1 -38v-38q0 -28 20 -36.5z" />
    <glyph glyph-name="Edieresis" unicode="&#xcb;" horiz-adv-x="620" 
d="M526 1834.5q13 -14.5 28 -14.5q54 0 54 47q0 16 -14 32.5t-31 16.5q-19 0 -34.5 -16t-15.5 -35q0 -16 13 -30.5zM64.5 1828q11.5 -16 27.5 -16q20 0 35.5 9.5t15.5 25.5q0 28 -10.5 47.5t-30.5 19.5q-18 0 -33.5 -16.5t-15.5 -34.5q0 -19 11.5 -35zM212 -3.5
q20 -8.5 68 -8.5h87q79 0 100 8q19 7 19 39q0 27 -38 27h-18h-87l-87 -1v76q0 137 -4 325q-4 187 -4 304q0 10 8 10h117q17 0 24 7.5t7 26.5q0 30 -34 30q-42 0 -111 -4h-2h-2q-4 0 -4 4v256v174q-1 77 -1 174q0 15 4.5 19.5t19.5 4.5l33 -2l33 -2q25 0 34 1q14 1 27 11.5
t13 26.5q0 28 -21 35q-10 3 -19.5 3.5t-22.5 0.5h-127q-17 0 -27 -16t-10 -41q4 -128 4 -228l2 -845l-2 -299v-4q0 -21 1 -38v-38q0 -28 20 -36.5z" />
    <glyph glyph-name="Edotaccent" unicode="&#x116;" horiz-adv-x="620" 
d="M280.5 1899.5q13.5 -15.5 31.5 -15.5q57 0 57 51q0 18 -15.5 35.5t-33.5 17.5q-20 0 -36.5 -17.5t-16.5 -37.5q0 -18 13.5 -33.5zM212 -3.5q20 -8.5 68 -8.5h87q79 0 100 8q19 7 19 39q0 27 -38 27h-18h-87l-87 -1v76q0 137 -4 325q-4 187 -4 304q0 10 8 10h117
q17 0 24 7.5t7 26.5q0 30 -34 30q-42 0 -111 -4h-2h-2q-4 0 -4 4v256v174q-1 77 -1 174q0 15 4.5 19.5t19.5 4.5l33 -2l33 -2q25 0 34 1q14 1 27 11.5t13 26.5q0 28 -21 35q-10 3 -19.5 3.5t-22.5 0.5h-127q-17 0 -27 -16t-10 -41q4 -128 4 -228l2 -845l-2 -299v-4
q0 -21 1 -38v-38q0 -28 20 -36.5z" />
    <glyph glyph-name="Egrave" unicode="&#xc8;" horiz-adv-x="620" 
d="M234.5 1911.5q97.5 -34.5 101.5 -34.5q7 0 15.5 5.5t8.5 11.5q0 17 -39 39q-34 19 -84 39q-54 21 -81 30q-10 3 -16.5 5t-8.5 3q-18 23 -79 23h-13q-13 -9 -13 -45q0 -41 70 -41q16 0 33 4q8 -5 105.5 -39.5zM212 -3.5q20 -8.5 68 -8.5h87q79 0 100 8q19 7 19 39
q0 27 -38 27h-18h-87l-87 -1v76q0 137 -4 325q-4 187 -4 304q0 10 8 10h117q17 0 24 7.5t7 26.5q0 30 -34 30q-42 0 -111 -4h-2h-2q-4 0 -4 4v256v174q-1 77 -1 174q0 15 4.5 19.5t19.5 4.5l33 -2l33 -2q25 0 34 1q14 1 27 11.5t13 26.5q0 28 -21 35q-10 3 -19.5 3.5
t-22.5 0.5h-127q-17 0 -27 -16t-10 -41q4 -128 4 -228l2 -845l-2 -299v-4q0 -21 1 -38v-38q0 -28 20 -36.5z" />
    <glyph glyph-name="uni0206" unicode="&#x206;" horiz-adv-x="620" 
d="M233 1853q8 47 19 81.5t33 50.5l22 16h51q17 0 33.5 -17.5t26.5 -42t10 -44.5q0 -8 -1 -14q-1 -7 -1 -15q0 -39 37 -39q12 0 21.5 8.5t9.5 20.5q0 4 -5 17l-6 15l5 15q-2 4 -6 12.5t-10 23.5t-10 23l-6 12q-22 42 -41 52q-36 20 -75 20q-41 0 -71.5 -18.5t-46.5 -51.5
q-31 -63 -31 -139l22 -18q14 2 20 32zM212 -3.5q20 -8.5 68 -8.5h87q79 0 100 8q19 7 19 39q0 27 -38 27h-18h-87l-87 -1v76q0 137 -4 325q-4 187 -4 304q0 10 8 10h117q17 0 24 7.5t7 26.5q0 30 -34 30q-42 0 -111 -4h-2h-2q-4 0 -4 4v256v174q-1 77 -1 174q0 15 4.5 19.5
t19.5 4.5l33 -2l33 -2q25 0 34 1q14 1 27 11.5t13 26.5q0 28 -21 35q-10 3 -19.5 3.5t-22.5 0.5h-127q-17 0 -27 -16t-10 -41q4 -128 4 -228l2 -845l-2 -299v-4q0 -21 1 -38v-38q0 -28 20 -36.5z" />
    <glyph glyph-name="Emacron" unicode="&#x112;" horiz-adv-x="620" 
d="M554 1870q-10 7 -34 10q-23 3 -46 3.5t-58 0.5h-116q-129 0 -131 -17q0 -7 5 -14q6 -8 39 -15q19 -4 65 -4h40h115q129 0 131 17q0 12 -10 19zM212 -3.5q20 -8.5 68 -8.5h87q79 0 100 8q19 7 19 39q0 27 -38 27h-18h-87l-87 -1v76q0 137 -4 325q-4 187 -4 304q0 10 8 10
h117q17 0 24 7.5t7 26.5q0 30 -34 30q-42 0 -111 -4h-2h-2q-4 0 -4 4v256v174q-1 77 -1 174q0 15 4.5 19.5t19.5 4.5l33 -2l33 -2q25 0 34 1q14 1 27 11.5t13 26.5q0 28 -21 35q-10 3 -19.5 3.5t-22.5 0.5h-127q-17 0 -27 -16t-10 -41q4 -128 4 -228l2 -845l-2 -299v-4
q0 -21 1 -38v-38q0 -28 20 -36.5z" />
    <glyph glyph-name="Eogonek" unicode="&#x118;" horiz-adv-x="620" 
d="M486 35q0 -32 -19 -39q-14 -5 -62 -7v-1q-24 -32 -42.5 -61.5t-33.5 -67.5q-18 -44 -18 -79q0 -22 -4 -47l-1 -20q-1 -10 -1 -23q0 -27 22.5 -55.5t46.5 -28.5q11 0 33 11q20 10 33 10q22 0 22 -21q0 -25 -28 -40t-60 -15q-39 0 -75 26.5t-58 65t-22 70.5q0 47 14 96.5
t36 88.5q34 58 60 90h-49q-48 0 -68 8.5t-20 36.5v38q-1 17 -1 38v4l2 299l-2 845q0 100 -4 228q0 25 10 41t27 16h127q13 0 22.5 -0.5t19.5 -3.5q21 -7 21 -35q0 -16 -13 -26.5t-27 -11.5q-9 -1 -34 -1l-33 2l-33 2q-15 0 -19.5 -4.5t-4.5 -19.5q0 -97 1 -174v-174v-256
q0 -4 4 -4h2h2q69 4 111 4q34 0 34 -30q0 -19 -7 -26.5t-24 -7.5h-117q-8 0 -8 -10q0 -117 4 -304q4 -188 4 -325v-76l87 1h87h18q38 0 38 -27z" />
    <glyph glyph-name="uni1EBC" unicode="&#x1ebc;" horiz-adv-x="620" 
d="M106 1762.5q13 -11.5 26 -11.5l22 31q-10 33 -10 43q0 23 23 39t53 16l14 -6q33 -39 52 -58q22 -23 59 -43t71 -20q28 0 53 15t40.5 40t15.5 53q0 29 -12 49.5t-35 20.5q-15 0 -21 -12q2 -8 7 -18q5 -15 5 -21q0 -73 -53 -73q-30 0 -66 24.5t-51 54.5q-36 42 -87 42
q-50 0 -84.5 -39t-34.5 -103q0 -12 13 -23.5zM212 -3.5q20 -8.5 68 -8.5h87q79 0 100 8q19 7 19 39q0 27 -38 27h-18h-87l-87 -1v76q0 137 -4 325q-4 187 -4 304q0 10 8 10h117q17 0 24 7.5t7 26.5q0 30 -34 30q-42 0 -111 -4h-2h-2q-4 0 -4 4v256v174q-1 77 -1 174
q0 15 4.5 19.5t19.5 4.5l33 -2l33 -2q25 0 34 1q14 1 27 11.5t13 26.5q0 28 -21 35q-10 3 -19.5 3.5t-22.5 0.5h-127q-17 0 -27 -16t-10 -41q4 -128 4 -228l2 -845l-2 -299v-4q0 -21 1 -38v-38q0 -28 20 -36.5z" />
    <glyph glyph-name="F" unicode="F" horiz-adv-x="580" 
d="M296 34q0 12 -6 27l6 11q0 121 -19 345q-20 235 -20 345q0 20 43 24q7 1 45.5 4t60 12.5t21.5 24.5q0 14 -10 27.5t-22 13.5q-22 0 -69 -12q-46 -12 -69 -12q0 24 -15 301q-15 276 -15 298q0 27 4.5 33.5t20.5 6.5l53 -1l47 -1q38 0 38 20q0 19 -9 33t-25 14q-33 0 -56 1
h-46q-54 0 -71 -4q-20 -5 -20 -20v-13l8 -157q8 -162 14.5 -328.5t6.5 -207.5q0 -160 20 -493l6 -125v-152q0 -53 33 -53q45 0 45 38z" />
    <glyph glyph-name="uni1E1E" unicode="&#x1e1e;" horiz-adv-x="580" 
d="M260.5 1899.5q13.5 -15.5 31.5 -15.5q57 0 57 51q0 18 -15.5 35.5t-33.5 17.5q-20 0 -36.5 -17.5t-16.5 -37.5q0 -18 13.5 -33.5zM296 34q0 12 -6 27l6 11q0 121 -19 345q-20 235 -20 345q0 20 43 24q7 1 45.5 4t60 12.5t21.5 24.5q0 14 -10 27.5t-22 13.5q-22 0 -69 -12
q-46 -12 -69 -12q0 24 -15 301q-15 276 -15 298q0 27 4.5 33.5t20.5 6.5l53 -1l47 -1q38 0 38 20q0 19 -9 33t-25 14q-33 0 -56 1h-46q-54 0 -71 -4q-20 -5 -20 -20v-13l8 -157q8 -162 14.5 -328.5t6.5 -207.5q0 -160 20 -493l6 -125v-152q0 -53 33 -53q45 0 45 38z" />
    <glyph glyph-name="G" unicode="G" horiz-adv-x="920" 
d="M244 188q74 -221 229 -221q87 0 206 68l-1 -5l-1 -5q0 -45 49 -45q27 0 27 32q0 58 -20 183q-21 122 -21 182q0 38 -16 62t-48 24q-40 0 -96.5 -14t-56.5 -31q0 -35 47 -35q18 0 42 4t40 4t28 -34q12 -39 16 -85q9 -86 9 -145q-66 -102 -174 -102q-64 0 -111 46
q-47 44 -75.5 112.5t-46.5 169.5q-17 91 -23.5 176t-6.5 186q0 90 1 112l2 135q2 104 11 181q13 118 32 182q12 42 30 80t38 61q22 26 52 41t64 15q7 0 29 -5q19 -6 29 -6q30 0 30 25q0 35 -61 35q-49 0 -94 -17q-44 -17 -75 -44.5t-56 -69.5q-26 -45 -42 -86.5t-27 -95.5
q-12 -58 -18 -102.5t-9 -101.5q-5 -77 -5 -177q0 -470 73 -689z" />
    <glyph glyph-name="uni01F4" unicode="&#x1f4;" horiz-adv-x="920" 
d="M382.5 1848q10.5 -8 26.5 -8q151 129 256 176l6 31q0 32 -45 32q-7 -7 -76 -60q-77 -59 -122 -96q-56 -45 -56 -53q0 -14 10.5 -22zM244 188q74 -221 229 -221q87 0 206 68l-1 -5l-1 -5q0 -45 49 -45q27 0 27 32q0 58 -20 183q-21 122 -21 182q0 38 -16 62t-48 24
q-40 0 -96.5 -14t-56.5 -31q0 -35 47 -35q18 0 42 4t40 4t28 -34q12 -39 16 -85q9 -86 9 -145q-66 -102 -174 -102q-64 0 -111 46q-47 44 -75.5 112.5t-46.5 169.5q-17 91 -23.5 176t-6.5 186q0 90 1 112l2 135q2 104 11 181q13 118 32 182q12 42 30 80t38 61q22 26 52 41
t64 15q7 0 29 -5q19 -6 29 -6q30 0 30 25q0 35 -61 35q-49 0 -94 -17q-44 -17 -75 -44.5t-56 -69.5q-26 -45 -42 -86.5t-27 -95.5q-12 -58 -18 -102.5t-9 -101.5q-5 -77 -5 -177q0 -470 73 -689z" />
    <glyph glyph-name="Gbreve" unicode="&#x11e;" horiz-adv-x="920" 
d="M403 1802q16 -33 46.5 -51.5t71.5 -18.5q26 0 44 7q21 7 32.5 14t22.5 24q11 16 17.5 29t15.5 34q6 15 10 23l6 12l-5 15l6 15q5 13 5 17q0 12 -9.5 20.5t-21.5 8.5q-37 0 -37 -39q0 -8 1 -14q1 -7 1 -15q0 -20 -10 -44.5t-26.5 -42t-33.5 -17.5h-51l-22 16
q-22 16 -33 50.5t-19 81.5q-6 30 -20 32l-22 -18q0 -76 31 -139zM244 188q74 -221 229 -221q87 0 206 68l-1 -5l-1 -5q0 -45 49 -45q27 0 27 32q0 58 -20 183q-21 122 -21 182q0 38 -16 62t-48 24q-40 0 -96.5 -14t-56.5 -31q0 -35 47 -35q18 0 42 4t40 4t28 -34
q12 -39 16 -85q9 -86 9 -145q-66 -102 -174 -102q-64 0 -111 46q-47 44 -75.5 112.5t-46.5 169.5q-17 91 -23.5 176t-6.5 186q0 90 1 112l2 135q2 104 11 181q13 118 32 182q12 42 30 80t38 61q22 26 52 41t64 15q7 0 29 -5q19 -6 29 -6q30 0 30 25q0 35 -61 35
q-49 0 -94 -17q-44 -17 -75 -44.5t-56 -69.5q-26 -45 -42 -86.5t-27 -95.5q-12 -58 -18 -102.5t-9 -101.5q-5 -77 -5 -177q0 -470 73 -689z" />
    <glyph glyph-name="Gcaron" unicode="&#x1e6;" horiz-adv-x="920" 
d="M504 1741q-9 24 -31.5 88t-36.5 108q-16 49 -18 70l-35 47l-37 -27q1 -30 36.5 -116t76 -158t59.5 -72q29 0 29 43q0 38 9 76t28 90q15 45 24 74l-2 12l15 31l-2 10q8 18 8 23q0 18 -37 24l-27 -16q-11 -129 -59 -307zM244 188q74 -221 229 -221q87 0 206 68l-1 -5l-1 -5
q0 -45 49 -45q27 0 27 32q0 58 -20 183q-21 122 -21 182q0 38 -16 62t-48 24q-40 0 -96.5 -14t-56.5 -31q0 -35 47 -35q18 0 42 4t40 4t28 -34q12 -39 16 -85q9 -86 9 -145q-66 -102 -174 -102q-64 0 -111 46q-47 44 -75.5 112.5t-46.5 169.5q-17 91 -23.5 176t-6.5 186
q0 90 1 112l2 135q2 104 11 181q13 118 32 182q12 42 30 80t38 61q22 26 52 41t64 15q7 0 29 -5q19 -6 29 -6q30 0 30 25q0 35 -61 35q-49 0 -94 -17q-44 -17 -75 -44.5t-56 -69.5q-26 -45 -42 -86.5t-27 -95.5q-12 -58 -18 -102.5t-9 -101.5q-5 -77 -5 -177q0 -470 73 -689
z" />
    <glyph glyph-name="Gcircumflex" unicode="&#x11c;" horiz-adv-x="920" 
d="M637 1706q0 4 -8 22l2 11l-15 30l2 13q-9 29 -24 74q-19 51 -28 89t-9 76q0 43 -29 43q-19 0 -59.5 -72t-76 -158t-36.5 -116l37 -26l35 47q2 21 18 70q14 44 36.5 108t31.5 88q48 -178 59 -307l27 -17q37 6 37 25zM244 188q74 -221 229 -221q87 0 206 68l-1 -5l-1 -5
q0 -45 49 -45q27 0 27 32q0 58 -20 183q-21 122 -21 182q0 38 -16 62t-48 24q-40 0 -96.5 -14t-56.5 -31q0 -35 47 -35q18 0 42 4t40 4t28 -34q12 -39 16 -85q9 -86 9 -145q-66 -102 -174 -102q-64 0 -111 46q-47 44 -75.5 112.5t-46.5 169.5q-17 91 -23.5 176t-6.5 186
q0 90 1 112l2 135q2 104 11 181q13 118 32 182q12 42 30 80t38 61q22 26 52 41t64 15q7 0 29 -5q19 -6 29 -6q30 0 30 25q0 35 -61 35q-49 0 -94 -17q-44 -17 -75 -44.5t-56 -69.5q-26 -45 -42 -86.5t-27 -95.5q-12 -58 -18 -102.5t-9 -101.5q-5 -77 -5 -177q0 -470 73 -689
z" />
    <glyph glyph-name="Gcommaaccent" unicode="&#x122;" horiz-adv-x="920" 
d="M244 188q74 -221 229 -221q87 0 206 68l-1 -5l-1 -5q0 -45 49 -45q27 0 27 32q0 58 -20 183q-21 122 -21 182q0 38 -16 62t-48 24q-40 0 -96.5 -14t-56.5 -31q0 -35 47 -35q18 0 42 4t40 4t28 -34q12 -39 16 -85q9 -86 9 -145q-66 -102 -174 -102q-64 0 -111 46
q-47 44 -75.5 112.5t-46.5 169.5q-17 91 -23.5 176t-6.5 186q0 90 1 112l2 135q2 104 11 181q13 118 32 182q12 42 30 80t38 61q22 26 52 41t64 15q7 0 29 -5q19 -6 29 -6q30 0 30 25q0 35 -61 35q-49 0 -94 -17q-44 -17 -75 -44.5t-56 -69.5q-26 -45 -42 -86.5t-27 -95.5
q-12 -58 -18 -102.5t-9 -101.5q-5 -77 -5 -177q0 -470 73 -689zM484 -391q38 46 64 104.5t26 93.5q0 18 -4 25l4 6q-22 60 -68 60q-30 0 -54 -18.5t-24 -45.5q0 -25 17 -49.5t43 -40.5q0 -19 -6 -35q-8 -23 -44 -62q-13 -13 -30 -29t-27 -24l-4 -18l33 -16q34 1 74 49z" />
    <glyph glyph-name="Gdotaccent" unicode="&#x120;" horiz-adv-x="920" 
d="M451.5 1899.5q13.5 -15.5 31.5 -15.5q57 0 57 51q0 18 -15.5 35.5t-33.5 17.5q-20 0 -36.5 -17.5t-16.5 -37.5q0 -18 13.5 -33.5zM244 188q74 -221 229 -221q87 0 206 68l-1 -5l-1 -5q0 -45 49 -45q27 0 27 32q0 58 -20 183q-21 122 -21 182q0 38 -16 62t-48 24
q-40 0 -96.5 -14t-56.5 -31q0 -35 47 -35q18 0 42 4t40 4t28 -34q12 -39 16 -85q9 -86 9 -145q-66 -102 -174 -102q-64 0 -111 46q-47 44 -75.5 112.5t-46.5 169.5q-17 91 -23.5 176t-6.5 186q0 90 1 112l2 135q2 104 11 181q13 118 32 182q12 42 30 80t38 61q22 26 52 41
t64 15q7 0 29 -5q19 -6 29 -6q30 0 30 25q0 35 -61 35q-49 0 -94 -17q-44 -17 -75 -44.5t-56 -69.5q-26 -45 -42 -86.5t-27 -95.5q-12 -58 -18 -102.5t-9 -101.5q-5 -77 -5 -177q0 -470 73 -689z" />
    <glyph glyph-name="H" unicode="H" horiz-adv-x="740" 
d="M544.5 -8q7.5 12 7.5 28v29q0 73 -15 589q-15 515 -15 880q0 12 -10 19.5t-25 7.5q-27 0 -27 -25q0 -127 10 -348q9 -232 9 -347l-2 -4q-35 0 -117 -8q-83 -8 -118 -8q-11 0 -11 53v100q0 61 -8 208q-9 138 -9 208v152q1 12 -6 19.5t-19 7.5q-26 0 -26 -21
q0 -441 37 -934q5 -67 14 -299.5t9 -278.5q0 -28 32 -28q21 0 21 31q0 112 -17 370q-18 251 -18 370q27 7 145 7q21 0 39 1h39h13q20 -398 20 -712q0 -13 -1 -23q-1 -11 -1 -24q0 -17 6 -24.5t23 -7.5q13 0 20.5 12z" />
    <glyph glyph-name="Hbar" unicode="&#x126;" horiz-adv-x="760" 
d="M504 12q0 13 1 24q1 10 1 23q0 305 -20 703l-6 -1q-3 -1 -7 -1q-11 0 -39 5t-39 5q-102 0 -145 -25q0 -118 18 -354q17 -243 17 -354q0 -31 -21 -31q-15 0 -21.5 4.5t-10.5 16.5q-8 24 -13 144q-3 81 -5 253q-1 129 -5 174q-23 325 -32 608h-3q-16 0 -29.5 10t-13.5 25
q0 3 45 4q-4 113 -4 287l33 16l27 -22q-9 -76 -9 -152q0 -52 4 -127q33 2 171 3l77 1q-6 180 -6 269q0 11 4 28q38 0 49 -53q9 -46 9 -113v-131q11 -2 19.5 -13.5t8.5 -25.5h-27q3 -322 16 -688q13 -371 13 -475q9 -18 9 -29q0 -16 -12 -34.5t-25 -18.5q-29 0 -29 45z
M366 813q85 8 120 8l2 4q0 90 -11 387q11 0 -181 -3l-67 -2q11 -192 11 -249q0 -23 -1 -41t-1 -40q0 -38 8 -72q35 0 120 8z" />
    <glyph glyph-name="uni021E" unicode="&#x21e;" horiz-adv-x="740" 
d="M363 1741q-9 24 -31.5 88t-36.5 108q-16 49 -18 70l-35 47l-37 -27q1 -30 36.5 -116t76 -158t59.5 -72q29 0 29 43q0 38 9 76t28 90q15 45 24 74l-2 12l15 31l-2 10q8 18 8 23q0 18 -37 24l-27 -16q-11 -129 -59 -307zM544.5 -8q7.5 12 7.5 28v29q0 73 -15 589
q-15 515 -15 880q0 12 -10 19.5t-25 7.5q-27 0 -27 -25q0 -127 10 -348q9 -232 9 -347l-2 -4q-35 0 -117 -8q-83 -8 -118 -8q-11 0 -11 53v100q0 61 -8 208q-9 138 -9 208v152q1 12 -6 19.5t-19 7.5q-26 0 -26 -21q0 -441 37 -934q5 -67 14 -299.5t9 -278.5q0 -28 32 -28
q21 0 21 31q0 112 -17 370q-18 251 -18 370q27 7 145 7q21 0 39 1h39h13q20 -398 20 -712q0 -13 -1 -23q-1 -11 -1 -24q0 -17 6 -24.5t23 -7.5q13 0 20.5 12z" />
    <glyph glyph-name="Hcircumflex" unicode="&#x124;" horiz-adv-x="740" 
d="M496 1706q0 4 -8 22l2 11l-15 30l2 13q-9 29 -24 74q-19 51 -28 89t-9 76q0 43 -29 43q-19 0 -59.5 -72t-76 -158t-36.5 -116l37 -26l35 47q2 21 18 70q14 44 36.5 108t31.5 88q48 -178 59 -307l27 -17q37 6 37 25zM544.5 -8q7.5 12 7.5 28v29q0 73 -15 589
q-15 515 -15 880q0 12 -10 19.5t-25 7.5q-27 0 -27 -25q0 -127 10 -348q9 -232 9 -347l-2 -4q-35 0 -117 -8q-83 -8 -118 -8q-11 0 -11 53v100q0 61 -8 208q-9 138 -9 208v152q1 12 -6 19.5t-19 7.5q-26 0 -26 -21q0 -441 37 -934q5 -67 14 -299.5t9 -278.5q0 -28 32 -28
q21 0 21 31q0 112 -17 370q-18 251 -18 370q27 7 145 7q21 0 39 1h39h13q20 -398 20 -712q0 -13 -1 -23q-1 -11 -1 -24q0 -17 6 -24.5t23 -7.5q13 0 20.5 12z" />
    <glyph glyph-name="I" unicode="I" horiz-adv-x="660" 
d="M175 44q0 -13 10.5 -23.5t25.5 -10.5q76 0 124 -1q47 -1 112 -1q10 0 19 11t9 23q0 29 -46 29h-74q0 30 1 56t1 57q0 206 -25 646q-26 457 -26 644q0 5 3 8q2 2 9.5 3.5t14.5 1.5h22q12 0 23 -1t26 -1q11 0 18 10t7 23q0 14 -10.5 21.5t-26.5 7.5q-48 0 -78 1h-58
q-59 0 -76 -6q-17 -8 -17 -29q0 -29 22 -29h70q6 -19 6 -130q0 -78 -1 -136l-1 -104l7 -195l9 -256q14 -397 14 -593h-80q-34 0 -34 -26z" />
    <glyph glyph-name="IJ" unicode="&#x132;" horiz-adv-x="1280" 
d="M891 -199q52 35 86 78q35 43 54.5 84.5t29.5 100.5q10 56 12.5 104t2.5 137q0 50 -22 493q-23 462 -23 691h46q34 0 45 5.5t11 25.5q0 13 -9.5 22.5t-23.5 9.5q-68 0 -109 1l-78 1q-60 0 -77 -7q-18 -7 -18 -31q0 -12 8 -21.5t20 -9.5l61 2l62 2q0 -141 10 -370l1 -24
q10 -299 10 -294q2 -81 12 -277q10 -187 10 -303q0 -223 -90 -313q-7 -7 -25 -18q-23 -15 -35.5 -27t-13.5 -23q0 -39 43 -39zM175 44q0 -13 10.5 -23.5t25.5 -10.5q76 0 124 -1q47 -1 112 -1q10 0 19 11t9 23q0 29 -46 29h-74q0 30 1 56t1 57q0 206 -25 646
q-26 457 -26 644q0 5 3 8q2 2 9.5 3.5t14.5 1.5h22q12 0 23 -1t26 -1q11 0 18 10t7 23q0 14 -10.5 21.5t-26.5 7.5q-48 0 -78 1h-58q-59 0 -76 -6q-17 -8 -17 -29q0 -29 22 -29h70q6 -19 6 -130q0 -78 -1 -136l-1 -104l7 -195l9 -256q14 -397 14 -593h-80q-34 0 -34 -26z
" />
    <glyph glyph-name="Iacute" unicode="&#xcd;" horiz-adv-x="660" 
d="M181.5 1848q10.5 -8 26.5 -8q151 129 256 176l6 31q0 32 -45 32q-7 -7 -76 -60q-77 -59 -122 -96q-56 -45 -56 -53q0 -14 10.5 -22zM175 44q0 -13 10.5 -23.5t25.5 -10.5q76 0 124 -1q47 -1 112 -1q10 0 19 11t9 23q0 29 -46 29h-74q0 30 1 56t1 57q0 206 -25 646
q-26 457 -26 644q0 5 3 8q2 2 9.5 3.5t14.5 1.5h22q12 0 23 -1t26 -1q11 0 18 10t7 23q0 14 -10.5 21.5t-26.5 7.5q-48 0 -78 1h-58q-59 0 -76 -6q-17 -8 -17 -29q0 -29 22 -29h70q6 -19 6 -130q0 -78 -1 -136l-1 -104l7 -195l9 -256q14 -397 14 -593h-80q-34 0 -34 -26z
" />
    <glyph glyph-name="Ibreve" unicode="&#x12c;" horiz-adv-x="660" 
d="M202 1802q16 -33 46.5 -51.5t71.5 -18.5q26 0 44 7q21 7 32.5 14t22.5 24q11 16 17.5 29t15.5 34q6 15 10 23l6 12l-5 15l6 15q5 13 5 17q0 12 -9.5 20.5t-21.5 8.5q-37 0 -37 -39q0 -8 1 -14q1 -7 1 -15q0 -20 -10 -44.5t-26.5 -42t-33.5 -17.5h-51l-22 16
q-22 16 -33 50.5t-19 81.5q-6 30 -20 32l-22 -18q0 -76 31 -139zM175 44q0 -13 10.5 -23.5t25.5 -10.5q76 0 124 -1q47 -1 112 -1q10 0 19 11t9 23q0 29 -46 29h-74q0 30 1 56t1 57q0 206 -25 646q-26 457 -26 644q0 5 3 8q2 2 9.5 3.5t14.5 1.5h22q12 0 23 -1t26 -1
q11 0 18 10t7 23q0 14 -10.5 21.5t-26.5 7.5q-48 0 -78 1h-58q-59 0 -76 -6q-17 -8 -17 -29q0 -29 22 -29h70q6 -19 6 -130q0 -78 -1 -136l-1 -104l7 -195l9 -256q14 -397 14 -593h-80q-34 0 -34 -26z" />
    <glyph glyph-name="uni01CF" unicode="&#x1cf;" horiz-adv-x="660" 
d="M303 1741q-9 24 -31.5 88t-36.5 108q-16 49 -18 70l-35 47l-37 -27q1 -30 36.5 -116t76 -158t59.5 -72q29 0 29 43q0 38 9 76t28 90q15 45 24 74l-2 12l15 31l-2 10q8 18 8 23q0 18 -37 24l-27 -16q-11 -129 -59 -307zM175 44q0 -13 10.5 -23.5t25.5 -10.5q76 0 124 -1
q47 -1 112 -1q10 0 19 11t9 23q0 29 -46 29h-74q0 30 1 56t1 57q0 206 -25 646q-26 457 -26 644q0 5 3 8q2 2 9.5 3.5t14.5 1.5h22q12 0 23 -1t26 -1q11 0 18 10t7 23q0 14 -10.5 21.5t-26.5 7.5q-48 0 -78 1h-58q-59 0 -76 -6q-17 -8 -17 -29q0 -29 22 -29h70q6 -19 6 -130
q0 -78 -1 -136l-1 -104l7 -195l9 -256q14 -397 14 -593h-80q-34 0 -34 -26z" />
    <glyph glyph-name="Icircumflex" unicode="&#xce;" horiz-adv-x="660" 
d="M436 1706q0 4 -8 22l2 11l-15 30l2 13q-9 29 -24 74q-19 51 -28 89t-9 76q0 43 -29 43q-19 0 -59.5 -72t-76 -158t-36.5 -116l37 -26l35 47q2 21 18 70q14 44 36.5 108t31.5 88q48 -178 59 -307l27 -17q37 6 37 25zM175 44q0 -13 10.5 -23.5t25.5 -10.5q76 0 124 -1
q47 -1 112 -1q10 0 19 11t9 23q0 29 -46 29h-74q0 30 1 56t1 57q0 206 -25 646q-26 457 -26 644q0 5 3 8q2 2 9.5 3.5t14.5 1.5h22q12 0 23 -1t26 -1q11 0 18 10t7 23q0 14 -10.5 21.5t-26.5 7.5q-48 0 -78 1h-58q-59 0 -76 -6q-17 -8 -17 -29q0 -29 22 -29h70q6 -19 6 -130
q0 -78 -1 -136l-1 -104l7 -195l9 -256q14 -397 14 -593h-80q-34 0 -34 -26z" />
    <glyph glyph-name="uni0208" unicode="&#x208;" horiz-adv-x="660" 
d="M359.5 1971q-79.5 68 -164 131.5t-95.5 63.5q-4 0 -13 -11t-9 -20q0 -13 13 -20q147 -118 186 -145q23 -10 71 -46q51 -38 85 -45l9 11q-3 13 -82.5 81zM-52 2091q-105 60 -115 60q-11 0 -25 -17t-17 -33l107 -60q33 -14 110 -55q3 -1 27 -16l23 -15q35 -24 74 -48
q34 -22 42 -22q11 0 11 15t-97 90q-106 80 -140 101zM175 44q0 -13 10.5 -23.5t25.5 -10.5q76 0 124 -1q47 -1 112 -1q10 0 19 11t9 23q0 29 -46 29h-74q0 30 1 56t1 57q0 206 -25 646q-26 457 -26 644q0 5 3 8q2 2 9.5 3.5t14.5 1.5h22q12 0 23 -1t26 -1q11 0 18 10t7 23
q0 14 -10.5 21.5t-26.5 7.5q-48 0 -78 1h-58q-59 0 -76 -6q-17 -8 -17 -29q0 -29 22 -29h70q6 -19 6 -130q0 -78 -1 -136l-1 -104l7 -195l9 -256q14 -397 14 -593h-80q-34 0 -34 -26z" />
    <glyph glyph-name="Idieresis" unicode="&#xcf;" horiz-adv-x="660" 
d="M496 1834.5q13 -14.5 28 -14.5q54 0 54 47q0 16 -14 32.5t-31 16.5q-19 0 -34.5 -16t-15.5 -35q0 -16 13 -30.5zM34.5 1828q11.5 -16 27.5 -16q20 0 35.5 9.5t15.5 25.5q0 28 -10.5 47.5t-30.5 19.5q-18 0 -33.5 -16.5t-15.5 -34.5q0 -19 11.5 -35zM175 44
q0 -13 10.5 -23.5t25.5 -10.5q76 0 124 -1q47 -1 112 -1q10 0 19 11t9 23q0 29 -46 29h-74q0 30 1 56t1 57q0 206 -25 646q-26 457 -26 644q0 5 3 8q2 2 9.5 3.5t14.5 1.5h22q12 0 23 -1t26 -1q11 0 18 10t7 23q0 14 -10.5 21.5t-26.5 7.5q-48 0 -78 1h-58q-59 0 -76 -6
q-17 -8 -17 -29q0 -29 22 -29h70q6 -19 6 -130q0 -78 -1 -136l-1 -104l7 -195l9 -256q14 -397 14 -593h-80q-34 0 -34 -26z" />
    <glyph glyph-name="Idotaccent" unicode="&#x130;" horiz-adv-x="660" 
d="M250.5 1899.5q13.5 -15.5 31.5 -15.5q57 0 57 51q0 18 -15.5 35.5t-33.5 17.5q-20 0 -36.5 -17.5t-16.5 -37.5q0 -18 13.5 -33.5zM175 44q0 -13 10.5 -23.5t25.5 -10.5q76 0 124 -1q47 -1 112 -1q10 0 19 11t9 23q0 29 -46 29h-74q0 30 1 56t1 57q0 206 -25 646
q-26 457 -26 644q0 5 3 8q2 2 9.5 3.5t14.5 1.5h22q12 0 23 -1t26 -1q11 0 18 10t7 23q0 14 -10.5 21.5t-26.5 7.5q-48 0 -78 1h-58q-59 0 -76 -6q-17 -8 -17 -29q0 -29 22 -29h70q6 -19 6 -130q0 -78 -1 -136l-1 -104l7 -195l9 -256q14 -397 14 -593h-80q-34 0 -34 -26z
" />
    <glyph glyph-name="Igrave" unicode="&#xcc;" horiz-adv-x="660" 
d="M204.5 1911.5q97.5 -34.5 101.5 -34.5q7 0 15.5 5.5t8.5 11.5q0 17 -39 39q-34 19 -84 39q-54 21 -81 30q-10 3 -16.5 5t-8.5 3q-18 23 -79 23h-13q-13 -9 -13 -45q0 -41 70 -41q16 0 33 4q8 -5 105.5 -39.5zM175 44q0 -13 10.5 -23.5t25.5 -10.5q76 0 124 -1
q47 -1 112 -1q10 0 19 11t9 23q0 29 -46 29h-74q0 30 1 56t1 57q0 206 -25 646q-26 457 -26 644q0 5 3 8q2 2 9.5 3.5t14.5 1.5h22q12 0 23 -1t26 -1q11 0 18 10t7 23q0 14 -10.5 21.5t-26.5 7.5q-48 0 -78 1h-58q-59 0 -76 -6q-17 -8 -17 -29q0 -29 22 -29h70q6 -19 6 -130
q0 -78 -1 -136l-1 -104l7 -195l9 -256q14 -397 14 -593h-80q-34 0 -34 -26z" />
    <glyph glyph-name="uni020A" unicode="&#x20a;" horiz-adv-x="660" 
d="M203 1853q8 47 19 81.5t33 50.5l22 16h51q17 0 33.5 -17.5t26.5 -42t10 -44.5q0 -8 -1 -14q-1 -7 -1 -15q0 -39 37 -39q12 0 21.5 8.5t9.5 20.5q0 4 -5 17l-6 15l5 15q-2 4 -6 12.5t-10 23.5t-10 23l-6 12q-22 42 -41 52q-36 20 -75 20q-41 0 -71.5 -18.5t-46.5 -51.5
q-31 -63 -31 -139l22 -18q14 2 20 32zM175 44q0 -13 10.5 -23.5t25.5 -10.5q76 0 124 -1q47 -1 112 -1q10 0 19 11t9 23q0 29 -46 29h-74q0 30 1 56t1 57q0 206 -25 646q-26 457 -26 644q0 5 3 8q2 2 9.5 3.5t14.5 1.5h22q12 0 23 -1t26 -1q11 0 18 10t7 23q0 14 -10.5 21.5
t-26.5 7.5q-48 0 -78 1h-58q-59 0 -76 -6q-17 -8 -17 -29q0 -29 22 -29h70q6 -19 6 -130q0 -78 -1 -136l-1 -104l7 -195l9 -256q14 -397 14 -593h-80q-34 0 -34 -26z" />
    <glyph glyph-name="Imacron" unicode="&#x12a;" horiz-adv-x="660" 
d="M524 1870q-10 7 -34 10q-23 3 -46 3.5t-58 0.5h-116q-129 0 -131 -17q0 -7 5 -14q6 -8 39 -15q19 -4 65 -4h40h115q129 0 131 17q0 12 -10 19zM175 44q0 -13 10.5 -23.5t25.5 -10.5q76 0 124 -1q47 -1 112 -1q10 0 19 11t9 23q0 29 -46 29h-74q0 30 1 56t1 57
q0 206 -25 646q-26 457 -26 644q0 5 3 8q2 2 9.5 3.5t14.5 1.5h22q12 0 23 -1t26 -1q11 0 18 10t7 23q0 14 -10.5 21.5t-26.5 7.5q-48 0 -78 1h-58q-59 0 -76 -6q-17 -8 -17 -29q0 -29 22 -29h70q6 -19 6 -130q0 -78 -1 -136l-1 -104l7 -195l9 -256q14 -397 14 -593h-80
q-34 0 -34 -26z" />
    <glyph glyph-name="Iogonek" unicode="&#x12e;" horiz-adv-x="660" 
d="M475 42q0 -12 -9 -23t-19 -11q-51 0 -87 1l-14 -21q-24 -32 -42.5 -61.5t-33.5 -67.5q-18 -44 -18 -79q0 -22 -4 -47l-1 -20q-1 -10 -1 -23q0 -27 22.5 -55.5t46.5 -28.5q11 0 33 11q20 10 33 10q22 0 22 -21q0 -25 -28 -40t-60 -15q-39 0 -75 26.5t-58 65t-22 70.5
q0 47 14 97t36 88q45 77 77 109l3 3h-79q-15 0 -25.5 10.5t-10.5 23.5q0 26 34 26h80q0 196 -14 593l-9 256l-7 195l1 104q1 58 1 136q0 111 -6 130h-70q-22 0 -22 29q0 21 17 29q17 6 76 6h58q30 -1 78 -1q16 0 26.5 -7.5t10.5 -21.5q0 -13 -7 -23t-18 -10q-15 0 -26 1
t-23 1h-22q-7 0 -14.5 -1.5t-9.5 -3.5q-3 -3 -3 -8q0 -187 26 -644q25 -440 25 -646q0 -31 -1 -57t-1 -56h74q46 0 46 -29z" />
    <glyph glyph-name="Itilde" unicode="&#x128;" horiz-adv-x="660" 
d="M76 1762.5q13 -11.5 26 -11.5l22 31q-10 33 -10 43q0 23 23 39t53 16l14 -6q33 -39 52 -58q22 -23 59 -43t71 -20q28 0 53 15t40.5 40t15.5 53q0 29 -12 49.5t-35 20.5q-15 0 -21 -12q2 -8 7 -18q5 -15 5 -21q0 -73 -53 -73q-30 0 -66 24.5t-51 54.5q-36 42 -87 42
q-50 0 -84.5 -39t-34.5 -103q0 -12 13 -23.5zM175 44q0 -13 10.5 -23.5t25.5 -10.5q76 0 124 -1q47 -1 112 -1q10 0 19 11t9 23q0 29 -46 29h-74q0 30 1 56t1 57q0 206 -25 646q-26 457 -26 644q0 5 3 8q2 2 9.5 3.5t14.5 1.5h22q12 0 23 -1t26 -1q11 0 18 10t7 23
q0 14 -10.5 21.5t-26.5 7.5q-48 0 -78 1h-58q-59 0 -76 -6q-17 -8 -17 -29q0 -29 22 -29h70q6 -19 6 -130q0 -78 -1 -136l-1 -104l7 -195l9 -256q14 -397 14 -593h-80q-34 0 -34 -26z" />
    <glyph glyph-name="J" unicode="J" horiz-adv-x="620" 
d="M231 -199q52 35 86 78q35 43 54.5 84.5t29.5 100.5q10 56 12.5 104t2.5 137q0 50 -22 493q-23 462 -23 691h46q34 0 45 5.5t11 25.5q0 13 -9.5 22.5t-23.5 9.5q-68 0 -109 1l-78 1q-60 0 -77 -7q-18 -7 -18 -31q0 -12 8 -21.5t20 -9.5l61 2l62 2q0 -141 10 -370l1 -24
q10 -299 10 -294q2 -81 12 -277q10 -187 10 -303q0 -223 -90 -313q-7 -7 -25 -18q-23 -15 -35.5 -27t-13.5 -23q0 -39 43 -39z" />
    <glyph glyph-name="Jcircumflex" unicode="&#x134;" horiz-adv-x="620" 
d="M486 1706q0 4 -8 22l2 11l-15 30l2 13q-9 29 -24 74q-19 51 -28 89t-9 76q0 43 -29 43q-19 0 -59.5 -72t-76 -158t-36.5 -116l37 -26l35 47q2 21 18 70q14 44 36.5 108t31.5 88q48 -178 59 -307l27 -17q37 6 37 25zM231 -199q52 35 86 78q35 43 54.5 84.5t29.5 100.5
q10 56 12.5 104t2.5 137q0 50 -22 493q-23 462 -23 691h46q34 0 45 5.5t11 25.5q0 13 -9.5 22.5t-23.5 9.5q-68 0 -109 1l-78 1q-60 0 -77 -7q-18 -7 -18 -31q0 -12 8 -21.5t20 -9.5l61 2l62 2q0 -141 10 -370l1 -24q10 -299 10 -294q2 -81 12 -277q10 -187 10 -303
q0 -223 -90 -313q-7 -7 -25 -18q-23 -15 -35.5 -27t-13.5 -23q0 -39 43 -39z" />
    <glyph glyph-name="K" unicode="K" horiz-adv-x="820" 
d="M505 403l122 -422q4 -13 24 -13q15 0 25.5 8t10.5 22q0 7 -3 14q-15 55 -51 182.5t-71 249.5q-33 115 -83.5 268.5t-91.5 256.5q-4 5 -4 13q0 3 2 11q6 10 76 180l12 30q73 179 103 245q5 10 20 36q28 45 33 83q0 14 -10 22t-25 8q-34 0 -145 -284q-13 -31 -77 -191
q-66 -163 -110 -258h-2l4 248q3 239 3 341q0 58 -7 72q-7 15 -37 15q-17 0 -22 -24q-5 -28 -5 -73q0 -152 -4 -393q-5 -302 -5 -393v-619q0 -37 6.5 -50.5t27.5 -13.5q20 0 26.5 13t6.5 47v729l29 48q8 12 15 24.5t15 24.5q4 10 11 20q12 20 17 28t6 11l14 -35
q28 -81 144 -481z" />
    <glyph glyph-name="uni01E8" unicode="&#x1e8;" horiz-adv-x="820" 
d="M423 1741q-9 24 -31.5 88t-36.5 108q-16 49 -18 70l-35 47l-37 -27q1 -30 36.5 -116t76 -158t59.5 -72q29 0 29 43q0 38 9 76t28 90q15 45 24 74l-2 12l15 31l-2 10q8 18 8 23q0 18 -37 24l-27 -16q-11 -129 -59 -307zM505 403l122 -422q4 -13 24 -13q15 0 25.5 8
t10.5 22q0 7 -3 14q-15 55 -51 182.5t-71 249.5q-33 115 -83.5 268.5t-91.5 256.5q-4 5 -4 13q0 3 2 11q6 10 76 180l12 30q73 179 103 245q5 10 20 36q28 45 33 83q0 14 -10 22t-25 8q-34 0 -145 -284q-13 -31 -77 -191q-66 -163 -110 -258h-2l4 248q3 239 3 341
q0 58 -7 72q-7 15 -37 15q-17 0 -22 -24q-5 -28 -5 -73q0 -152 -4 -393q-5 -302 -5 -393v-619q0 -37 6.5 -50.5t27.5 -13.5q20 0 26.5 13t6.5 47v729l29 48q8 12 15 24.5t15 24.5q4 10 11 20q12 20 17 28t6 11l14 -35q28 -81 144 -481z" />
    <glyph glyph-name="Kcommaaccent" unicode="&#x136;" horiz-adv-x="820" 
d="M505 403l122 -422q4 -13 24 -13q15 0 25.5 8t10.5 22q0 7 -3 14q-15 55 -51 182.5t-71 249.5q-33 115 -83.5 268.5t-91.5 256.5q-4 5 -4 13q0 3 2 11q6 10 76 180l12 30q73 179 103 245q5 10 20 36q28 45 33 83q0 14 -10 22t-25 8q-34 0 -145 -284q-13 -31 -77 -191
q-66 -163 -110 -258h-2l4 248q3 239 3 341q0 58 -7 72q-7 15 -37 15q-17 0 -22 -24q-5 -28 -5 -73q0 -152 -4 -393q-5 -302 -5 -393v-619q0 -37 6.5 -50.5t27.5 -13.5q20 0 26.5 13t6.5 47v729l29 48q8 12 15 24.5t15 24.5q4 10 11 20q12 20 17 28t6 11l14 -35
q28 -81 144 -481zM404 -391q38 46 64 104.5t26 93.5q0 18 -4 25l4 6q-22 60 -68 60q-30 0 -54 -18.5t-24 -45.5q0 -25 17 -49.5t43 -40.5q0 -19 -6 -35q-8 -23 -44 -62q-13 -13 -30 -29t-27 -24l-4 -18l33 -16q34 1 74 49z" />
    <glyph glyph-name="L" unicode="L" horiz-adv-x="580" 
d="M220.5 0.5q9.5 -12.5 24.5 -12.5q122 0 165 1q10 0 17 1l14 1q11 0 18 12t7 28q0 37 -28 37h-126q-25 0 -28 1q-6 2 -6 6q-1 62 -12 255q-11 203 -11 280l-10 367q-8 198 -8 568q0 29 -36 29q-12 0 -21 -6.5t-9 -17.5q0 -128 11 -428q10 -273 10 -428q0 -107 10 -291
t10 -290v-49l-1 -33q0 -18 9.5 -30.5z" />
    <glyph glyph-name="uni01C7" unicode="&#x1c7;" horiz-adv-x="1200" 
d="M220.5 0.5q9.5 -12.5 24.5 -12.5q122 0 165 1q10 0 17 1l14 1q11 0 18 12t7 28q0 37 -28 37h-126q-25 0 -28 1q-6 2 -6 6q-1 62 -12 255q-11 203 -11 280l-10 367q-8 198 -8 568q0 29 -36 29q-12 0 -21 -6.5t-9 -17.5q0 -128 11 -428q10 -273 10 -428q0 -107 10 -291
t10 -290v-49l-1 -33q0 -18 9.5 -30.5zM811 -199q52 35 86 78q35 43 54.5 84.5t29.5 100.5q10 56 12.5 104t2.5 137q0 50 -22 493q-23 462 -23 691h46q34 0 45 5.5t11 25.5q0 13 -9.5 22.5t-23.5 9.5q-68 0 -109 1l-78 1q-60 0 -77 -7q-18 -7 -18 -31q0 -12 8 -21.5t20 -9.5
l61 2l62 2q0 -141 10 -370l1 -24q10 -299 10 -294q2 -81 12 -277q10 -187 10 -303q0 -223 -90 -313q-7 -7 -25 -18q-23 -15 -35.5 -27t-13.5 -23q0 -39 43 -39z" />
    <glyph glyph-name="Lacute" unicode="&#x139;" horiz-adv-x="580" 
d="M211.5 1848q10.5 -8 26.5 -8q151 129 256 176l6 31q0 32 -45 32q-7 -7 -76 -60q-77 -59 -122 -96q-56 -45 -56 -53q0 -14 10.5 -22zM220.5 0.5q9.5 -12.5 24.5 -12.5q122 0 165 1q10 0 17 1l14 1q11 0 18 12t7 28q0 37 -28 37h-126q-25 0 -28 1q-6 2 -6 6q-1 62 -12 255
q-11 203 -11 280l-10 367q-8 198 -8 568q0 29 -36 29q-12 0 -21 -6.5t-9 -17.5q0 -128 11 -428q10 -273 10 -428q0 -107 10 -291t10 -290v-49l-1 -33q0 -18 9.5 -30.5z" />
    <glyph glyph-name="Lcaron" unicode="&#x13d;" horiz-adv-x="580" 
d="M220.5 0.5q9.5 -12.5 24.5 -12.5q122 0 165 1q10 0 17 1l14 1q11 0 18 12t7 28q0 37 -28 37h-126q-25 0 -28 1q-6 2 -6 6q-1 62 -12 255q-11 203 -11 280l-10 367q-8 198 -8 568q0 29 -36 29q-12 0 -21 -6.5t-9 -17.5q0 -128 11 -428q10 -273 10 -428q0 -107 10 -291
t10 -290v-49l-1 -33q0 -18 9.5 -30.5zM605 1258q0 -10 7 -16.5t19 -6.5q13 0 28 9q43 29 80.5 74.5t60.5 92.5t23 81q0 82 -90 82q-33 0 -55 -16t-22 -48q0 -40 13.5 -61.5t45.5 -28.5q0 -18 -6 -35q-11 -28 -45 -62q-24 -24 -56 -52q-3 -6 -3 -13z" />
    <glyph glyph-name="Lcommaaccent" unicode="&#x13b;" horiz-adv-x="580" 
d="M220.5 0.5q9.5 -12.5 24.5 -12.5q122 0 165 1q10 0 17 1l14 1q11 0 18 12t7 28q0 37 -28 37h-126q-25 0 -28 1q-6 2 -6 6q-1 62 -12 255q-11 203 -11 280l-10 367q-8 198 -8 568q0 29 -36 29q-12 0 -21 -6.5t-9 -17.5q0 -128 11 -428q10 -273 10 -428q0 -107 10 -291
t10 -290v-49l-1 -33q0 -18 9.5 -30.5zM324 -391q38 46 64 104.5t26 93.5q0 18 -4 25l4 6q-22 60 -68 60q-30 0 -54 -18.5t-24 -45.5q0 -25 17 -49.5t43 -40.5q0 -19 -6 -35q-8 -23 -44 -62q-13 -13 -30 -29t-27 -24l-4 -18l33 -16q34 1 74 49z" />
    <glyph glyph-name="Ldot" unicode="&#x13f;" horiz-adv-x="580" 
d="M220.5 0.5q9.5 -12.5 24.5 -12.5q122 0 165 1q10 0 17 1l14 1q11 0 18 12t7 28q0 37 -28 37h-126q-25 0 -28 1q-6 2 -6 6q-1 62 -12 255q-11 203 -11 280l-10 367q-8 198 -8 568q0 29 -36 29q-12 0 -21 -6.5t-9 -17.5q0 -128 11 -428q10 -273 10 -428q0 -107 10 -291
t10 -290v-49l-1 -33q0 -18 9.5 -30.5zM359.5 813.5q13.5 -15.5 31.5 -15.5q57 0 57 52q0 18 -15.5 35.5t-33.5 17.5q-20 0 -36.5 -17.5t-16.5 -38.5q0 -18 13.5 -33.5z" />
    <glyph glyph-name="uni01C8" unicode="&#x1c8;" horiz-adv-x="1200" 
d="M220.5 0.5q9.5 -12.5 24.5 -12.5q122 0 165 1q10 0 17 1l14 1q11 0 18 12t7 28q0 37 -28 37h-126q-25 0 -28 1q-6 2 -6 6q-1 62 -12 255q-11 203 -11 280l-10 367q-8 198 -8 568q0 29 -36 29q-12 0 -21 -6.5t-9 -17.5q0 -128 11 -428q10 -273 10 -428q0 -107 10 -291
t10 -290v-49l-1 -33q0 -18 9.5 -30.5zM683 -201l1 -4l47 -47h14q49 0 91.5 34t67.5 88q24 51 37 102.5t13 93.5q0 59 12 86v225q0 154 -10 424t-10 426q0 41 18 41q22 0 56 -10q36 -11 55 -11q13 0 23 7.5t10 19.5q0 17 -66.5 37t-151 34.5t-124.5 14.5q-10 0 -26.5 -8.5
t-16.5 -16.5q0 -16 30 -27q32 -12 70 -16q41 -6 49 -10l12 -22q0 -198 10 -544q9 -363 9 -544q0 -73 -17.5 -147t-48.5 -109q-6 -7 -47 -34l-46 -30l-28 -19q-34 -22 -34 -30z" />
    <glyph glyph-name="Lslash" unicode="&#x141;" horiz-adv-x="740" 
d="M466 31q0 -16 -7 -28t-18 -12l-14 -1q-7 -1 -17 -1q-43 -1 -165 -1q-15 0 -24.5 12.5t-9.5 30.5l1 33v49q0 106 -10 290t-10 291q0 59 -1 95q-31 -15 -125 -58q-11 -4 -20 -4q-11 0 -22 6t-11 15q0 23 177 111l-1 40l-7 223q-11 300 -11 428q0 11 9 17.5t21 6.5
q36 0 36 -29q0 -370 8 -568l2 -90q27 13 112 52l30 13q9 4 20 4q12 0 23.5 -6t11.5 -14q0 -24 -195 -119l6 -207q0 -77 11 -280q11 -193 12 -255q0 -4 6 -6q3 -1 28 -1h126q28 0 28 -37z" />
    <glyph glyph-name="M" unicode="M" horiz-adv-x="980" 
d="M750 -33.5q9 -13.5 36 -13.5q16 0 23 13t7 58q0 81 -5 206t-5 169q0 162 -16 462q-17 318 -17 464v203q0 17 -8 27.5t-20 10.5t-21.5 -11t-13.5 -32l-4 -28l-6 -33l-21 -115l-20 -106l-6 -33q-79 -428 -88 -469q-20 -113 -31 -180l-32 -183q-44 265 -60 341
q-37 170 -111 469.5t-92 357.5q-6 17 -21 17q-11 0 -20.5 -8.5t-9.5 -19.5v-179q0 -81 -3 -243t-3 -243q0 -116 -1 -208l-2 -207v-342q0 -107 58 -107q16 16 16 53q0 26 -5 98t-5 97q0 108 -3 325q-3 218 -3 326q0 217 8 414q7 -11 53 -234t94.5 -475t55.5 -306
q4 -30 16 -47t27 -17q16 0 29.5 16t17.5 42q14 81 37 187q24 118 71.5 374.5t71.5 410.5q1 11 4 14l5 -84q3 -63 3 -98l-2 -115l-2 -115q0 -98 8 -336q7 -209 7 -337v-187q0 -30 9 -43.5z" />
    <glyph glyph-name="uni1E40" unicode="&#x1e40;" horiz-adv-x="980" 
d="M440.5 1899.5q13.5 -15.5 31.5 -15.5q57 0 57 51q0 18 -15.5 35.5t-33.5 17.5q-20 0 -36.5 -17.5t-16.5 -37.5q0 -18 13.5 -33.5zM750 -33.5q9 -13.5 36 -13.5q16 0 23 13t7 58q0 81 -5 206t-5 169q0 162 -16 462q-17 318 -17 464v203q0 17 -8 27.5t-20 10.5t-21.5 -11
t-13.5 -32l-4 -28l-6 -33l-21 -115l-20 -106l-6 -33q-79 -428 -88 -469q-20 -113 -31 -180l-32 -183q-44 265 -60 341q-37 170 -111 469.5t-92 357.5q-6 17 -21 17q-11 0 -20.5 -8.5t-9.5 -19.5v-179q0 -81 -3 -243t-3 -243q0 -116 -1 -208l-2 -207v-342q0 -107 58 -107
q16 16 16 53q0 26 -5 98t-5 97q0 108 -3 325q-3 218 -3 326q0 217 8 414q7 -11 53 -234t94.5 -475t55.5 -306q4 -30 16 -47t27 -17q16 0 29.5 16t17.5 42q14 81 37 187q24 118 71.5 374.5t71.5 410.5q1 11 4 14l5 -84q3 -63 3 -98l-2 -115l-2 -115q0 -98 8 -336
q7 -209 7 -337v-187q0 -30 9 -43.5z" />
    <glyph glyph-name="N" unicode="N" horiz-adv-x="900" 
d="M328 1016q26 -109 252 -922l6 -30q6 -34 8 -40q4 -18 16 -32.5t27 -14.5q52 0 52 60q0 40 5 162t5 161q0 162 3 483l2 486v131l2 33q1 17 1 42q0 60 -16 60q-35 0 -42 -28l2 -289q0 -88 -1 -158l-2 -159q0 -145 -4 -356q-4 -212 -4 -357q0 -71 -13 -98q-44 133 -106 389
q-142 530 -148 557q-17 73 -48 217l-10 47q-29 132 -34 153q-4 14 -19 26.5t-28 12.5q-29 0 -42 -9t-13 -34q0 -12 1 -21q1 -10 1 -22l2 -193q1 -86 1 -194v-268q0 -119 3 -356l2 -357q0 -67 -4 -82l6 -16h47l14 16q0 77 -5 292t-5 292v741q0 59 2 85q73 -362 84 -410z" />
    <glyph glyph-name="uni01CA" unicode="&#x1ca;" horiz-adv-x="1520" 
d="M328 1016q26 -109 252 -922l6 -30q6 -34 8 -40q4 -18 16 -32.5t27 -14.5q52 0 52 60q0 40 5 162t5 161q0 162 3 483l2 486v131l2 33q1 17 1 42q0 60 -16 60q-35 0 -42 -28l2 -289q0 -88 -1 -158l-2 -159q0 -145 -4 -356q-4 -212 -4 -357q0 -71 -13 -98q-44 133 -106 389
q-142 530 -148 557q-17 73 -48 217l-10 47q-29 132 -34 153q-4 14 -19 26.5t-28 12.5q-29 0 -42 -9t-13 -34q0 -12 1 -21q1 -10 1 -22l2 -193q1 -86 1 -194v-268q0 -119 3 -356l2 -357q0 -67 -4 -82l6 -16h47l14 16q0 77 -5 292t-5 292v741q0 59 2 85q73 -362 84 -410z
M1131 -199q52 35 86 78q35 43 54.5 84.5t29.5 100.5q10 56 12.5 104t2.5 137q0 50 -22 493q-23 462 -23 691h46q34 0 45 5.5t11 25.5q0 13 -9.5 22.5t-23.5 9.5q-68 0 -109 1l-78 1q-60 0 -77 -7q-18 -7 -18 -31q0 -12 8 -21.5t20 -9.5l61 2l62 2q0 -141 10 -370l1 -24
q10 -299 10 -294q2 -81 12 -277q10 -187 10 -303q0 -223 -90 -313q-7 -7 -25 -18q-23 -15 -35.5 -27t-13.5 -23q0 -39 43 -39z" />
    <glyph glyph-name="Nacute" unicode="&#x143;" horiz-adv-x="900" 
d="M351.5 1848q10.5 -8 26.5 -8q151 129 256 176l6 31q0 32 -45 32q-7 -7 -76 -60q-77 -59 -122 -96q-56 -45 -56 -53q0 -14 10.5 -22zM328 1016q26 -109 252 -922l6 -30q6 -34 8 -40q4 -18 16 -32.5t27 -14.5q52 0 52 60q0 40 5 162t5 161q0 162 3 483l2 486v131l2 33
q1 17 1 42q0 60 -16 60q-35 0 -42 -28l2 -289q0 -88 -1 -158l-2 -159q0 -145 -4 -356q-4 -212 -4 -357q0 -71 -13 -98q-44 133 -106 389q-142 530 -148 557q-17 73 -48 217l-10 47q-29 132 -34 153q-4 14 -19 26.5t-28 12.5q-29 0 -42 -9t-13 -34q0 -12 1 -21q1 -10 1 -22
l2 -193q1 -86 1 -194v-268q0 -119 3 -356l2 -357q0 -67 -4 -82l6 -16h47l14 16q0 77 -5 292t-5 292v741q0 59 2 85q73 -362 84 -410z" />
    <glyph glyph-name="Ncaron" unicode="&#x147;" horiz-adv-x="900" 
d="M473 1741q-9 24 -31.5 88t-36.5 108q-16 49 -18 70l-35 47l-37 -27q1 -30 36.5 -116t76 -158t59.5 -72q29 0 29 43q0 38 9 76t28 90q15 45 24 74l-2 12l15 31l-2 10q8 18 8 23q0 18 -37 24l-27 -16q-11 -129 -59 -307zM328 1016q26 -109 252 -922l6 -30q6 -34 8 -40
q4 -18 16 -32.5t27 -14.5q52 0 52 60q0 40 5 162t5 161q0 162 3 483l2 486v131l2 33q1 17 1 42q0 60 -16 60q-35 0 -42 -28l2 -289q0 -88 -1 -158l-2 -159q0 -145 -4 -356q-4 -212 -4 -357q0 -71 -13 -98q-44 133 -106 389q-142 530 -148 557q-17 73 -48 217l-10 47
q-29 132 -34 153q-4 14 -19 26.5t-28 12.5q-29 0 -42 -9t-13 -34q0 -12 1 -21q1 -10 1 -22l2 -193q1 -86 1 -194v-268q0 -119 3 -356l2 -357q0 -67 -4 -82l6 -16h47l14 16q0 77 -5 292t-5 292v741q0 59 2 85q73 -362 84 -410z" />
    <glyph glyph-name="Ncommaaccent" unicode="&#x145;" horiz-adv-x="900" 
d="M328 1016q26 -109 252 -922l6 -30q6 -34 8 -40q4 -18 16 -32.5t27 -14.5q52 0 52 60q0 40 5 162t5 161q0 162 3 483l2 486v131l2 33q1 17 1 42q0 60 -16 60q-35 0 -42 -28l2 -289q0 -88 -1 -158l-2 -159q0 -145 -4 -356q-4 -212 -4 -357q0 -71 -13 -98q-44 133 -106 389
q-142 530 -148 557q-17 73 -48 217l-10 47q-29 132 -34 153q-4 14 -19 26.5t-28 12.5q-29 0 -42 -9t-13 -34q0 -12 1 -21q1 -10 1 -22l2 -193q1 -86 1 -194v-268q0 -119 3 -356l2 -357q0 -67 -4 -82l6 -16h47l14 16q0 77 -5 292t-5 292v741q0 59 2 85q73 -362 84 -410z
M434 -391q38 46 64 104.5t26 93.5q0 18 -4 25l4 6q-22 60 -68 60q-30 0 -54 -18.5t-24 -45.5q0 -25 17 -49.5t43 -40.5q0 -19 -6 -35q-8 -23 -44 -62q-13 -13 -30 -29t-27 -24l-4 -18l33 -16q34 1 74 49z" />
    <glyph glyph-name="uni01F8" unicode="&#x1f8;" horiz-adv-x="900" 
d="M374.5 1911.5q97.5 -34.5 101.5 -34.5q7 0 15.5 5.5t8.5 11.5q0 17 -39 39q-34 19 -84 39q-54 21 -81 30q-10 3 -16.5 5t-8.5 3q-18 23 -79 23h-13q-13 -9 -13 -45q0 -41 70 -41q16 0 33 4q8 -5 105.5 -39.5zM328 1016q26 -109 252 -922l6 -30q6 -34 8 -40
q4 -18 16 -32.5t27 -14.5q52 0 52 60q0 40 5 162t5 161q0 162 3 483l2 486v131l2 33q1 17 1 42q0 60 -16 60q-35 0 -42 -28l2 -289q0 -88 -1 -158l-2 -159q0 -145 -4 -356q-4 -212 -4 -357q0 -71 -13 -98q-44 133 -106 389q-142 530 -148 557q-17 73 -48 217l-10 47
q-29 132 -34 153q-4 14 -19 26.5t-28 12.5q-29 0 -42 -9t-13 -34q0 -12 1 -21q1 -10 1 -22l2 -193q1 -86 1 -194v-268q0 -119 3 -356l2 -357q0 -67 -4 -82l6 -16h47l14 16q0 77 -5 292t-5 292v741q0 59 2 85q73 -362 84 -410z" />
    <glyph glyph-name="Eng" unicode="&#x14a;" horiz-adv-x="920" 
d="M697 -39q5 58 5 76q0 40 5 162t5 161v258l4 9q-4 32 -4 55q0 108 3 324t3 323q8 19 8 62q0 19 -1 34t-1 35q0 43 13 68q0 67 -33 67q-44 0 -51 -28q8 -42 8 -121v-47l-6 -17q6 -4 6 -26q0 -12 -3 -38q-3 -25 -3 -40q0 -53 3 -158q3 -106 3 -159q0 -145 -4 -356
q-4 -212 -4 -357q0 -29 -9 -133l-59 198q-9 27 -28 122q-17 81 -26 117.5t-36 129.5l-9 31q-72 248 -100 383q-7 39 -13 98q-8 67 -16.5 99.5t-27.5 76.5q-19 42 -27 73.5t-8 69.5q0 14 -16 26.5t-31 12.5q-29 0 -42 -9t-13 -34q0 -12 1 -21q1 -10 1 -22q0 -73 -7 -193
q-8 -138 -8 -194v-268q0 -119 12 -356q11 -250 11 -357q0 -67 -4 -82l6 -16h47l14 16q0 91 -14 292t-14 292v561q0 92 14 142q-4 11 -4 38q0 12 1 19q1 14 2.5 24.5t2.5 16.5q20 -48 36 -117q7 -36 12 -52l22 -120l-4 -10q17 -17 19 -57l3 -29q26 -145 81 -347
q43 -159 69 -247t86 -275q15 -50 39 -124q11 -37 22 -52v-18q0 -223 -90 -313q-7 -7 -25 -18q-23 -15 -35.5 -27t-13.5 -23q0 -39 43 -39q79 57 126.5 145t47.5 191q0 39 6 92z" />
    <glyph glyph-name="uni01CB" unicode="&#x1cb;" horiz-adv-x="1520" 
d="M328 1016q26 -109 252 -922l6 -30q6 -34 8 -40q4 -18 16 -32.5t27 -14.5q52 0 52 60q0 40 5 162t5 161q0 162 3 483l2 486v131l2 33q1 17 1 42q0 60 -16 60q-35 0 -42 -28l2 -289q0 -88 -1 -158l-2 -159q0 -145 -4 -356q-4 -212 -4 -357q0 -71 -13 -98q-44 133 -106 389
q-142 530 -148 557q-17 73 -48 217l-10 47q-29 132 -34 153q-4 14 -19 26.5t-28 12.5q-29 0 -42 -9t-13 -34q0 -12 1 -21q1 -10 1 -22l2 -193q1 -86 1 -194v-268q0 -119 3 -356l2 -357q0 -67 -4 -82l6 -16h47l14 16q0 77 -5 292t-5 292v741q0 59 2 85q73 -362 84 -410z
M1003 -201l1 -4l47 -47h14q49 0 91.5 34t67.5 88q24 51 37 102.5t13 93.5q0 59 12 86v225q0 154 -10 424t-10 426q0 41 18 41q22 0 56 -10q36 -11 55 -11q13 0 23 7.5t10 19.5q0 17 -66.5 37t-151 34.5t-124.5 14.5q-10 0 -26.5 -8.5t-16.5 -16.5q0 -16 30 -27
q32 -12 70 -16q41 -6 49 -10l12 -22q0 -198 10 -544q9 -363 9 -544q0 -73 -17.5 -147t-48.5 -109q-6 -7 -47 -34l-46 -30l-28 -19q-34 -22 -34 -30z" />
    <glyph glyph-name="Ntilde" unicode="&#xd1;" horiz-adv-x="900" 
d="M246 1762.5q13 -11.5 26 -11.5l22 31q-10 33 -10 43q0 23 23 39t53 16l14 -6q33 -39 52 -58q22 -23 59 -43t71 -20q28 0 53 15t40.5 40t15.5 53q0 29 -12 49.5t-35 20.5q-15 0 -21 -12q2 -8 7 -18q5 -15 5 -21q0 -73 -53 -73q-30 0 -66 24.5t-51 54.5q-36 42 -87 42
q-50 0 -84.5 -39t-34.5 -103q0 -12 13 -23.5zM328 1016q26 -109 252 -922l6 -30q6 -34 8 -40q4 -18 16 -32.5t27 -14.5q52 0 52 60q0 40 5 162t5 161q0 162 3 483l2 486v131l2 33q1 17 1 42q0 60 -16 60q-35 0 -42 -28l2 -289q0 -88 -1 -158l-2 -159q0 -145 -4 -356
q-4 -212 -4 -357q0 -71 -13 -98q-44 133 -106 389q-142 530 -148 557q-17 73 -48 217l-10 47q-29 132 -34 153q-4 14 -19 26.5t-28 12.5q-29 0 -42 -9t-13 -34q0 -12 1 -21q1 -10 1 -22l2 -193q1 -86 1 -194v-268q0 -119 3 -356l2 -357q0 -67 -4 -82l6 -16h47l14 16
q0 77 -5 292t-5 292v741q0 59 2 85q73 -362 84 -410z" />
    <glyph glyph-name="O" unicode="O" horiz-adv-x="840" 
d="M455 -43q78 0 122 74q24 42 39 81.5t24 95.5q11 69 15.5 112t7.5 103q3 87 3 189v6q0 275 -49 621q-5 39 -16 97q-10 45 -28.5 91t-41.5 74q-26 32 -67 51t-91 19q-53 0 -90 -34q-37 -33 -58.5 -83.5t-33.5 -130.5q-12 -73 -16 -139t-4 -159v-83q0 -985 284 -985z
M456 1489.5q33 -28.5 55 -81.5q25 -62 41.5 -121t25.5 -133l3 -27q17 -148 22 -260q3 -105 3 -205v-9q0 -83 -6 -214q-6 -138 -39 -282q-15 -67 -42 -105t-60 -38q-52 0 -94 72q-40 67 -64 164.5t-42 233.5q-27 208 -27 347v100q0 87 6 208q4 70 14 129.5t27 124.5
q15 60 42 92.5t62 32.5q40 0 73 -28.5z" />
    <glyph glyph-name="Oacute" unicode="&#xd3;" horiz-adv-x="840" 
d="M271.5 1848q10.5 -8 26.5 -8q151 129 256 176l6 31q0 32 -45 32q-7 -7 -76 -60q-77 -59 -122 -96q-56 -45 -56 -53q0 -14 10.5 -22zM455 -43q78 0 122 74q24 42 39 81.5t24 95.5q11 69 15.5 112t7.5 103q3 87 3 189v6q0 275 -49 621q-5 39 -16 97q-10 45 -28.5 91
t-41.5 74q-26 32 -67 51t-91 19q-53 0 -90 -34q-37 -33 -58.5 -83.5t-33.5 -130.5q-12 -73 -16 -139t-4 -159v-83q0 -985 284 -985zM456 1489.5q33 -28.5 55 -81.5q25 -62 41.5 -121t25.5 -133l3 -27q17 -148 22 -260q3 -105 3 -205v-9q0 -83 -6 -214q-6 -138 -39 -282
q-15 -67 -42 -105t-60 -38q-52 0 -94 72q-40 67 -64 164.5t-42 233.5q-27 208 -27 347v100q0 87 6 208q4 70 14 129.5t27 124.5q15 60 42 92.5t62 32.5q40 0 73 -28.5z" />
    <glyph glyph-name="Obreve" unicode="&#x14e;" horiz-adv-x="840" 
d="M292 1802q16 -33 46.5 -51.5t71.5 -18.5q26 0 44 7q21 7 32.5 14t22.5 24q11 16 17.5 29t15.5 34q6 15 10 23l6 12l-5 15l6 15q5 13 5 17q0 12 -9.5 20.5t-21.5 8.5q-37 0 -37 -39q0 -8 1 -14q1 -7 1 -15q0 -20 -10 -44.5t-26.5 -42t-33.5 -17.5h-51l-22 16
q-22 16 -33 50.5t-19 81.5q-6 30 -20 32l-22 -18q0 -76 31 -139zM455 -43q78 0 122 74q24 42 39 81.5t24 95.5q11 69 15.5 112t7.5 103q3 87 3 189v6q0 275 -49 621q-5 39 -16 97q-10 45 -28.5 91t-41.5 74q-26 32 -67 51t-91 19q-53 0 -90 -34q-37 -33 -58.5 -83.5
t-33.5 -130.5q-12 -73 -16 -139t-4 -159v-83q0 -985 284 -985zM456 1489.5q33 -28.5 55 -81.5q25 -62 41.5 -121t25.5 -133l3 -27q17 -148 22 -260q3 -105 3 -205v-9q0 -83 -6 -214q-6 -138 -39 -282q-15 -67 -42 -105t-60 -38q-52 0 -94 72q-40 67 -64 164.5t-42 233.5
q-27 208 -27 347v100q0 87 6 208q4 70 14 129.5t27 124.5q15 60 42 92.5t62 32.5q40 0 73 -28.5z" />
    <glyph glyph-name="uni01D1" unicode="&#x1d1;" horiz-adv-x="840" 
d="M393 1741q-9 24 -31.5 88t-36.5 108q-16 49 -18 70l-35 47l-37 -27q1 -30 36.5 -116t76 -158t59.5 -72q29 0 29 43q0 38 9 76t28 90q15 45 24 74l-2 12l15 31l-2 10q8 18 8 23q0 18 -37 24l-27 -16q-11 -129 -59 -307zM455 -43q78 0 122 74q24 42 39 81.5t24 95.5
q11 69 15.5 112t7.5 103q3 87 3 189v6q0 275 -49 621q-5 39 -16 97q-10 45 -28.5 91t-41.5 74q-26 32 -67 51t-91 19q-53 0 -90 -34q-37 -33 -58.5 -83.5t-33.5 -130.5q-12 -73 -16 -139t-4 -159v-83q0 -985 284 -985zM456 1489.5q33 -28.5 55 -81.5q25 -62 41.5 -121
t25.5 -133l3 -27q17 -148 22 -260q3 -105 3 -205v-9q0 -83 -6 -214q-6 -138 -39 -282q-15 -67 -42 -105t-60 -38q-52 0 -94 72q-40 67 -64 164.5t-42 233.5q-27 208 -27 347v100q0 87 6 208q4 70 14 129.5t27 124.5q15 60 42 92.5t62 32.5q40 0 73 -28.5z" />
    <glyph glyph-name="Ocircumflex" unicode="&#xd4;" horiz-adv-x="840" 
d="M526 1706q0 4 -8 22l2 11l-15 30l2 13q-9 29 -24 74q-19 51 -28 89t-9 76q0 43 -29 43q-19 0 -59.5 -72t-76 -158t-36.5 -116l37 -26l35 47q2 21 18 70q14 44 36.5 108t31.5 88q48 -178 59 -307l27 -17q37 6 37 25zM455 -43q78 0 122 74q24 42 39 81.5t24 95.5
q11 69 15.5 112t7.5 103q3 87 3 189v6q0 275 -49 621q-5 39 -16 97q-10 45 -28.5 91t-41.5 74q-26 32 -67 51t-91 19q-53 0 -90 -34q-37 -33 -58.5 -83.5t-33.5 -130.5q-12 -73 -16 -139t-4 -159v-83q0 -985 284 -985zM456 1489.5q33 -28.5 55 -81.5q25 -62 41.5 -121
t25.5 -133l3 -27q17 -148 22 -260q3 -105 3 -205v-9q0 -83 -6 -214q-6 -138 -39 -282q-15 -67 -42 -105t-60 -38q-52 0 -94 72q-40 67 -64 164.5t-42 233.5q-27 208 -27 347v100q0 87 6 208q4 70 14 129.5t27 124.5q15 60 42 92.5t62 32.5q40 0 73 -28.5z" />
    <glyph glyph-name="uni020C" unicode="&#x20c;" horiz-adv-x="840" 
d="M449.5 1971q-79.5 68 -164 131.5t-95.5 63.5q-4 0 -13 -11t-9 -20q0 -13 13 -20q147 -118 186 -145q23 -10 71 -46q51 -38 85 -45l9 11q-3 13 -82.5 81zM38 2091q-105 60 -115 60q-11 0 -25 -17t-17 -33l107 -60q33 -14 110 -55q3 -1 27 -16l23 -15q35 -24 74 -48
q34 -22 42 -22q11 0 11 15t-97 90q-106 80 -140 101zM455 -43q78 0 122 74q24 42 39 81.5t24 95.5q11 69 15.5 112t7.5 103q3 87 3 189v6q0 275 -49 621q-5 39 -16 97q-10 45 -28.5 91t-41.5 74q-26 32 -67 51t-91 19q-53 0 -90 -34q-37 -33 -58.5 -83.5t-33.5 -130.5
q-12 -73 -16 -139t-4 -159v-83q0 -985 284 -985zM456 1489.5q33 -28.5 55 -81.5q25 -62 41.5 -121t25.5 -133l3 -27q17 -148 22 -260q3 -105 3 -205v-9q0 -83 -6 -214q-6 -138 -39 -282q-15 -67 -42 -105t-60 -38q-52 0 -94 72q-40 67 -64 164.5t-42 233.5q-27 208 -27 347
v100q0 87 6 208q4 70 14 129.5t27 124.5q15 60 42 92.5t62 32.5q40 0 73 -28.5z" />
    <glyph glyph-name="Odieresis" unicode="&#xd6;" horiz-adv-x="840" 
d="M586 1834.5q13 -14.5 28 -14.5q54 0 54 47q0 16 -14 32.5t-31 16.5q-19 0 -34.5 -16t-15.5 -35q0 -16 13 -30.5zM124.5 1828q11.5 -16 27.5 -16q20 0 35.5 9.5t15.5 25.5q0 28 -10.5 47.5t-30.5 19.5q-18 0 -33.5 -16.5t-15.5 -34.5q0 -19 11.5 -35zM455 -43q78 0 122 74
q24 42 39 81.5t24 95.5q11 69 15.5 112t7.5 103q3 87 3 189v6q0 275 -49 621q-5 39 -16 97q-10 45 -28.5 91t-41.5 74q-26 32 -67 51t-91 19q-53 0 -90 -34q-37 -33 -58.5 -83.5t-33.5 -130.5q-12 -73 -16 -139t-4 -159v-83q0 -985 284 -985zM456 1489.5q33 -28.5 55 -81.5
q25 -62 41.5 -121t25.5 -133l3 -27q17 -148 22 -260q3 -105 3 -205v-9q0 -83 -6 -214q-6 -138 -39 -282q-15 -67 -42 -105t-60 -38q-52 0 -94 72q-40 67 -64 164.5t-42 233.5q-27 208 -27 347v100q0 87 6 208q4 70 14 129.5t27 124.5q15 60 42 92.5t62 32.5q40 0 73 -28.5z
" />
    <glyph glyph-name="uni022E" unicode="&#x22e;" horiz-adv-x="840" 
d="M340.5 1899.5q13.5 -15.5 31.5 -15.5q57 0 57 51q0 18 -15.5 35.5t-33.5 17.5q-20 0 -36.5 -17.5t-16.5 -37.5q0 -18 13.5 -33.5zM455 -43q78 0 122 74q24 42 39 81.5t24 95.5q11 69 15.5 112t7.5 103q3 87 3 189v6q0 275 -49 621q-5 39 -16 97q-10 45 -28.5 91t-41.5 74
q-26 32 -67 51t-91 19q-53 0 -90 -34q-37 -33 -58.5 -83.5t-33.5 -130.5q-12 -73 -16 -139t-4 -159v-83q0 -985 284 -985zM456 1489.5q33 -28.5 55 -81.5q25 -62 41.5 -121t25.5 -133l3 -27q17 -148 22 -260q3 -105 3 -205v-9q0 -83 -6 -214q-6 -138 -39 -282
q-15 -67 -42 -105t-60 -38q-52 0 -94 72q-40 67 -64 164.5t-42 233.5q-27 208 -27 347v100q0 87 6 208q4 70 14 129.5t27 124.5q15 60 42 92.5t62 32.5q40 0 73 -28.5z" />
    <glyph glyph-name="Ograve" unicode="&#xd2;" horiz-adv-x="840" 
d="M294.5 1911.5q97.5 -34.5 101.5 -34.5q7 0 15.5 5.5t8.5 11.5q0 17 -39 39q-34 19 -84 39q-54 21 -81 30q-10 3 -16.5 5t-8.5 3q-18 23 -79 23h-13q-13 -9 -13 -45q0 -41 70 -41q16 0 33 4q8 -5 105.5 -39.5zM455 -43q78 0 122 74q24 42 39 81.5t24 95.5q11 69 15.5 112
t7.5 103q3 87 3 189v6q0 275 -49 621q-5 39 -16 97q-10 45 -28.5 91t-41.5 74q-26 32 -67 51t-91 19q-53 0 -90 -34q-37 -33 -58.5 -83.5t-33.5 -130.5q-12 -73 -16 -139t-4 -159v-83q0 -985 284 -985zM456 1489.5q33 -28.5 55 -81.5q25 -62 41.5 -121t25.5 -133l3 -27
q17 -148 22 -260q3 -105 3 -205v-9q0 -83 -6 -214q-6 -138 -39 -282q-15 -67 -42 -105t-60 -38q-52 0 -94 72q-40 67 -64 164.5t-42 233.5q-27 208 -27 347v100q0 87 6 208q4 70 14 129.5t27 124.5q15 60 42 92.5t62 32.5q40 0 73 -28.5z" />
    <glyph glyph-name="Ohungarumlaut" unicode="&#x150;" horiz-adv-x="840" 
d="M168 1815q46 35 70 46q29 19 202 151q14 8 14 20q0 9 -9.5 20t-13.5 11q-12 0 -100 -65t-171.5 -134t-86.5 -83l10 -11q34 7 85 45zM392 1776q8 0 46 23q49 30 82 51q45 30 53 33q89 47 111 55l106 60q-3 16 -17 33t-25 17q-9 0 -114 -60q-62 -39 -157.5 -111t-95.5 -86
q0 -15 11 -15zM455 -43q78 0 122 74q24 42 39 81.5t24 95.5q11 69 15.5 112t7.5 103q3 87 3 189v6q0 275 -49 621q-5 39 -16 97q-10 45 -28.5 91t-41.5 74q-26 32 -67 51t-91 19q-53 0 -90 -34q-37 -33 -58.5 -83.5t-33.5 -130.5q-12 -73 -16 -139t-4 -159v-83
q0 -985 284 -985zM456 1489.5q33 -28.5 55 -81.5q25 -62 41.5 -121t25.5 -133l3 -27q17 -148 22 -260q3 -105 3 -205v-9q0 -83 -6 -214q-6 -138 -39 -282q-15 -67 -42 -105t-60 -38q-52 0 -94 72q-40 67 -64 164.5t-42 233.5q-27 208 -27 347v100q0 87 6 208q4 70 14 129.5
t27 124.5q15 60 42 92.5t62 32.5q40 0 73 -28.5z" />
    <glyph glyph-name="uni020E" unicode="&#x20e;" horiz-adv-x="840" 
d="M293 1853q8 47 19 81.5t33 50.5l22 16h51q17 0 33.5 -17.5t26.5 -42t10 -44.5q0 -8 -1 -14q-1 -7 -1 -15q0 -39 37 -39q12 0 21.5 8.5t9.5 20.5q0 4 -5 17l-6 15l5 15q-2 4 -6 12.5t-10 23.5t-10 23l-6 12q-22 42 -41 52q-36 20 -75 20q-41 0 -71.5 -18.5t-46.5 -51.5
q-31 -63 -31 -139l22 -18q14 2 20 32zM455 -43q78 0 122 74q24 42 39 81.5t24 95.5q11 69 15.5 112t7.5 103q3 87 3 189v6q0 275 -49 621q-5 39 -16 97q-10 45 -28.5 91t-41.5 74q-26 32 -67 51t-91 19q-53 0 -90 -34q-37 -33 -58.5 -83.5t-33.5 -130.5q-12 -73 -16 -139
t-4 -159v-83q0 -985 284 -985zM456 1489.5q33 -28.5 55 -81.5q25 -62 41.5 -121t25.5 -133l3 -27q17 -148 22 -260q3 -105 3 -205v-9q0 -83 -6 -214q-6 -138 -39 -282q-15 -67 -42 -105t-60 -38q-52 0 -94 72q-40 67 -64 164.5t-42 233.5q-27 208 -27 347v100q0 87 6 208
q4 70 14 129.5t27 124.5q15 60 42 92.5t62 32.5q40 0 73 -28.5z" />
    <glyph glyph-name="Omacron" unicode="&#x14c;" horiz-adv-x="840" 
d="M614 1870q-10 7 -34 10q-23 3 -46 3.5t-58 0.5h-116q-129 0 -131 -17q0 -7 5 -14q6 -8 39 -15q19 -4 65 -4h40h115q129 0 131 17q0 12 -10 19zM455 -43q78 0 122 74q24 42 39 81.5t24 95.5q11 69 15.5 112t7.5 103q3 87 3 189v6q0 275 -49 621q-5 39 -16 97
q-10 45 -28.5 91t-41.5 74q-26 32 -67 51t-91 19q-53 0 -90 -34q-37 -33 -58.5 -83.5t-33.5 -130.5q-12 -73 -16 -139t-4 -159v-83q0 -985 284 -985zM456 1489.5q33 -28.5 55 -81.5q25 -62 41.5 -121t25.5 -133l3 -27q17 -148 22 -260q3 -105 3 -205v-9q0 -83 -6 -214
q-6 -138 -39 -282q-15 -67 -42 -105t-60 -38q-52 0 -94 72q-40 67 -64 164.5t-42 233.5q-27 208 -27 347v100q0 87 6 208q4 70 14 129.5t27 124.5q15 60 42 92.5t62 32.5q40 0 73 -28.5z" />
    <glyph glyph-name="uni01EA" unicode="&#x1ea;" horiz-adv-x="840" 
d="M666 618v-6q0 -102 -3 -189q-3 -60 -7.5 -103t-15.5 -112q-9 -56 -24 -95.5t-39 -81.5q-30 -50 -75 -66q0 -1 -17 -26q-24 -32 -42.5 -61.5t-33.5 -67.5q-18 -43 -18 -79q0 -22 -4 -47l-1 -20q-1 -10 -1 -23q0 -27 22.5 -55.5t46.5 -28.5q11 0 33 11q20 10 33 10
q22 0 22 -21q0 -25 -28 -40t-60 -15q-39 0 -75 26.5t-58 65t-22 70.5q0 47 14 96.5t36 88.5q45 77 77 109l1 1q-256 48 -256 983v83q0 93 4 159t16 139q12 80 33.5 130.5t58.5 83.5q37 34 90 34q50 0 91 -19t67 -51q23 -28 41.5 -74t28.5 -91q11 -58 16 -97q49 -346 49 -621
zM606 662q0 100 -3 205q-5 112 -22 260l-3 27q-9 74 -25.5 133t-41.5 121q-22 53 -55 81.5t-73 28.5q-35 0 -62 -32.5t-42 -92.5q-17 -65 -27 -124.5t-14 -129.5q-6 -121 -6 -208v-100q0 -139 27 -347q18 -136 42 -233.5t64 -164.5q42 -72 94 -72q33 0 60 38t42 105
q33 144 39 282q6 131 6 214v9z" />
    <glyph glyph-name="Oslash" unicode="&#xd8;" horiz-adv-x="760" 
d="M265 20h2q30 -40 101 -40q75 0 117 54q23 29 37.5 58t22.5 68q10 48 15 79.5t8 73.5q3 60 3 131q0 64 -3 193q-4 115 -4 194l-4 7v12q0 62 -15 189q-15 128 -15 188l4 2q0 80 -23 137q-1 3 -4 7t-6 10q-16 23 -21 44l2 5q-30 35 -30 59l43 248l2 59h-37l-19 -109
q-16 -94 -34 -149l-11 10l-8 -4q-9 0 -28 12q-20 11 -31 11q-150 0 -150 -488v-129q0 -503 43 -768q1 -8 11 -34q8 -27 8 -39q-15 -102 -30 -177l-10 -48q-11 -51 -15 -75.5t-5 -50.5l31 -24q42 211 53 284zM222 839v13q0 614 64 653l12 -4l10 4l15 6l8 2q26 0 45.5 -16.5
t19.5 -40.5q0 -32 -4 -72.5t-10 -84.5q-6 -35 -10 -72l-13 -138l-23 -241l-7 -71q-31 -305 -45 -406q-14 -91 -19 -97q0 72 -12 216t-12 215q-19 42 -19 134zM308 215q39 197 74 602q32 389 62 572q73 -145 73 -990q0 -376 -133 -376q-49 0 -69.5 22.5t-20.5 73.5
q0 17 14 96z" />
    <glyph glyph-name="Oslashacute" unicode="&#x1fe;" horiz-adv-x="760" 
d="M286.5 1928q10.5 -8 26.5 -8q151 129 256 176l6 31q0 32 -45 32q-7 -7 -76 -60q-77 -59 -122 -96q-56 -45 -56 -53q0 -14 10.5 -22zM265 20h2q30 -40 101 -40q75 0 117 54q23 29 37.5 58t22.5 68q10 48 15 79.5t8 73.5q3 60 3 131q0 64 -3 193q-4 115 -4 194l-4 7v12
q0 62 -15 189q-15 128 -15 188l4 2q0 80 -23 137q-1 3 -4 7t-6 10q-16 23 -21 44l2 5q-30 35 -30 59l43 248l2 59h-37l-19 -109q-16 -94 -34 -149l-11 10l-8 -4q-9 0 -28 12q-20 11 -31 11q-150 0 -150 -488v-129q0 -503 43 -768q1 -8 11 -34q8 -27 8 -39q-15 -102 -30 -177
l-10 -48q-11 -51 -15 -75.5t-5 -50.5l31 -24q42 211 53 284zM222 839v13q0 614 64 653l12 -4l10 4l15 6l8 2q26 0 45.5 -16.5t19.5 -40.5q0 -32 -4 -72.5t-10 -84.5q-6 -35 -10 -72l-13 -138l-23 -241l-7 -71q-31 -305 -45 -406q-14 -91 -19 -97q0 72 -12 216t-12 215
q-19 42 -19 134zM308 215q39 197 74 602q32 389 62 572q73 -145 73 -990q0 -376 -133 -376q-49 0 -69.5 22.5t-20.5 73.5q0 17 14 96z" />
    <glyph glyph-name="Otilde" unicode="&#xd5;" horiz-adv-x="840" 
d="M166 1762.5q13 -11.5 26 -11.5l22 31q-10 33 -10 43q0 23 23 39t53 16l14 -6q33 -39 52 -58q22 -23 59 -43t71 -20q28 0 53 15t40.5 40t15.5 53q0 29 -12 49.5t-35 20.5q-15 0 -21 -12q2 -8 7 -18q5 -15 5 -21q0 -73 -53 -73q-30 0 -66 24.5t-51 54.5q-36 42 -87 42
q-50 0 -84.5 -39t-34.5 -103q0 -12 13 -23.5zM455 -43q78 0 122 74q24 42 39 81.5t24 95.5q11 69 15.5 112t7.5 103q3 87 3 189v6q0 275 -49 621q-5 39 -16 97q-10 45 -28.5 91t-41.5 74q-26 32 -67 51t-91 19q-53 0 -90 -34q-37 -33 -58.5 -83.5t-33.5 -130.5
q-12 -73 -16 -139t-4 -159v-83q0 -985 284 -985zM456 1489.5q33 -28.5 55 -81.5q25 -62 41.5 -121t25.5 -133l3 -27q17 -148 22 -260q3 -105 3 -205v-9q0 -83 -6 -214q-6 -138 -39 -282q-15 -67 -42 -105t-60 -38q-52 0 -94 72q-40 67 -64 164.5t-42 233.5q-27 208 -27 347
v100q0 87 6 208q4 70 14 129.5t27 124.5q15 60 42 92.5t62 32.5q40 0 73 -28.5z" />
    <glyph glyph-name="OE" unicode="&#x152;" horiz-adv-x="1200" 
d="M839 -20q53 0 156 3q104 3 155 3l12 18q0 39 -141 39q-29 0 -85 -3l-73 -5q0 138 -7 366q-7 227 -7 365q0 18 59 18q16 0 47 -3q32 -3 46 -3q19 0 25.5 7t6.5 26q-19 25 -49 25l-26 -2q-18 -3 -27 -3l-80 3q-10 33 -10 84l2 53l2 53q0 71 -14 228q-15 152 -15 227
q49 0 121 -4q90 -5 121 -5q37 0 37 23q0 8 -10 19t-21 18l-22 -2l-23 -2h-151q-15 0 -40 6q-27 6 -40 6l-31 -43l6 -22q-72 79 -295 79q-58 0 -106 -30t-80 -82q-65 -107 -89 -242q-22 -126 -22 -233q0 -53 5 -210t5 -210q0 -112 30.5 -208.5t89.5 -169.5
q60 -74 151.5 -115.5t204.5 -41.5q27 0 76 15q48 15 69 18l-12 -33q3 -30 49 -30zM286 274q-26 72 -38 169q-24 197 -24 298l-4 7q2 34 2 73t-1 72t-1 74q0 108 17 219q18 119 81 215q30 45 78 70.5t107 25.5q87 0 158 -23.5t108 -72.5q0 -47 7 -124q6 -82 6 -124
q0 -155 14 -499q14 -345 14 -500q0 -25 -22.5 -43t-60.5 -26q-64 -13 -120 -13q-146 0 -262 125q-33 5 -59 77z" />
    <glyph glyph-name="P" unicode="P" horiz-adv-x="660" 
d="M257.5 3q9.5 15 9.5 48q0 99 -8 337q-9 224 -9 337q77 17 138 99q58 78 88 174t30 188q0 69 -18.5 135t-53.5 121q-36 57 -95 90t-130 33q-11 0 -15 -2q-6 -2 -10 -8q-5 -5 -8 -11l-5 -8q0 -86 8 -270q10 -267 10 -508q0 -93 1 -166t1 -166q0 -62 3 -184q3 -121 3 -183
q0 -71 25 -71q26 0 35.5 15zM331.5 1475.5q46.5 -29.5 71.5 -80.5q46 -96 46 -213q0 -201 -133 -334l-14 -15l-15 -16q-17 -15 -37 -16l-4 4q0 118 -12 350q-12 233 -12 350q63 0 109.5 -29.5z" />
    <glyph glyph-name="uni1E56" unicode="&#x1e56;" horiz-adv-x="660" 
d="M250.5 1899.5q13.5 -15.5 31.5 -15.5q57 0 57 51q0 18 -15.5 35.5t-33.5 17.5q-20 0 -36.5 -17.5t-16.5 -37.5q0 -18 13.5 -33.5zM257.5 3q9.5 15 9.5 48q0 99 -8 337q-9 224 -9 337q77 17 138 99q58 78 88 174t30 188q0 69 -18.5 135t-53.5 121q-36 57 -95 90t-130 33
q-11 0 -15 -2q-6 -2 -10 -8q-5 -5 -8 -11l-5 -8q0 -86 8 -270q10 -267 10 -508q0 -93 1 -166t1 -166q0 -62 3 -184q3 -121 3 -183q0 -71 25 -71q26 0 35.5 15zM331.5 1475.5q46.5 -29.5 71.5 -80.5q46 -96 46 -213q0 -201 -133 -334l-14 -15l-15 -16q-17 -15 -37 -16l-4 4
q0 118 -12 350q-12 233 -12 350q63 0 109.5 -29.5z" />
    <glyph glyph-name="Thorn" unicode="&#xde;" horiz-adv-x="700" 
d="M260.5 3q9.5 15 9.5 48q0 105 -5 188q-6 75 -6 188q92 20 110 32q14 9 26 14q18 7 27 15q43 34 78 103t55 149t20 147q0 58 -10 107q-11 52 -37.5 102t-64.5 86q-40 38 -102 60.5t-138 23.5v2q-3 54 -4 136q-2 87 -5 136q0 -1 -5 1q-20 5 -29 5q-15 -4 -15 -16l1 -5v-10
q0 -33 -1 -64l-2 -56q0 -15 2 -29q0 -59 7 -147q0 -6 8 -119l7 -164q11 -237 11 -367q0 -32 2 -126t2 -126q0 -84 -1 -129t-1 -129q0 -71 25 -71q26 0 35.5 15zM518 883q0 -201 -133 -334q-14 -14 -57 -29.5t-69 -17.5q-1 93 -14 322q-12 197 -14 330v53q287 0 287 -324z
" />
    <glyph glyph-name="Q" unicode="Q" horiz-adv-x="860" 
d="M729 -244q0 27 -64 27h-8q-33 0 -52 25q-17 21 -22 45.5t-10 77.5q-5 45 -8 55l-10 29q-8 21 -10 38q127 181 127 541q0 478 -56 797q-8 45 -43.5 88.5t-85 70.5t-96.5 27q-74 0 -116 -77q-44 -81 -63 -194q-22 -134 -27 -262q-6 -125 -6 -279q0 -56 1 -99v-93
q0 -39 2 -91q2 -48 8.5 -106.5t17.5 -98.5q12 -49 35 -97.5t52 -78.5q32 -34 80 -54t106 -20q7 -21 19 -98q13 -81 33 -125t57 -60q7 -2 29 -14q23 -13 32 -13q78 0 78 39zM240 839q7 220 23 349q12 99 28 172t39 115q26 45 57 45q37 0 68 -15t52 -45q23 -33 39 -68t25 -80
q11 -62 16.5 -99.5t8.5 -88.5q4 -100 4 -183v-54q0 -423 -34 -614q-34 -193 -109 -193q-53 0 -94 41q-39 39 -62.5 95.5t-38.5 137.5q-24 119 -24 236v123q0 36 2 126z" />
    <glyph glyph-name="R" unicode="R" horiz-adv-x="700" 
d="M556 -20q14 0 22 12.5t8 31.5q0 13 -3 23l-220 855q14 14 33 54.5t29 69.5q41 109 41 205q0 59 -14 115.5t-40 104.5q-28 49 -73 77t-100 28q-37 0 -37 -18v-264q0 -234 -7 -611q-8 -432 -8 -612v-31q0 -15 10 -24.5t25 -9.5q37 0 37 41v30l-4 789q9 2 27 13l21 11
q24 -90 53 -239q34 -172 40 -199q20 -96 84 -322q20 -70 25 -90q10 -40 51 -40zM259 1492h5q35 0 63 -31.5t44 -81.5q27 -92 27 -173q0 -46 -9.5 -103t-24.5 -85q-16 -28 -54.5 -66.5t-55.5 -38.5v578q3 0 5 1z" />
    <glyph glyph-name="Racute" unicode="&#x154;" horiz-adv-x="700" 
d="M289.5 1848q10.5 -8 26.5 -8q151 129 256 176l6 31q0 32 -45 32q-7 -7 -76 -60q-77 -59 -122 -96q-56 -45 -56 -53q0 -14 10.5 -22zM556 -20q14 0 22 12.5t8 31.5q0 13 -3 23l-220 855q14 14 33 54.5t29 69.5q41 109 41 205q0 59 -14 115.5t-40 104.5q-28 49 -73 77
t-100 28q-37 0 -37 -18v-264q0 -234 -7 -611q-8 -432 -8 -612v-31q0 -15 10 -24.5t25 -9.5q37 0 37 41v30l-4 789q9 2 27 13l21 11q24 -90 53 -239q34 -172 40 -199q20 -96 84 -322q20 -70 25 -90q10 -40 51 -40zM259 1492h5q35 0 63 -31.5t44 -81.5q27 -92 27 -173
q0 -46 -9.5 -103t-24.5 -85q-16 -28 -54.5 -66.5t-55.5 -38.5v578q3 0 5 1z" />
    <glyph glyph-name="Rcaron" unicode="&#x158;" horiz-adv-x="700" 
d="M313 1741q-9 24 -31.5 88t-36.5 108q-16 49 -18 70l-35 47l-37 -27q1 -30 36.5 -116t76 -158t59.5 -72q29 0 29 43q0 38 9 76t28 90q15 45 24 74l-2 12l15 31l-2 10q8 18 8 23q0 18 -37 24l-27 -16q-11 -129 -59 -307zM556 -20q14 0 22 12.5t8 31.5q0 13 -3 23l-220 855
q14 14 33 54.5t29 69.5q41 109 41 205q0 59 -14 115.5t-40 104.5q-28 49 -73 77t-100 28q-37 0 -37 -18v-264q0 -234 -7 -611q-8 -432 -8 -612v-31q0 -15 10 -24.5t25 -9.5q37 0 37 41v30l-4 789q9 2 27 13l21 11q24 -90 53 -239q34 -172 40 -199q20 -96 84 -322
q20 -70 25 -90q10 -40 51 -40zM259 1492h5q35 0 63 -31.5t44 -81.5q27 -92 27 -173q0 -46 -9.5 -103t-24.5 -85q-16 -28 -54.5 -66.5t-55.5 -38.5v578q3 0 5 1z" />
    <glyph glyph-name="Rcommaaccent" unicode="&#x156;" horiz-adv-x="700" 
d="M556 -20q14 0 22 12.5t8 31.5q0 13 -3 23l-220 855q14 14 33 54.5t29 69.5q41 109 41 205q0 59 -14 115.5t-40 104.5q-28 49 -73 77t-100 28q-37 0 -37 -18v-264q0 -234 -7 -611q-8 -432 -8 -612v-31q0 -15 10 -24.5t25 -9.5q37 0 37 41v30l-4 789q9 2 27 13l21 11
q24 -90 53 -239q34 -172 40 -199q20 -96 84 -322q20 -70 25 -90q10 -40 51 -40zM259 1492h5q35 0 63 -31.5t44 -81.5q27 -92 27 -173q0 -46 -9.5 -103t-24.5 -85q-16 -28 -54.5 -66.5t-55.5 -38.5v578q3 0 5 1zM334 -391q38 46 64 104.5t26 93.5q0 18 -4 25l4 6
q-23 60 -68 60q-30 0 -54 -18.5t-24 -45.5q0 -25 17 -49.5t43 -40.5q0 -19 -6 -35q-8 -23 -44 -62q-13 -13 -30 -29t-27 -24l-4 -18l33 -16q34 1 74 49z" />
    <glyph glyph-name="uni0210" unicode="&#x210;" horiz-adv-x="700" 
d="M369.5 1971q-79.5 68 -164 131.5t-95.5 63.5q-4 0 -13 -11t-9 -20q0 -13 13 -20q147 -118 186 -145q23 -10 71 -46q51 -38 85 -45l9 11q-3 13 -82.5 81zM-42 2091q-105 60 -115 60q-11 0 -25 -17t-17 -33l107 -60q33 -14 110 -55q3 -1 27 -16l23 -15q35 -24 74 -48
q34 -22 42 -22q11 0 11 15t-97 90q-106 80 -140 101zM556 -20q14 0 22 12.5t8 31.5q0 13 -3 23l-220 855q14 14 33 54.5t29 69.5q41 109 41 205q0 59 -14 115.5t-40 104.5q-28 49 -73 77t-100 28q-37 0 -37 -18v-264q0 -234 -7 -611q-8 -432 -8 -612v-31q0 -15 10 -24.5
t25 -9.5q37 0 37 41v30l-4 789q9 2 27 13l21 11q24 -90 53 -239q34 -172 40 -199q20 -96 84 -322q20 -70 25 -90q10 -40 51 -40zM259 1492h5q35 0 63 -31.5t44 -81.5q27 -92 27 -173q0 -46 -9.5 -103t-24.5 -85q-16 -28 -54.5 -66.5t-55.5 -38.5v578q3 0 5 1z" />
    <glyph glyph-name="uni0212" unicode="&#x212;" horiz-adv-x="700" 
d="M213 1853q8 47 19 81.5t33 50.5l22 16h51q17 0 33.5 -17.5t26.5 -42t10 -44.5q0 -8 -1 -14q-1 -7 -1 -15q0 -39 37 -39q12 0 21.5 8.5t9.5 20.5q0 4 -5 17l-6 15l5 15q-2 4 -6 12.5t-10 23.5t-10 23l-6 12q-22 42 -41 52q-36 20 -75 20q-41 0 -71.5 -18.5t-46.5 -51.5
q-31 -63 -31 -139l22 -18q14 2 20 32zM556 -20q14 0 22 12.5t8 31.5q0 13 -3 23l-220 855q14 14 33 54.5t29 69.5q41 109 41 205q0 59 -14 115.5t-40 104.5q-28 49 -73 77t-100 28q-37 0 -37 -18v-264q0 -234 -7 -611q-8 -432 -8 -612v-31q0 -15 10 -24.5t25 -9.5
q37 0 37 41v30l-4 789q9 2 27 13l21 11q24 -90 53 -239q34 -172 40 -199q20 -96 84 -322q20 -70 25 -90q10 -40 51 -40zM259 1492h5q35 0 63 -31.5t44 -81.5q27 -92 27 -173q0 -46 -9.5 -103t-24.5 -85q-16 -28 -54.5 -66.5t-55.5 -38.5v578q3 0 5 1z" />
    <glyph glyph-name="S" unicode="S" horiz-adv-x="700" 
d="M262 1526q-46 -46 -68.5 -108t-22.5 -130q0 -99 30 -198q23 -75 53 -140.5t79 -159.5l28 -54q47 -91 75 -193.5t28 -202.5q0 -44 -10 -98t-30 -109q-21 -59 -58.5 -96t-83.5 -37q-20 0 -55 16q-37 15 -58 15q-22 0 -22 -25q14 -24 38 -35q23 -11 41.5 -13.5t55.5 -2.5
q61 0 113 36.5t83 96.5q29 57 44.5 120.5t15.5 121.5q0 94 -22 185q-17 72 -41 131.5t-66 144.5l-19 40q-39 79 -72 150q-35 73 -56 158t-21 166q0 48 15 94q16 51 52.5 86t82.5 35q15 0 34 -10q20 -11 33 -11t13 16q0 13 -17 26.5t-40 22.5t-38 9q-65 0 -114 -47z" />
    <glyph glyph-name="Sacute" unicode="&#x15a;" horiz-adv-x="700" 
d="M349.5 1848q10.5 -8 26.5 -8q151 129 256 176l6 31q0 32 -45 32q-7 -7 -76 -60q-77 -59 -122 -96q-56 -45 -56 -53q0 -14 10.5 -22zM262 1526q-46 -46 -68.5 -108t-22.5 -130q0 -99 30 -198q23 -75 53 -140.5t79 -159.5l28 -54q47 -91 75 -193.5t28 -202.5q0 -44 -10 -98
t-30 -109q-21 -59 -58.5 -96t-83.5 -37q-20 0 -55 16q-37 15 -58 15q-22 0 -22 -25q14 -24 38 -35q23 -11 41.5 -13.5t55.5 -2.5q61 0 113 36.5t83 96.5q29 57 44.5 120.5t15.5 121.5q0 94 -22 185q-17 72 -41 131.5t-66 144.5l-19 40q-39 79 -72 150q-35 73 -56 158
t-21 166q0 48 15 94q16 51 52.5 86t82.5 35q15 0 34 -10q20 -11 33 -11t13 16q0 13 -17 26.5t-40 22.5t-38 9q-65 0 -114 -47z" />
    <glyph glyph-name="Scaron" unicode="&#x160;" horiz-adv-x="700" 
d="M373 1741q-9 24 -31.5 88t-36.5 108q-16 49 -18 70l-35 47l-37 -27q1 -30 36.5 -116t76 -158t59.5 -72q29 0 29 43q0 38 9 76t28 90q15 45 24 74l-2 12l15 31l-2 10q8 18 8 23q0 18 -37 24l-27 -16q-11 -129 -59 -307zM262 1526q-46 -46 -68.5 -108t-22.5 -130
q0 -99 30 -198q23 -75 53 -140.5t79 -159.5l28 -54q47 -91 75 -193.5t28 -202.5q0 -44 -10 -98t-30 -109q-21 -59 -58.5 -96t-83.5 -37q-20 0 -55 16q-37 15 -58 15q-22 0 -22 -25q14 -24 38 -35q23 -11 41.5 -13.5t55.5 -2.5q61 0 113 36.5t83 96.5q29 57 44.5 120.5
t15.5 121.5q0 94 -22 185q-17 72 -41 131.5t-66 144.5l-19 40q-39 79 -72 150q-35 73 -56 158t-21 166q0 48 15 94q16 51 52.5 86t82.5 35q15 0 34 -10q20 -11 33 -11t13 16q0 13 -17 26.5t-40 22.5t-38 9q-65 0 -114 -47z" />
    <glyph glyph-name="Scedilla" unicode="&#x15e;" horiz-adv-x="700" 
d="M413.5 6q-39.5 -34 -87.5 -46q-6 -42 -6 -92q149 -11 149 -206q0 -32 -22 -70.5t-58 -65t-75 -26.5q-32 0 -60 15t-28 40q0 21 22 21q13 0 33 -10q22 -11 33 -11q35 0 57.5 43t22.5 100q0 67 -31 91q-9 0 -27 -3q-17 -4 -28 -4q-30 0 -56 41q17 40 17 117v15
q-28 0 -45.5 3t-38.5 13q-24 11 -38 35q0 25 22 25q21 0 58 -15q35 -16 55 -16q46 0 83.5 37t58.5 96q20 55 30 109t10 98q0 100 -28 202.5t-75 193.5l-28 54q-49 94 -79 159.5t-53 140.5q-30 99 -30 198q0 68 22.5 130t68.5 108q49 47 114 47q15 0 38 -9t40 -22.5t17 -26.5
q0 -16 -13 -16t-33 11q-19 10 -34 10q-46 0 -82.5 -35t-52.5 -86q-15 -46 -15 -94q0 -81 21 -166t56 -158q33 -71 72 -150l19 -40q42 -85 66 -144.5t41 -131.5q22 -91 22 -185q0 -58 -15.5 -121.5t-44.5 -120.5q-25 -48 -64.5 -82z" />
    <glyph glyph-name="Scircumflex" unicode="&#x15c;" horiz-adv-x="700" 
d="M506 1706q0 4 -8 22l2 11l-15 30l2 13q-9 29 -24 74q-19 51 -28 89t-9 76q0 43 -29 43q-19 0 -59.5 -72t-76 -158t-36.5 -116l37 -26l35 47q2 21 18 70q14 44 36.5 108t31.5 88q48 -178 59 -307l27 -17q37 6 37 25zM262 1526q-46 -46 -68.5 -108t-22.5 -130
q0 -99 30 -198q23 -75 53 -140.5t79 -159.5l28 -54q47 -91 75 -193.5t28 -202.5q0 -44 -10 -98t-30 -109q-21 -59 -58.5 -96t-83.5 -37q-20 0 -55 16q-37 15 -58 15q-22 0 -22 -25q14 -24 38 -35q23 -11 41.5 -13.5t55.5 -2.5q61 0 113 36.5t83 96.5q29 57 44.5 120.5
t15.5 121.5q0 94 -22 185q-17 72 -41 131.5t-66 144.5l-19 40q-39 79 -72 150q-35 73 -56 158t-21 166q0 48 15 94q16 51 52.5 86t82.5 35q15 0 34 -10q20 -11 33 -11t13 16q0 13 -17 26.5t-40 22.5t-38 9q-65 0 -114 -47z" />
    <glyph glyph-name="Scommaaccent" unicode="&#x218;" horiz-adv-x="700" 
d="M262 1526q-46 -46 -68.5 -108t-22.5 -130q0 -99 30 -198q23 -75 53 -140.5t79 -159.5l28 -54q47 -91 75 -193.5t28 -202.5q0 -44 -10 -98t-30 -109q-21 -59 -58.5 -96t-83.5 -37q-20 0 -55 16q-37 15 -58 15q-22 0 -22 -25q14 -24 38 -35q23 -11 41.5 -13.5t55.5 -2.5
q61 0 113 36.5t83 96.5q29 57 44.5 120.5t15.5 121.5q0 94 -22 185q-17 72 -41 131.5t-66 144.5l-19 40q-39 79 -72 150q-35 73 -56 158t-21 166q0 48 15 94q16 51 52.5 86t82.5 35q15 0 34 -10q20 -11 33 -11t13 16q0 13 -17 26.5t-40 22.5t-38 9q-65 0 -114 -47zM302 -456
q38 46 64 104.5t26 93.5q0 18 -4 25l4 6q-22 60 -68 60q-30 0 -54 -18.5t-24 -45.5q0 -25 17 -49.5t43 -40.5q0 -19 -6 -35q-8 -23 -44 -62q-13 -13 -30 -29t-27 -24l-4 -18l33 -16q34 1 74 49z" />
    <glyph glyph-name="uni1E60" unicode="&#x1e60;" horiz-adv-x="700" 
d="M320.5 1899.5q13.5 -15.5 31.5 -15.5q57 0 57 51q0 18 -15.5 35.5t-33.5 17.5q-20 0 -36.5 -17.5t-16.5 -37.5q0 -18 13.5 -33.5zM262 1526q-46 -46 -68.5 -108t-22.5 -130q0 -99 30 -198q23 -75 53 -140.5t79 -159.5l28 -54q47 -91 75 -193.5t28 -202.5q0 -44 -10 -98
t-30 -109q-21 -59 -58.5 -96t-83.5 -37q-20 0 -55 16q-37 15 -58 15q-22 0 -22 -25q14 -24 38 -35q23 -11 41.5 -13.5t55.5 -2.5q61 0 113 36.5t83 96.5q29 57 44.5 120.5t15.5 121.5q0 94 -22 185q-17 72 -41 131.5t-66 144.5l-19 40q-39 79 -72 150q-35 73 -56 158
t-21 166q0 48 15 94q16 51 52.5 86t82.5 35q15 0 34 -10q20 -11 33 -11t13 16q0 13 -17 26.5t-40 22.5t-38 9q-65 0 -114 -47z" />
    <glyph glyph-name="T" unicode="T" horiz-adv-x="720" 
d="M351 3q11 -15 31 -15q14 0 21 9q6 8 7.5 16.5t1.5 28.5v6l-1 151l-1 169v832v159l-1 119h-1l18 2l92 1h91q39 0 39 30q0 18 -9 26.5t-34 8.5l-225 -1l-205 -1q-52 0 -82 -5q-26 -6 -32.5 -12t-6.5 -22q0 -15 13 -23t30 -8h231q5 0 5 -221q0 -100 -1 -133l-1 -59
q0 -86 5 -328q5 -243 5 -327v-183q0 -146 -1 -183q0 -22 11 -37z" />
    <glyph glyph-name="Tbar" unicode="&#x166;" horiz-adv-x="720" 
d="M347 14.5q12 -26.5 31 -26.5q35 0 35 80q0 59 -5 237t-5 240q0 29 6 59q-12 44 -18 95q164 20 164 40q0 9 -10 16t-21 7q-43 0 -139 -8q-5 75 -5 198l2 124q1 55 1 124q0 137 -15 266q8 21 43 21q11 0 38 -3t38 -3q39 0 39 30q0 14 -13.5 24.5t-29.5 10.5q-55 0 -140 -9
t-148.5 -23t-63.5 -27q0 -15 13.5 -25t29.5 -10q20 0 58 6q37 6 58 6q35 0 35 -211q0 -100 -1 -133l-1 -59q0 -125 13 -311q-162 -16 -162 -35q0 -12 13.5 -20.5t29.5 -8.5q59 0 123 7q12 -192 12 -287q0 -52 -8 -172q-8 -113 -9 -164q0 -29 12 -55.5z" />
    <glyph glyph-name="Tcaron" unicode="&#x164;" horiz-adv-x="720" 
d="M383 1741q-9 24 -31.5 88t-36.5 108q-16 49 -18 70l-35 47l-37 -27q1 -30 36.5 -116t76 -158t59.5 -72q29 0 29 43q0 38 9 76t28 90q15 45 24 74l-2 12l15 31l-2 10q8 18 8 23q0 18 -37 24l-27 -16q-11 -129 -59 -307zM351 3q11 -15 31 -15q14 0 21 9q6 8 7.5 16.5
t1.5 28.5v6l-1 151l-1 169v832v159l-1 119h-1l18 2l92 1h91q39 0 39 30q0 18 -9 26.5t-34 8.5l-225 -1l-205 -1q-52 0 -82 -5q-26 -6 -32.5 -12t-6.5 -22q0 -15 13 -23t30 -8h231q5 0 5 -221q0 -100 -1 -133l-1 -59q0 -86 5 -328q5 -243 5 -327v-183q0 -146 -1 -183
q0 -22 11 -37z" />
    <glyph glyph-name="uni0162" unicode="&#x162;" horiz-adv-x="720" 
d="M639 1537.5q9 -8.5 9 -26.5q0 -30 -39 -30h-91l-92 -1l-18 -2h1l1 -119v-159v-832l1 -169l1 -151v-6q0 -14 -1 -24t-5 -17l22 3q-8 -50 -8 -103q149 -11 149 -206q0 -32 -22 -70.5t-58 -65t-75 -26.5q-32 0 -60 15t-28 40q0 21 22 21q13 0 33 -10q22 -11 33 -11
q35 0 57.5 43t22.5 100q0 67 -31 91q-9 0 -27 -3q-17 -4 -28 -4q-30 0 -56 41q17 40 17 117v17q-14 4 -21.5 18t-7.5 32q1 37 1 183v183q0 84 -5 327q-5 242 -5 328l1 59q1 33 1 133q0 221 -5 221h-231q-17 0 -30 8t-13 23q0 16 6.5 22t32.5 12q30 5 82 5l205 1l225 1
q25 0 34 -8.5z" />
    <glyph glyph-name="uni021A" unicode="&#x21a;" horiz-adv-x="720" 
d="M351 3q11 -15 31 -15q14 0 21 9q6 8 7.5 16.5t1.5 28.5v6l-1 151l-1 169v832v159l-1 119h-1l18 2l92 1h91q39 0 39 30q0 18 -9 26.5t-34 8.5l-225 -1l-205 -1q-52 0 -82 -5q-26 -6 -32.5 -12t-6.5 -22q0 -15 13 -23t30 -8h231q5 0 5 -221q0 -100 -1 -133l-1 -59
q0 -86 5 -328q5 -243 5 -327v-183q0 -146 -1 -183q0 -22 11 -37zM402 -423q38 46 64 104.5t26 93.5q0 18 -4 25l4 6q-22 60 -68 60q-30 0 -54 -18.5t-24 -45.5q0 -25 17 -49.5t43 -40.5q0 -19 -6 -35q-8 -23 -44 -62q-13 -13 -30 -29t-27 -24l-4 -18l33 -16q34 1 74 49z" />
    <glyph glyph-name="uni1E6A" unicode="&#x1e6a;" horiz-adv-x="720" 
d="M330.5 1899.5q13.5 -15.5 31.5 -15.5q57 0 57 51q0 18 -15.5 35.5t-33.5 17.5q-20 0 -36.5 -17.5t-16.5 -37.5q0 -18 13.5 -33.5zM351 3q11 -15 31 -15q14 0 21 9q6 8 7.5 16.5t1.5 28.5v6l-1 151l-1 169v832v159l-1 119h-1l18 2l92 1h91q39 0 39 30q0 18 -9 26.5
t-34 8.5l-225 -1l-205 -1q-52 0 -82 -5q-26 -6 -32.5 -12t-6.5 -22q0 -15 13 -23t30 -8h231q5 0 5 -221q0 -100 -1 -133l-1 -59q0 -86 5 -328q5 -243 5 -327v-183q0 -146 -1 -183q0 -22 11 -37z" />
    <glyph glyph-name="U" unicode="U" horiz-adv-x="860" 
d="M199 439q2 -42 4 -65q3 -35 11 -85t19 -89q12 -45 33 -90t47 -76q27 -33 68 -53t88 -20q48 0 86 23q36 22 57 55.5t34 83.5q12 45 16 84t4 88q0 113 -3 339q-4 201 -4 349v184q-1 82 -1 185v155q0 22 -11.5 35t-28.5 13t-28.5 -13t-11.5 -35q0 -46 5 -174q4 -103 4 -174
l9 -262q9 -253 9 -383v-233q0 -28 -2 -68q-3 -35 -12 -70.5t-23 -57.5q-16 -26 -43.5 -42t-62.5 -16q-38 0 -70 32q-31 30 -51 72.5t-36 105.5q-26 96 -34 185q-15 142 -29 466t-14 564q0 9 1 16v15q0 25 -9 37t-33 12q-32 0 -32 -53q0 -10 1 -17v-14q0 -192 15.5 -535
t25.5 -440z" />
    <glyph glyph-name="Uacute" unicode="&#xda;" horiz-adv-x="860" 
d="M291.5 1848q10.5 -8 26.5 -8q151 129 256 176l6 31q0 32 -45 32q-7 -7 -76 -60q-77 -59 -122 -96q-56 -45 -56 -53q0 -14 10.5 -22zM199 439q2 -42 4 -65q3 -35 11 -85t19 -89q12 -45 33 -90t47 -76q27 -33 68 -53t88 -20q48 0 86 23q36 22 57 55.5t34 83.5q12 45 16 84
t4 88q0 113 -3 339q-4 201 -4 349v184q-1 82 -1 185v155q0 22 -11.5 35t-28.5 13t-28.5 -13t-11.5 -35q0 -46 5 -174q4 -103 4 -174l9 -262q9 -253 9 -383v-233q0 -28 -2 -68q-3 -35 -12 -70.5t-23 -57.5q-16 -26 -43.5 -42t-62.5 -16q-38 0 -70 32q-31 30 -51 72.5
t-36 105.5q-26 96 -34 185q-15 142 -29 466t-14 564q0 9 1 16v15q0 25 -9 37t-33 12q-32 0 -32 -53q0 -10 1 -17v-14q0 -192 15.5 -535t25.5 -440z" />
    <glyph glyph-name="Ubreve" unicode="&#x16c;" horiz-adv-x="860" 
d="M312 1802q16 -33 46.5 -51.5t71.5 -18.5q26 0 44 7q21 7 32.5 14t22.5 24q11 16 17.5 29t15.5 34q6 15 10 23l6 12l-5 15l6 15q5 13 5 17q0 12 -9.5 20.5t-21.5 8.5q-37 0 -37 -39q0 -8 1 -14q1 -7 1 -15q0 -20 -10 -44.5t-26.5 -42t-33.5 -17.5h-51l-22 16
q-22 16 -33 50.5t-19 81.5q-6 30 -20 32l-22 -18q0 -76 31 -139zM199 439q2 -42 4 -65q3 -35 11 -85t19 -89q12 -45 33 -90t47 -76q27 -33 68 -53t88 -20q48 0 86 23q36 22 57 55.5t34 83.5q12 45 16 84t4 88q0 113 -3 339q-4 201 -4 349v184q-1 82 -1 185v155
q0 22 -11.5 35t-28.5 13t-28.5 -13t-11.5 -35q0 -46 5 -174q4 -103 4 -174l9 -262q9 -253 9 -383v-233q0 -28 -2 -68q-3 -35 -12 -70.5t-23 -57.5q-16 -26 -43.5 -42t-62.5 -16q-38 0 -70 32q-31 30 -51 72.5t-36 105.5q-26 96 -34 185q-15 142 -29 466t-14 564q0 9 1 16v15
q0 25 -9 37t-33 12q-32 0 -32 -53q0 -10 1 -17v-14q0 -192 15.5 -535t25.5 -440z" />
    <glyph glyph-name="uni01D3" unicode="&#x1d3;" horiz-adv-x="860" 
d="M413 1741q-9 24 -31.5 88t-36.5 108q-16 49 -18 70l-35 47l-37 -27q1 -30 36.5 -116t76 -158t59.5 -72q29 0 29 43q0 38 9 76t28 90q15 45 24 74l-2 12l15 31l-2 10q8 18 8 23q0 18 -37 24l-27 -16q-11 -129 -59 -307zM199 439q2 -42 4 -65q3 -35 11 -85t19 -89
q12 -45 33 -90t47 -76q27 -33 68 -53t88 -20q48 0 86 23q36 22 57 55.5t34 83.5q12 45 16 84t4 88q0 113 -3 339q-4 201 -4 349v184q-1 82 -1 185v155q0 22 -11.5 35t-28.5 13t-28.5 -13t-11.5 -35q0 -46 5 -174q4 -103 4 -174l9 -262q9 -253 9 -383v-233q0 -28 -2 -68
q-3 -35 -12 -70.5t-23 -57.5q-16 -26 -43.5 -42t-62.5 -16q-38 0 -70 32q-31 30 -51 72.5t-36 105.5q-26 96 -34 185q-15 142 -29 466t-14 564q0 9 1 16v15q0 25 -9 37t-33 12q-32 0 -32 -53q0 -10 1 -17v-14q0 -192 15.5 -535t25.5 -440z" />
    <glyph glyph-name="Ucircumflex" unicode="&#xdb;" horiz-adv-x="860" 
d="M546 1706q0 4 -8 22l2 11l-15 30l2 13q-9 29 -24 74q-19 51 -28 89t-9 76q0 43 -29 43q-19 0 -59.5 -72t-76 -158t-36.5 -116l37 -26l35 47q2 21 18 70q14 44 36.5 108t31.5 88q48 -178 59 -307l27 -17q37 6 37 25zM199 439q2 -42 4 -65q3 -35 11 -85t19 -89
q12 -45 33 -90t47 -76q27 -33 68 -53t88 -20q48 0 86 23q36 22 57 55.5t34 83.5q12 45 16 84t4 88q0 113 -3 339q-4 201 -4 349v184q-1 82 -1 185v155q0 22 -11.5 35t-28.5 13t-28.5 -13t-11.5 -35q0 -46 5 -174q4 -103 4 -174l9 -262q9 -253 9 -383v-233q0 -28 -2 -68
q-3 -35 -12 -70.5t-23 -57.5q-16 -26 -43.5 -42t-62.5 -16q-38 0 -70 32q-31 30 -51 72.5t-36 105.5q-26 96 -34 185q-15 142 -29 466t-14 564q0 9 1 16v15q0 25 -9 37t-33 12q-32 0 -32 -53q0 -10 1 -17v-14q0 -192 15.5 -535t25.5 -440z" />
    <glyph glyph-name="uni0214" unicode="&#x214;" horiz-adv-x="860" 
d="M469.5 1971q-79.5 68 -164 131.5t-95.5 63.5q-4 0 -13 -11t-9 -20q0 -13 13 -20q147 -118 186 -145q23 -10 71 -46q51 -38 85 -45l9 11q-3 13 -82.5 81zM58 2091q-105 60 -115 60q-11 0 -25 -17t-17 -33l107 -60q33 -14 110 -55q3 -1 27 -16l23 -15q35 -24 74 -48
q34 -22 42 -22q11 0 11 15t-97 90q-106 80 -140 101zM199 439q2 -42 4 -65q3 -35 11 -85t19 -89q12 -45 33 -90t47 -76q27 -33 68 -53t88 -20q48 0 86 23q36 22 57 55.5t34 83.5q12 45 16 84t4 88q0 113 -3 339q-4 201 -4 349v184q-1 82 -1 185v155q0 22 -11.5 35t-28.5 13
t-28.5 -13t-11.5 -35q0 -46 5 -174q4 -103 4 -174l9 -262q9 -253 9 -383v-233q0 -28 -2 -68q-3 -35 -12 -70.5t-23 -57.5q-16 -26 -43.5 -42t-62.5 -16q-38 0 -70 32q-31 30 -51 72.5t-36 105.5q-26 96 -34 185q-15 142 -29 466t-14 564q0 9 1 16v15q0 25 -9 37t-33 12
q-32 0 -32 -53q0 -10 1 -17v-14q0 -192 15.5 -535t25.5 -440z" />
    <glyph glyph-name="Udieresis" unicode="&#xdc;" horiz-adv-x="860" 
d="M606 1834.5q13 -14.5 28 -14.5q54 0 54 47q0 16 -14 32.5t-31 16.5q-19 0 -34.5 -16t-15.5 -35q0 -16 13 -30.5zM144.5 1828q11.5 -16 27.5 -16q20 0 35.5 9.5t15.5 25.5q0 28 -10.5 47.5t-30.5 19.5q-18 0 -33.5 -16.5t-15.5 -34.5q0 -19 11.5 -35zM199 439q2 -42 4 -65
q3 -35 11 -85t19 -89q12 -45 33 -90t47 -76q27 -33 68 -53t88 -20q48 0 86 23q36 22 57 55.5t34 83.5q12 45 16 84t4 88q0 113 -3 339q-4 201 -4 349v184q-1 82 -1 185v155q0 22 -11.5 35t-28.5 13t-28.5 -13t-11.5 -35q0 -46 5 -174q4 -103 4 -174l9 -262q9 -253 9 -383
v-233q0 -28 -2 -68q-3 -35 -12 -70.5t-23 -57.5q-16 -26 -43.5 -42t-62.5 -16q-38 0 -70 32q-31 30 -51 72.5t-36 105.5q-26 96 -34 185q-15 142 -29 466t-14 564q0 9 1 16v15q0 25 -9 37t-33 12q-32 0 -32 -53q0 -10 1 -17v-14q0 -192 15.5 -535t25.5 -440z" />
    <glyph glyph-name="Ugrave" unicode="&#xd9;" horiz-adv-x="860" 
d="M314.5 1911.5q97.5 -34.5 101.5 -34.5q7 0 15.5 5.5t8.5 11.5q0 17 -39 39q-34 19 -84 39q-54 21 -81 30q-10 3 -16.5 5t-8.5 3q-18 23 -79 23h-13q-13 -9 -13 -45q0 -41 70 -41q16 0 33 4q8 -5 105.5 -39.5zM199 439q2 -42 4 -65q3 -35 11 -85t19 -89q12 -45 33 -90
t47 -76q27 -33 68 -53t88 -20q48 0 86 23q36 22 57 55.5t34 83.5q12 45 16 84t4 88q0 113 -3 339q-4 201 -4 349v184q-1 82 -1 185v155q0 22 -11.5 35t-28.5 13t-28.5 -13t-11.5 -35q0 -46 5 -174q4 -103 4 -174l9 -262q9 -253 9 -383v-233q0 -28 -2 -68q-3 -35 -12 -70.5
t-23 -57.5q-16 -26 -43.5 -42t-62.5 -16q-38 0 -70 32q-31 30 -51 72.5t-36 105.5q-26 96 -34 185q-15 142 -29 466t-14 564q0 9 1 16v15q0 25 -9 37t-33 12q-32 0 -32 -53q0 -10 1 -17v-14q0 -192 15.5 -535t25.5 -440z" />
    <glyph glyph-name="Uhungarumlaut" unicode="&#x170;" horiz-adv-x="860" 
d="M188 1815q46 35 70 46q29 19 202 151q14 8 14 20q0 9 -9.5 20t-13.5 11q-12 0 -100 -65t-171.5 -134t-86.5 -83l10 -11q34 7 85 45zM412 1776q8 0 46 23q49 30 82 51q45 30 53 33q89 47 111 55l106 60q-3 16 -17 33t-25 17q-9 0 -114 -60q-62 -39 -157.5 -111t-95.5 -86
q0 -15 11 -15zM199 439q2 -42 4 -65q3 -35 11 -85t19 -89q12 -45 33 -90t47 -76q27 -33 68 -53t88 -20q48 0 86 23q36 22 57 55.5t34 83.5q12 45 16 84t4 88q0 113 -3 339q-4 201 -4 349v184q-1 82 -1 185v155q0 22 -11.5 35t-28.5 13t-28.5 -13t-11.5 -35q0 -46 5 -174
q4 -103 4 -174l9 -262q9 -253 9 -383v-233q0 -28 -2 -68q-3 -35 -12 -70.5t-23 -57.5q-16 -26 -43.5 -42t-62.5 -16q-38 0 -70 32q-31 30 -51 72.5t-36 105.5q-26 96 -34 185q-15 142 -29 466t-14 564q0 9 1 16v15q0 25 -9 37t-33 12q-32 0 -32 -53q0 -10 1 -17v-14
q0 -192 15.5 -535t25.5 -440z" />
    <glyph glyph-name="uni0216" unicode="&#x216;" horiz-adv-x="860" 
d="M313 1853q8 47 19 81.5t33 50.5l22 16h51q17 0 33.5 -17.5t26.5 -42t10 -44.5q0 -8 -1 -14q-1 -7 -1 -15q0 -39 37 -39q12 0 21.5 8.5t9.5 20.5q0 4 -5 17l-6 15l5 15q-2 4 -6 12.5t-10 23.5t-10 23l-6 12q-22 42 -41 52q-36 20 -75 20q-41 0 -71.5 -18.5t-46.5 -51.5
q-31 -63 -31 -139l22 -18q14 2 20 32zM199 439q2 -42 4 -65q3 -35 11 -85t19 -89q12 -45 33 -90t47 -76q27 -33 68 -53t88 -20q48 0 86 23q36 22 57 55.5t34 83.5q12 45 16 84t4 88q0 113 -3 339q-4 201 -4 349v184q-1 82 -1 185v155q0 22 -11.5 35t-28.5 13t-28.5 -13
t-11.5 -35q0 -46 5 -174q4 -103 4 -174l9 -262q9 -253 9 -383v-233q0 -28 -2 -68q-3 -35 -12 -70.5t-23 -57.5q-16 -26 -43.5 -42t-62.5 -16q-38 0 -70 32q-31 30 -51 72.5t-36 105.5q-26 96 -34 185q-15 142 -29 466t-14 564q0 9 1 16v15q0 25 -9 37t-33 12q-32 0 -32 -53
q0 -10 1 -17v-14q0 -192 15.5 -535t25.5 -440z" />
    <glyph glyph-name="Umacron" unicode="&#x16a;" horiz-adv-x="860" 
d="M634 1870q-10 7 -34 10q-23 3 -46 3.5t-58 0.5h-116q-129 0 -131 -17q0 -7 5 -14q6 -8 39 -15q19 -4 65 -4h40h115q129 0 131 17q0 12 -10 19zM199 439q2 -42 4 -65q3 -35 11 -85t19 -89q12 -45 33 -90t47 -76q27 -33 68 -53t88 -20q48 0 86 23q36 22 57 55.5t34 83.5
q12 45 16 84t4 88q0 113 -3 339q-4 201 -4 349v184q-1 82 -1 185v155q0 22 -11.5 35t-28.5 13t-28.5 -13t-11.5 -35q0 -46 5 -174q4 -103 4 -174l9 -262q9 -253 9 -383v-233q0 -28 -2 -68q-3 -35 -12 -70.5t-23 -57.5q-16 -26 -43.5 -42t-62.5 -16q-38 0 -70 32
q-31 30 -51 72.5t-36 105.5q-26 96 -34 185q-15 142 -29 466t-14 564q0 9 1 16v15q0 25 -9 37t-33 12q-32 0 -32 -53q0 -10 1 -17v-14q0 -192 15.5 -535t25.5 -440z" />
    <glyph glyph-name="Uogonek" unicode="&#x172;" horiz-adv-x="860" 
d="M666 295q0 -49 -4 -88t-16 -84q-13 -50 -34 -83.5t-57 -55.5q-27 -17 -58 -21q-38 -53 -58 -104q-18 -43 -18 -79q0 -22 -4 -47l-1 -20q-1 -10 -1 -23q0 -27 22.5 -55.5t46.5 -28.5q11 0 33 11q20 10 33 10q22 0 22 -21q0 -25 -28 -40t-60 -15q-39 0 -75 26.5t-58 65
t-22 70.5q0 47 14 96.5t36 88.5q27 45 44 68q-33 8 -61.5 26t-48.5 42q-26 31 -47 76t-33 90q-11 39 -19 89t-11 85q-2 23 -4 65l-2 34q-10 97 -25.5 440t-15.5 535v14q-1 7 -1 17q0 53 32 53q24 0 33 -12t9 -37v-15q-1 -7 -1 -16q0 -240 14 -564t29 -466q8 -89 34 -185
q16 -63 36 -105.5t51 -72.5q32 -32 70 -32q35 0 62.5 16t43.5 42q14 22 23 57.5t12 70.5q2 40 2 68v233q0 130 -9 383l-9 262q0 71 -4 174q-5 128 -5 174q0 22 11.5 35t28.5 13t28.5 -13t11.5 -35v-155q0 -103 1 -185v-184q0 -148 4 -349q3 -226 3 -339z" />
    <glyph glyph-name="Uring" unicode="&#x16e;" horiz-adv-x="860" 
d="M305 1844q14 -25 37 -40.5t49 -15.5q59 0 95 30.5t36 86.5q0 25 -17 53t-43.5 46.5t-51.5 18.5q-29 0 -56.5 -19t-45 -48.5t-17.5 -59.5q0 -27 14 -52zM361.5 1959q23.5 25 48.5 25q28 0 43.5 -30t15.5 -70q0 -22 -29.5 -39.5t-56.5 -17.5q-19 0 -29 16q-10 14 -13 28.5
t-3 35.5q0 27 23.5 52zM199 439q2 -42 4 -65q3 -35 11 -85t19 -89q12 -45 33 -90t47 -76q27 -33 68 -53t88 -20q48 0 86 23q36 22 57 55.5t34 83.5q12 45 16 84t4 88q0 113 -3 339q-4 201 -4 349v184q-1 82 -1 185v155q0 22 -11.5 35t-28.5 13t-28.5 -13t-11.5 -35
q0 -46 5 -174q4 -103 4 -174l9 -262q9 -253 9 -383v-233q0 -28 -2 -68q-3 -35 -12 -70.5t-23 -57.5q-16 -26 -43.5 -42t-62.5 -16q-38 0 -70 32q-31 30 -51 72.5t-36 105.5q-26 96 -34 185q-15 142 -29 466t-14 564q0 9 1 16v15q0 25 -9 37t-33 12q-32 0 -32 -53
q0 -10 1 -17v-14q0 -192 15.5 -535t25.5 -440z" />
    <glyph glyph-name="Utilde" unicode="&#x168;" horiz-adv-x="860" 
d="M186 1762.5q13 -11.5 26 -11.5l22 31q-10 33 -10 43q0 23 23 39t53 16l14 -6q33 -39 52 -58q22 -23 59 -43t71 -20q28 0 53 15t40.5 40t15.5 53q0 29 -12 49.5t-35 20.5q-15 0 -21 -12q2 -8 7 -18q5 -15 5 -21q0 -73 -53 -73q-30 0 -66 24.5t-51 54.5q-36 42 -87 42
q-50 0 -84.5 -39t-34.5 -103q0 -12 13 -23.5zM199 439q2 -42 4 -65q3 -35 11 -85t19 -89q12 -45 33 -90t47 -76q27 -33 68 -53t88 -20q48 0 86 23q36 22 57 55.5t34 83.5q12 45 16 84t4 88q0 113 -3 339q-4 201 -4 349v184q-1 82 -1 185v155q0 22 -11.5 35t-28.5 13
t-28.5 -13t-11.5 -35q0 -46 5 -174q4 -103 4 -174l9 -262q9 -253 9 -383v-233q0 -28 -2 -68q-3 -35 -12 -70.5t-23 -57.5q-16 -26 -43.5 -42t-62.5 -16q-38 0 -70 32q-31 30 -51 72.5t-36 105.5q-26 96 -34 185q-15 142 -29 466t-14 564q0 9 1 16v15q0 25 -9 37t-33 12
q-32 0 -32 -53q0 -10 1 -17v-14q0 -192 15.5 -535t25.5 -440z" />
    <glyph glyph-name="V" unicode="V" horiz-adv-x="740" 
d="M545 947q-33 -275 -65.5 -570.5t-33.5 -349.5q-16 -45 -39 -45q-3 0 -9 2l-22 6q-34 139 -82 452l-112 732l-20 89q-44 184 -44 249q0 14 9 25t20 11q8 0 14 -3q9 -4 18 -23q6 -13 9 -31l4 -29q9 -48 46 -265l103 -704l27 -194l26 -187q9 86 14 146l23 236q13 115 49 449
l30 288l7 67q3 25 15 103q12 83 14 115q3 38 39 38l12 -8h-4l21 -16q0 -62 -17 -175l-12 -79q-9 -65 -40 -329zM390 101h7l-3 5z" />
    <glyph glyph-name="W" unicode="W" horiz-adv-x="960" 
d="M322 -27q-39 0 -39 46q0 13 1 23t1 22v10q-6 50 -37 248l-18 112q-7 45 -39 320q-32 278 -63 505q-31 231 -45 254q6 11 18.5 19t24.5 8q31 0 42 -11t11 -36v-18q-1 -9 -1 -21q0 -17 1 -22q56 -601 133 -1253h4q8 57 24 325q18 284 22 334q5 63 24 180q20 118 24 166
l7 93l3 42q2 26 2 27q0 5 1 13t2 13q0 3 3.5 7t8.5 7q15 0 23.5 -3t13.5 -11t7 -14t4 -17l3 -18q21 -106 88.5 -564t81.5 -603l6 -4l76 829q6 84 26 246q21 179 21 276q0 11 -1 20t-1 19q0 25 11.5 37t41.5 12q13 0 26 -10t13 -22q0 -21 -22 -39q2 -6 2 -13q0 -10 -4 -26.5
t-4 -18.5q-21 -165 -55 -543q-34 -363 -42 -423q-8 -89 -17 -162l-23 -208q-1 -10 -4 -38q-7 -55 -7 -65q0 -26 -7.5 -38t-29.5 -12q-32 0 -39 25q-6 19 -7 57l-3 31q-60 399 -148 1123l-6 4l-1 -2l-1 -2q-80 -888 -102 -1119v-36q0 -81 -35 -81z" />
    <glyph glyph-name="Wacute" unicode="&#x1e82;" horiz-adv-x="960" 
d="M361.5 1848q10.5 -8 26.5 -8q151 129 256 176l6 31q0 32 -45 32q-7 -7 -76 -60q-77 -59 -122 -96q-56 -45 -56 -53q0 -14 10.5 -22zM322 -27q-39 0 -39 46q0 13 1 23t1 22v10q-6 50 -37 248l-18 112q-7 45 -39 320q-32 278 -63 505q-31 231 -45 254q6 11 18.5 19t24.5 8
q31 0 42 -11t11 -36v-18q-1 -9 -1 -21q0 -17 1 -22q56 -601 133 -1253h4q8 57 24 325q18 284 22 334q5 63 24 180q20 118 24 166l7 93l3 42q2 26 2 27q0 5 1 13t2 13q0 3 3.5 7t8.5 7q15 0 23.5 -3t13.5 -11t7 -14t4 -17l3 -18q21 -106 88.5 -564t81.5 -603l6 -4l76 829
q6 84 26 246q21 179 21 276q0 11 -1 20t-1 19q0 25 11.5 37t41.5 12q13 0 26 -10t13 -22q0 -21 -22 -39q2 -6 2 -13q0 -10 -4 -26.5t-4 -18.5q-21 -165 -55 -543q-34 -363 -42 -423q-8 -89 -17 -162l-23 -208q-1 -10 -4 -38q-7 -55 -7 -65q0 -26 -7.5 -38t-29.5 -12
q-32 0 -39 25q-6 19 -7 57l-3 31q-60 399 -148 1123l-6 4l-1 -2l-1 -2q-80 -888 -102 -1119v-36q0 -81 -35 -81z" />
    <glyph glyph-name="Wcircumflex" unicode="&#x174;" horiz-adv-x="960" 
d="M616 1706q0 4 -8 22l2 11l-15 30l2 13q-9 29 -24 74q-19 51 -28 89t-9 76q0 43 -29 43q-19 0 -59.5 -72t-76 -158t-36.5 -116l37 -26l35 47q2 21 18 70q14 44 36.5 108t31.5 88q48 -178 59 -307l27 -17q37 6 37 25zM322 -27q-39 0 -39 46q0 13 1 23t1 22v10
q-6 50 -37 248l-18 112q-7 45 -39 320q-32 278 -63 505q-31 231 -45 254q6 11 18.5 19t24.5 8q31 0 42 -11t11 -36v-18q-1 -9 -1 -21q0 -17 1 -22q56 -601 133 -1253h4q8 57 24 325q18 284 22 334q5 63 24 180q20 118 24 166l7 93l3 42q2 26 2 27q0 5 1 13t2 13q0 3 3.5 7
t8.5 7q15 0 23.5 -3t13.5 -11t7 -14t4 -17l3 -18q21 -106 88.5 -564t81.5 -603l6 -4l76 829q6 84 26 246q21 179 21 276q0 11 -1 20t-1 19q0 25 11.5 37t41.5 12q13 0 26 -10t13 -22q0 -21 -22 -39q2 -6 2 -13q0 -10 -4 -26.5t-4 -18.5q-21 -165 -55 -543q-34 -363 -42 -423
q-8 -89 -17 -162l-23 -208q-1 -10 -4 -38q-7 -55 -7 -65q0 -26 -7.5 -38t-29.5 -12q-32 0 -39 25q-6 19 -7 57l-3 31q-60 399 -148 1123l-6 4l-1 -2l-1 -2q-80 -888 -102 -1119v-36q0 -81 -35 -81z" />
    <glyph glyph-name="Wdieresis" unicode="&#x1e84;" horiz-adv-x="960" 
d="M676 1834.5q13 -14.5 28 -14.5q54 0 54 47q0 16 -14 32.5t-31 16.5q-19 0 -34.5 -16t-15.5 -35q0 -16 13 -30.5zM214.5 1828q11.5 -16 27.5 -16q20 0 35.5 9.5t15.5 25.5q0 28 -10.5 47.5t-30.5 19.5q-18 0 -33.5 -16.5t-15.5 -34.5q0 -19 11.5 -35zM322 -27
q-39 0 -39 46q0 13 1 23t1 22v10q-6 50 -37 248l-18 112q-7 45 -39 320q-32 278 -63 505q-31 231 -45 254q6 11 18.5 19t24.5 8q31 0 42 -11t11 -36v-18q-1 -9 -1 -21q0 -17 1 -22q56 -601 133 -1253h4q8 57 24 325q18 284 22 334q5 63 24 180q20 118 24 166l7 93l3 42
q2 26 2 27q0 5 1 13t2 13q0 3 3.5 7t8.5 7q15 0 23.5 -3t13.5 -11t7 -14t4 -17l3 -18q21 -106 88.5 -564t81.5 -603l6 -4l76 829q6 84 26 246q21 179 21 276q0 11 -1 20t-1 19q0 25 11.5 37t41.5 12q13 0 26 -10t13 -22q0 -21 -22 -39q2 -6 2 -13q0 -10 -4 -26.5t-4 -18.5
q-21 -165 -55 -543q-34 -363 -42 -423q-8 -89 -17 -162l-23 -208q-1 -10 -4 -38q-7 -55 -7 -65q0 -26 -7.5 -38t-29.5 -12q-32 0 -39 25q-6 19 -7 57l-3 31q-60 399 -148 1123l-6 4l-1 -2l-1 -2q-80 -888 -102 -1119v-36q0 -81 -35 -81z" />
    <glyph glyph-name="Wgrave" unicode="&#x1e80;" horiz-adv-x="960" 
d="M384.5 1911.5q97.5 -34.5 101.5 -34.5q7 0 15.5 5.5t8.5 11.5q0 17 -39 39q-34 19 -84 39q-54 21 -81 30q-10 3 -16.5 5t-8.5 3q-18 23 -79 23h-13q-13 -9 -13 -45q0 -41 70 -41q16 0 33 4q8 -5 105.5 -39.5zM322 -27q-39 0 -39 46q0 13 1 23t1 22v10q-6 50 -37 248
l-18 112q-7 45 -39 320q-32 278 -63 505q-31 231 -45 254q6 11 18.5 19t24.5 8q31 0 42 -11t11 -36v-18q-1 -9 -1 -21q0 -17 1 -22q56 -601 133 -1253h4q8 57 24 325q18 284 22 334q5 63 24 180q20 118 24 166l7 93l3 42q2 26 2 27q0 5 1 13t2 13q0 3 3.5 7t8.5 7
q15 0 23.5 -3t13.5 -11t7 -14t4 -17l3 -18q21 -106 88.5 -564t81.5 -603l6 -4l76 829q6 84 26 246q21 179 21 276q0 11 -1 20t-1 19q0 25 11.5 37t41.5 12q13 0 26 -10t13 -22q0 -21 -22 -39q2 -6 2 -13q0 -10 -4 -26.5t-4 -18.5q-21 -165 -55 -543q-34 -363 -42 -423
q-8 -89 -17 -162l-23 -208q-1 -10 -4 -38q-7 -55 -7 -65q0 -26 -7.5 -38t-29.5 -12q-32 0 -39 25q-6 19 -7 57l-3 31q-60 399 -148 1123l-6 4l-1 -2l-1 -2q-80 -888 -102 -1119v-36q0 -81 -35 -81z" />
    <glyph glyph-name="X" unicode="X" horiz-adv-x="680" 
d="M150 -4q11 -8 20 -8q5 0 15 2q2 1 9 3t11 9q7 12 9 20q3 10 5 26l2 13q14 79 65.5 316.5t59.5 251.5q17 -66 73 -350l10 -54l10 -59q11 -66 11 -113q0 -12 6 -18t11.5 -7t19.5 -1q33 0 33 43q0 18 -4 39l-5 25l-22 104l-108 553q0 23 3 48q4 43 17 112q4 27 10.5 59
t10.5 51q57 293 84 387q3 10 14 35q12 30 12 47q0 22 -37 22q-13 0 -23.5 -13.5t-16.5 -37.5q-11 -39 -17 -90q-3 -29 -4 -31q-69 -376 -80 -458q-13 79 -51 267q-37 176 -49 245q0 -1 -2 27q-1 8 -1 15.5t-1 14.5q-2 12 -12 21.5t-27 9.5t-33 -27q2 -41 24 -113
q23 -75 27 -94q9 -43 33 -142q26 -111 37.5 -184t11.5 -141q0 -14 -2 -48q-4 -45 -16 -105l-21 -103q-35 -166 -95 -395q-38 -135 -38 -158q0 -8 11 -16z" />
    <glyph glyph-name="Y" unicode="Y" horiz-adv-x="620" 
d="M332.5 -9.5q7.5 -15.5 21.5 -15.5q21 0 33 17.5t12 42.5q0 4 -1 7t-1 7l-6 6q4 121 4 414q0 46 -7 123q-8 88 -8 123v16l13 31q0 12 -3 34q-3 23 -3 33q0 66 8.5 151.5t18.5 148.5q16 96 54 305q2 13 9 40q8 30 8 44q0 11 -5 16q-4 4 -8.5 5t-9.5 1h-8q-34 0 -60 -135
q-27 -141 -41 -298q-17 -168 -20 -177q-17 23 -46 145t-54 260.5t-29 194.5l-24 16q-17 0 -29 -9t-12 -24q0 -35 30 -133q17 -59 32 -126.5t36 -174.5l27 -141q1 -3 3 -13.5t8 -32.5q21 -89 21 -116q0 -33 13 -94q12 -63 12 -96q0 -31 7 -83t7 -83q0 -51 -5 -198t-5 -197
q0 -19 7.5 -34.5z" />
    <glyph glyph-name="Yacute" unicode="&#xdd;" horiz-adv-x="620" 
d="M211.5 1848q10.5 -8 26.5 -8q151 129 256 176l6 31q0 32 -45 32q-7 -7 -76 -60q-77 -59 -122 -96q-56 -45 -56 -53q0 -14 10.5 -22zM332.5 -9.5q7.5 -15.5 21.5 -15.5q21 0 33 17.5t12 42.5q0 4 -1 7t-1 7l-6 6q4 121 4 414q0 46 -7 123q-8 88 -8 123v16l13 31
q0 12 -3 34q-3 23 -3 33q0 66 8.5 151.5t18.5 148.5q16 96 54 305q2 13 9 40q8 30 8 44q0 11 -5 16q-4 4 -8.5 5t-9.5 1h-8q-34 0 -60 -135q-27 -141 -41 -298q-17 -168 -20 -177q-17 23 -46 145t-54 260.5t-29 194.5l-24 16q-17 0 -29 -9t-12 -24q0 -35 30 -133
q17 -59 32 -126.5t36 -174.5l27 -141q1 -3 3 -13.5t8 -32.5q21 -89 21 -116q0 -33 13 -94q12 -63 12 -96q0 -31 7 -83t7 -83q0 -51 -5 -198t-5 -197q0 -19 7.5 -34.5z" />
    <glyph glyph-name="Ycircumflex" unicode="&#x176;" horiz-adv-x="620" 
d="M466 1706q0 4 -8 22l2 11l-15 30l2 13q-9 29 -24 74q-19 51 -28 89t-9 76q0 43 -29 43q-19 0 -59.5 -72t-76 -158t-36.5 -116l37 -26l35 47q2 21 18 70q14 44 36.5 108t31.5 88q48 -178 59 -307l27 -17q37 6 37 25zM332.5 -9.5q7.5 -15.5 21.5 -15.5q21 0 33 17.5
t12 42.5q0 4 -1 7t-1 7l-6 6q4 121 4 414q0 46 -7 123q-8 88 -8 123v16l13 31q0 12 -3 34q-3 23 -3 33q0 66 8.5 151.5t18.5 148.5q16 96 54 305q2 13 9 40q8 30 8 44q0 11 -5 16q-4 4 -8.5 5t-9.5 1h-8q-34 0 -60 -135q-27 -141 -41 -298q-17 -168 -20 -177q-17 23 -46 145
t-54 260.5t-29 194.5l-24 16q-17 0 -29 -9t-12 -24q0 -35 30 -133q17 -59 32 -126.5t36 -174.5l27 -141q1 -3 3 -13.5t8 -32.5q21 -89 21 -116q0 -33 13 -94q12 -63 12 -96q0 -31 7 -83t7 -83q0 -51 -5 -198t-5 -197q0 -19 7.5 -34.5z" />
    <glyph glyph-name="Ydieresis" unicode="&#x178;" horiz-adv-x="620" 
d="M526 1834.5q13 -14.5 28 -14.5q54 0 54 47q0 16 -14 32.5t-31 16.5q-19 0 -34.5 -16t-15.5 -35q0 -16 13 -30.5zM64.5 1828q11.5 -16 27.5 -16q20 0 35.5 9.5t15.5 25.5q0 28 -10.5 47.5t-30.5 19.5q-18 0 -33.5 -16.5t-15.5 -34.5q0 -19 11.5 -35zM332.5 -9.5
q7.5 -15.5 21.5 -15.5q21 0 33 17.5t12 42.5q0 4 -1 7t-1 7l-6 6q4 121 4 414q0 46 -7 123q-8 88 -8 123v16l13 31q0 12 -3 34q-3 23 -3 33q0 66 8.5 151.5t18.5 148.5q16 96 54 305q2 13 9 40q8 30 8 44q0 11 -5 16q-4 4 -8.5 5t-9.5 1h-8q-34 0 -60 -135
q-27 -141 -41 -298q-17 -168 -20 -177q-17 23 -46 145t-54 260.5t-29 194.5l-24 16q-17 0 -29 -9t-12 -24q0 -35 30 -133q17 -59 32 -126.5t36 -174.5l27 -141q1 -3 3 -13.5t8 -32.5q21 -89 21 -116q0 -33 13 -94q12 -63 12 -96q0 -31 7 -83t7 -83q0 -51 -5 -198t-5 -197
q0 -19 7.5 -34.5z" />
    <glyph glyph-name="Ygrave" unicode="&#x1ef2;" horiz-adv-x="620" 
d="M234.5 1911.5q97.5 -34.5 101.5 -34.5q7 0 15.5 5.5t8.5 11.5q0 17 -39 39q-34 19 -84 39q-54 21 -81 30q-10 3 -16.5 5t-8.5 3q-18 23 -79 23h-13q-13 -9 -13 -45q0 -41 70 -41q16 0 33 4q8 -5 105.5 -39.5zM332.5 -9.5q7.5 -15.5 21.5 -15.5q21 0 33 17.5t12 42.5
q0 4 -1 7t-1 7l-6 6q4 121 4 414q0 46 -7 123q-8 88 -8 123v16l13 31q0 12 -3 34q-3 23 -3 33q0 66 8.5 151.5t18.5 148.5q16 96 54 305q2 13 9 40q8 30 8 44q0 11 -5 16q-4 4 -8.5 5t-9.5 1h-8q-34 0 -60 -135q-27 -141 -41 -298q-17 -168 -20 -177q-17 23 -46 145
t-54 260.5t-29 194.5l-24 16q-17 0 -29 -9t-12 -24q0 -35 30 -133q17 -59 32 -126.5t36 -174.5l27 -141q1 -3 3 -13.5t8 -32.5q21 -89 21 -116q0 -33 13 -94q12 -63 12 -96q0 -31 7 -83t7 -83q0 -51 -5 -198t-5 -197q0 -19 7.5 -34.5z" />
    <glyph glyph-name="uni0232" unicode="&#x232;" horiz-adv-x="620" 
d="M554 1870q-10 7 -34 10q-23 3 -46 3.5t-58 0.5h-116q-129 0 -131 -17q0 -7 5 -14q6 -8 39 -15q19 -4 65 -4h40h115q129 0 131 17q0 12 -10 19zM332.5 -9.5q7.5 -15.5 21.5 -15.5q21 0 33 17.5t12 42.5q0 4 -1 7t-1 7l-6 6q4 121 4 414q0 46 -7 123q-8 88 -8 123v16l13 31
q0 12 -3 34q-3 23 -3 33q0 66 8.5 151.5t18.5 148.5q16 96 54 305q2 13 9 40q8 30 8 44q0 11 -5 16q-4 4 -8.5 5t-9.5 1h-8q-34 0 -60 -135q-27 -141 -41 -298q-17 -168 -20 -177q-17 23 -46 145t-54 260.5t-29 194.5l-24 16q-17 0 -29 -9t-12 -24q0 -35 30 -133
q17 -59 32 -126.5t36 -174.5l27 -141q1 -3 3 -13.5t8 -32.5q21 -89 21 -116q0 -33 13 -94q12 -63 12 -96q0 -31 7 -83t7 -83q0 -51 -5 -198t-5 -197q0 -19 7.5 -34.5z" />
    <glyph glyph-name="uni1EF8" unicode="&#x1ef8;" horiz-adv-x="620" 
d="M106 1762.5q13 -11.5 26 -11.5l22 31q-10 33 -10 43q0 23 23 39t53 16l14 -6q33 -39 52 -58q22 -23 59 -43t71 -20q28 0 53 15t40.5 40t15.5 53q0 29 -12 49.5t-35 20.5q-15 0 -21 -12q2 -8 7 -18q5 -15 5 -21q0 -73 -53 -73q-30 0 -66 24.5t-51 54.5q-36 42 -87 42
q-50 0 -84.5 -39t-34.5 -103q0 -12 13 -23.5zM332.5 -9.5q7.5 -15.5 21.5 -15.5q21 0 33 17.5t12 42.5q0 4 -1 7t-1 7l-6 6q4 121 4 414q0 46 -7 123q-8 88 -8 123v16l13 31q0 12 -3 34q-3 23 -3 33q0 66 8.5 151.5t18.5 148.5q16 96 54 305q2 13 9 40q8 30 8 44q0 11 -5 16
q-4 4 -8.5 5t-9.5 1h-8q-34 0 -60 -135q-27 -141 -41 -298q-17 -168 -20 -177q-17 23 -46 145t-54 260.5t-29 194.5l-24 16q-17 0 -29 -9t-12 -24q0 -35 30 -133q17 -59 32 -126.5t36 -174.5l27 -141q1 -3 3 -13.5t8 -32.5q21 -89 21 -116q0 -33 13 -94q12 -63 12 -96
q0 -31 7 -83t7 -83q0 -51 -5 -198t-5 -197q0 -19 7.5 -34.5z" />
    <glyph glyph-name="Z" unicode="Z" horiz-adv-x="620" 
d="M186 -18q50 0 122 4q71 4 121 4l19 18q0 41 -86 41q-18 0 -66 -5t-67 -5q0 31 22 82t25 74q31 189 82 580l26 199q36 269 35 265q4 25 9 90q5 75 12 122t20 75q0 37 -33 37q-36 0 -96 -10q-66 -11 -96 -11q-34 0 -49 4l-15 -16q0 -41 92 -41q18 0 70 5t68 5
q-1 -59 -17 -160l-6 -39l-4 -32q-19 -141 -78 -566l-16 -114q-11 -49 -26 -181q-14 -137 -36 -232t-63 -167q11 -26 31 -26z" />
    <glyph glyph-name="Zacute" unicode="&#x179;" horiz-adv-x="620" 
d="M211.5 1848q10.5 -8 26.5 -8q151 129 256 176l6 31q0 32 -45 32q-7 -7 -76 -60q-77 -59 -122 -96q-56 -45 -56 -53q0 -14 10.5 -22zM186 -18q50 0 122 4q71 4 121 4l19 18q0 41 -86 41q-18 0 -66 -5t-67 -5q0 31 22 82t25 74q31 189 82 580l26 199q36 269 35 265
q4 25 9 90q5 75 12 122t20 75q0 37 -33 37q-36 0 -96 -10q-66 -11 -96 -11q-34 0 -49 4l-15 -16q0 -41 92 -41q18 0 70 5t68 5q-1 -59 -17 -160l-6 -39l-4 -32q-19 -141 -78 -566l-16 -114q-11 -49 -26 -181q-14 -137 -36 -232t-63 -167q11 -26 31 -26z" />
    <glyph glyph-name="Zcaron" unicode="&#x17d;" horiz-adv-x="620" 
d="M333 1741q-9 24 -31.5 88t-36.5 108q-16 49 -18 70l-35 47l-37 -27q1 -30 36.5 -116t76 -158t59.5 -72q29 0 29 43q0 38 9 76t28 90q15 45 24 74l-2 12l15 31l-2 10q8 18 8 23q0 18 -37 24l-27 -16q-11 -129 -59 -307zM186 -18q50 0 122 4q71 4 121 4l19 18q0 41 -86 41
q-18 0 -66 -5t-67 -5q0 31 22 82t25 74q31 189 82 580l26 199q36 269 35 265q4 25 9 90q5 75 12 122t20 75q0 37 -33 37q-36 0 -96 -10q-66 -11 -96 -11q-34 0 -49 4l-15 -16q0 -41 92 -41q18 0 70 5t68 5q-1 -59 -17 -160l-6 -39l-4 -32q-19 -141 -78 -566l-16 -114
q-11 -49 -26 -181q-14 -137 -36 -232t-63 -167q11 -26 31 -26z" />
    <glyph glyph-name="Zdotaccent" unicode="&#x17b;" horiz-adv-x="620" 
d="M280.5 1899.5q13.5 -15.5 31.5 -15.5q57 0 57 51q0 18 -15.5 35.5t-33.5 17.5q-20 0 -36.5 -17.5t-16.5 -37.5q0 -18 13.5 -33.5zM186 -18q50 0 122 4q71 4 121 4l19 18q0 41 -86 41q-18 0 -66 -5t-67 -5q0 31 22 82t25 74q31 189 82 580l26 199q36 269 35 265q4 25 9 90
q5 75 12 122t20 75q0 37 -33 37q-36 0 -96 -10q-66 -11 -96 -11q-34 0 -49 4l-15 -16q0 -41 92 -41q18 0 70 5t68 5q-1 -59 -17 -160l-6 -39l-4 -32q-19 -141 -78 -566l-16 -114q-11 -49 -26 -181q-14 -137 -36 -232t-63 -167q11 -26 31 -26z" />
    <glyph glyph-name="Gcommaaccent.494" horiz-adv-x="920" 
d="M244 188q74 -221 229 -221q87 0 206 68l-1 -5l-1 -5q0 -45 49 -45q27 0 27 32q0 58 -20 183q-21 122 -21 182q0 38 -16 62t-48 24q-40 0 -96.5 -14t-56.5 -31q0 -35 47 -35q18 0 42 4t40 4t28 -34q12 -39 16 -85q9 -86 9 -145q-66 -102 -174 -102q-64 0 -111 46
q-47 44 -75.5 112.5t-46.5 169.5q-17 91 -23.5 176t-6.5 186q0 90 1 112l2 135q2 104 11 181q13 118 32 182q12 42 30 80t38 61q22 26 52 41t64 15q7 0 29 -5q19 -6 29 -6q30 0 30 25q0 35 -61 35q-49 0 -94 -17q-44 -17 -75 -44.5t-56 -69.5q-26 -45 -42 -86.5t-27 -95.5
q-12 -58 -18 -102.5t-9 -101.5q-5 -77 -5 -177q0 -470 73 -689zM484 -391q38 46 64 104.5t26 93.5q0 18 -4 25l4 6q-22 60 -68 60q-30 0 -54 -18.5t-24 -45.5q0 -25 17 -49.5t43 -40.5q0 -19 -6 -35q-8 -23 -44 -62q-13 -13 -30 -29t-27 -24l-4 -18l33 -16q34 1 74 49z" />
    <glyph glyph-name="Rcommaaccent.495" horiz-adv-x="700" 
d="M556 -20q14 0 22 12.5t8 31.5q0 13 -3 23l-220 855q14 14 33 54.5t29 69.5q41 109 41 205q0 59 -14 115.5t-40 104.5q-28 49 -73 77t-100 28q-37 0 -37 -18v-264q0 -234 -7 -611q-8 -432 -8 -612v-31q0 -15 10 -24.5t25 -9.5q37 0 37 41v30l-4 789q9 2 27 13l21 11
q24 -90 53 -239q34 -172 40 -199q20 -96 84 -322q20 -70 25 -90q10 -40 51 -40zM259 1492h5q35 0 63 -31.5t44 -81.5q27 -92 27 -173q0 -46 -9.5 -103t-24.5 -85q-16 -28 -54.5 -66.5t-55.5 -38.5v578q3 0 5 1zM334 -391q38 46 64 104.5t26 93.5q0 18 -4 25l4 6
q-23 60 -68 60q-30 0 -54 -18.5t-24 -45.5q0 -25 17 -49.5t43 -40.5q0 -19 -6 -35q-8 -23 -44 -62q-13 -13 -30 -29t-27 -24l-4 -18l33 -16q34 1 74 49z" />
    <glyph glyph-name="a" unicode="a" horiz-adv-x="740" 
d="M333 310q52 -5 75 -5q64 0 101 -10l34 -268q3 -22 7 -31t13 -11.5t31 -2.5q16 9 16 30v6q-89 703 -114 992l-12 108q-8 70 -11.5 118.5t-3.5 106.5q0 13 -11.5 22t-25.5 9q-12 -12 -37 -12q-8 0 -14 1l-14 1q-5 -9 -13 -61q-5 -28 -10 -83l-4 -33l-8 -75
q-10 -65 -36 -190q-27 -122 -36 -179l-22 -135l-12 -72q-7 -46 -14 -83l-23 -127q-28 -158 -62 -289l-2 -6l-2 -6q0 -12 14 -23.5t27 -11.5q16 0 31 35q13 34 24 86q18 95 23 147l4 41q1 1 1 3t1 4q1 5 4 7t10 2q19 0 71 -5zM311 674q5 20 111 547q63 -656 78 -871h-21
q-57 0 -136 8t-79 18q0 65 47 298z" />
    <glyph glyph-name="aacute" unicode="&#xe1;" horiz-adv-x="740" 
d="M301.5 1668q10.5 -8 26.5 -8q151 129 256 176l6 31q0 32 -45 32q-7 -7 -76 -60q-77 -59 -122 -96q-56 -45 -56 -53q0 -14 10.5 -22zM333 310q52 -5 75 -5q64 0 101 -10l34 -268q3 -22 7 -31t13 -11.5t31 -2.5q16 9 16 30v6q-89 703 -114 992l-12 108q-8 70 -11.5 118.5
t-3.5 106.5q0 13 -11.5 22t-25.5 9q-12 -12 -37 -12q-8 0 -14 1l-14 1q-5 -9 -13 -61q-5 -28 -10 -83l-4 -33l-8 -75q-10 -65 -36 -190q-27 -122 -36 -179l-22 -135l-12 -72q-7 -46 -14 -83l-23 -127q-28 -158 -62 -289l-2 -6l-2 -6q0 -12 14 -23.5t27 -11.5q16 0 31 35
q13 34 24 86q18 95 23 147l4 41q1 1 1 3t1 4q1 5 4 7t10 2q19 0 71 -5zM311 674q5 20 111 547q63 -656 78 -871h-21q-57 0 -136 8t-79 18q0 65 47 298z" />
    <glyph glyph-name="abreve" unicode="&#x103;" horiz-adv-x="740" 
d="M322 1622q16 -33 46.5 -51.5t71.5 -18.5q26 0 44 7q21 7 32.5 14t22.5 24q11 16 17.5 29t15.5 34q6 15 10 23l6 12l-5 15l6 15q5 13 5 17q0 12 -9.5 20.5t-21.5 8.5q-37 0 -37 -39q0 -8 1 -14q1 -7 1 -15q0 -20 -10 -44.5t-26.5 -42t-33.5 -17.5h-51l-22 16
q-22 16 -33 50.5t-19 81.5q-6 30 -20 32l-22 -18q0 -76 31 -139zM333 310q52 -5 75 -5q64 0 101 -10l34 -268q3 -22 7 -31t13 -11.5t31 -2.5q16 9 16 30v6q-89 703 -114 992l-12 108q-8 70 -11.5 118.5t-3.5 106.5q0 13 -11.5 22t-25.5 9q-12 -12 -37 -12q-8 0 -14 1l-14 1
q-5 -9 -13 -61q-5 -28 -10 -83l-4 -33l-8 -75q-10 -65 -36 -190q-27 -122 -36 -179l-22 -135l-12 -72q-7 -46 -14 -83l-23 -127q-28 -158 -62 -289l-2 -6l-2 -6q0 -12 14 -23.5t27 -11.5q16 0 31 35q13 34 24 86q18 95 23 147l4 41q1 1 1 3t1 4q1 5 4 7t10 2q19 0 71 -5z
M311 674q5 20 111 547q63 -656 78 -871h-21q-57 0 -136 8t-79 18q0 65 47 298z" />
    <glyph glyph-name="uni01CE" unicode="&#x1ce;" horiz-adv-x="740" 
d="M423 1561q-9 24 -31.5 88t-36.5 108q-16 49 -18 70l-35 47l-37 -27q1 -30 36.5 -116t76 -158t59.5 -72q29 0 29 43q0 38 9 76t28 90q15 45 24 74l-2 12l15 31l-2 10q8 18 8 23q0 18 -37 24l-27 -16q-11 -129 -59 -307zM333 310q52 -5 75 -5q64 0 101 -10l34 -268
q3 -22 7 -31t13 -11.5t31 -2.5q16 9 16 30v6q-89 703 -114 992l-12 108q-8 70 -11.5 118.5t-3.5 106.5q0 13 -11.5 22t-25.5 9q-12 -12 -37 -12q-8 0 -14 1l-14 1q-5 -9 -13 -61q-5 -28 -10 -83l-4 -33l-8 -75q-10 -65 -36 -190q-27 -122 -36 -179l-22 -135l-12 -72
q-7 -46 -14 -83l-23 -127q-28 -158 -62 -289l-2 -6l-2 -6q0 -12 14 -23.5t27 -11.5q16 0 31 35q13 34 24 86q18 95 23 147l4 41q1 1 1 3t1 4q1 5 4 7t10 2q19 0 71 -5zM311 674q5 20 111 547q63 -656 78 -871h-21q-57 0 -136 8t-79 18q0 65 47 298z" />
    <glyph glyph-name="acircumflex" unicode="&#xe2;" horiz-adv-x="740" 
d="M556 1526q0 4 -8 22l2 11l-15 30l2 13q-9 29 -24 74q-19 51 -28 89t-9 76q0 43 -29 43q-19 0 -59.5 -72t-76 -158t-36.5 -116l37 -26l35 47q2 21 18 70q14 44 36.5 108t31.5 88q48 -178 59 -307l27 -17q37 6 37 25zM333 310q52 -5 75 -5q64 0 101 -10l34 -268
q3 -22 7 -31t13 -11.5t31 -2.5q16 9 16 30v6q-89 703 -114 992l-12 108q-8 70 -11.5 118.5t-3.5 106.5q0 13 -11.5 22t-25.5 9q-12 -12 -37 -12q-8 0 -14 1l-14 1q-5 -9 -13 -61q-5 -28 -10 -83l-4 -33l-8 -75q-10 -65 -36 -190q-27 -122 -36 -179l-22 -135l-12 -72
q-7 -46 -14 -83l-23 -127q-28 -158 -62 -289l-2 -6l-2 -6q0 -12 14 -23.5t27 -11.5q16 0 31 35q13 34 24 86q18 95 23 147l4 41q1 1 1 3t1 4q1 5 4 7t10 2q19 0 71 -5zM311 674q5 20 111 547q63 -656 78 -871h-21q-57 0 -136 8t-79 18q0 65 47 298z" />
    <glyph glyph-name="uni0201" unicode="&#x201;" horiz-adv-x="740" 
d="M479.5 1791q-79.5 68 -164 131.5t-95.5 63.5q-4 0 -13 -11t-9 -20q0 -13 13 -20q147 -118 186 -145q23 -10 71 -46q51 -38 85 -45l9 11q-3 13 -82.5 81zM68 1911q-105 60 -115 60q-11 0 -25 -17t-17 -33l107 -60q33 -14 110 -55q3 -1 27 -16l23 -15q35 -24 74 -48
q34 -22 42 -22q11 0 11 15t-97 90q-106 80 -140 101zM333 310q52 -5 75 -5q64 0 101 -10l34 -268q3 -22 7 -31t13 -11.5t31 -2.5q16 9 16 30v6q-89 703 -114 992l-12 108q-8 70 -11.5 118.5t-3.5 106.5q0 13 -11.5 22t-25.5 9q-12 -12 -37 -12q-8 0 -14 1l-14 1
q-5 -9 -13 -61q-5 -28 -10 -83l-4 -33l-8 -75q-10 -65 -36 -190q-27 -122 -36 -179l-22 -135l-12 -72q-7 -46 -14 -83l-23 -127q-28 -158 -62 -289l-2 -6l-2 -6q0 -12 14 -23.5t27 -11.5q16 0 31 35q13 34 24 86q18 95 23 147l4 41q1 1 1 3t1 4q1 5 4 7t10 2q19 0 71 -5z
M311 674q5 20 111 547q63 -656 78 -871h-21q-57 0 -136 8t-79 18q0 65 47 298z" />
    <glyph glyph-name="adieresis" unicode="&#xe4;" horiz-adv-x="740" 
d="M616 1654.5q13 -14.5 28 -14.5q54 0 54 47q0 16 -14 32.5t-31 16.5q-19 0 -34.5 -16t-15.5 -35q0 -16 13 -30.5zM154.5 1648q11.5 -16 27.5 -16q20 0 35.5 9.5t15.5 25.5q0 28 -10.5 47.5t-30.5 19.5q-18 0 -33.5 -16.5t-15.5 -34.5q0 -19 11.5 -35zM333 310q52 -5 75 -5
q64 0 101 -10l34 -268q3 -22 7 -31t13 -11.5t31 -2.5q16 9 16 30v6q-89 703 -114 992l-12 108q-8 70 -11.5 118.5t-3.5 106.5q0 13 -11.5 22t-25.5 9q-12 -12 -37 -12q-8 0 -14 1l-14 1q-5 -9 -13 -61q-5 -28 -10 -83l-4 -33l-8 -75q-10 -65 -36 -190q-27 -122 -36 -179
l-22 -135l-12 -72q-7 -46 -14 -83l-23 -127q-28 -158 -62 -289l-2 -6l-2 -6q0 -12 14 -23.5t27 -11.5q16 0 31 35q13 34 24 86q18 95 23 147l4 41q1 1 1 3t1 4q1 5 4 7t10 2q19 0 71 -5zM311 674q5 20 111 547q63 -656 78 -871h-21q-57 0 -136 8t-79 18q0 65 47 298z" />
    <glyph glyph-name="uni0227" unicode="&#x227;" horiz-adv-x="740" 
d="M370.5 1719.5q13.5 -15.5 31.5 -15.5q57 0 57 51q0 18 -15.5 35.5t-33.5 17.5q-20 0 -36.5 -17.5t-16.5 -37.5q0 -18 13.5 -33.5zM333 310q52 -5 75 -5q64 0 101 -10l34 -268q3 -22 7 -31t13 -11.5t31 -2.5q16 9 16 30v6q-89 703 -114 992l-12 108q-8 70 -11.5 118.5
t-3.5 106.5q0 13 -11.5 22t-25.5 9q-12 -12 -37 -12q-8 0 -14 1l-14 1q-5 -9 -13 -61q-5 -28 -10 -83l-4 -33l-8 -75q-10 -65 -36 -190q-27 -122 -36 -179l-22 -135l-12 -72q-7 -46 -14 -83l-23 -127q-28 -158 -62 -289l-2 -6l-2 -6q0 -12 14 -23.5t27 -11.5q16 0 31 35
q13 34 24 86q18 95 23 147l4 41q1 1 1 3t1 4q1 5 4 7t10 2q19 0 71 -5zM311 674q5 20 111 547q63 -656 78 -871h-21q-57 0 -136 8t-79 18q0 65 47 298z" />
    <glyph glyph-name="agrave" unicode="&#xe0;" horiz-adv-x="740" 
d="M324.5 1731.5q97.5 -34.5 101.5 -34.5q7 0 15.5 5.5t8.5 11.5q0 17 -39 39q-34 19 -84 39q-54 21 -81 30q-10 3 -16.5 5t-8.5 3q-18 23 -79 23h-13q-13 -9 -13 -45q0 -41 70 -41q16 0 33 4q8 -5 105.5 -39.5zM333 310q52 -5 75 -5q64 0 101 -10l34 -268q3 -22 7 -31
t13 -11.5t31 -2.5q16 9 16 30v6q-89 703 -114 992l-12 108q-8 70 -11.5 118.5t-3.5 106.5q0 13 -11.5 22t-25.5 9q-12 -12 -37 -12q-8 0 -14 1l-14 1q-5 -9 -13 -61q-5 -28 -10 -83l-4 -33l-8 -75q-10 -65 -36 -190q-27 -122 -36 -179l-22 -135l-12 -72q-7 -46 -14 -83
l-23 -127q-28 -158 -62 -289l-2 -6l-2 -6q0 -12 14 -23.5t27 -11.5q16 0 31 35q13 34 24 86q18 95 23 147l4 41q1 1 1 3t1 4q1 5 4 7t10 2q19 0 71 -5zM311 674q5 20 111 547q63 -656 78 -871h-21q-57 0 -136 8t-79 18q0 65 47 298z" />
    <glyph glyph-name="uni0203" unicode="&#x203;" horiz-adv-x="740" 
d="M323 1673q8 47 19 81.5t33 50.5l22 16h51q17 0 33.5 -17.5t26.5 -42t10 -44.5q0 -8 -1 -14q-1 -7 -1 -15q0 -39 37 -39q12 0 21.5 8.5t9.5 20.5q0 4 -5 17l-6 15l5 15q-2 4 -6 12.5t-10 23.5t-10 23l-6 12q-22 42 -41 52q-36 20 -75 20q-41 0 -71.5 -18.5t-46.5 -51.5
q-31 -63 -31 -139l22 -18q14 2 20 32zM333 310q52 -5 75 -5q64 0 101 -10l34 -268q3 -22 7 -31t13 -11.5t31 -2.5q16 9 16 30v6q-89 703 -114 992l-12 108q-8 70 -11.5 118.5t-3.5 106.5q0 13 -11.5 22t-25.5 9q-12 -12 -37 -12q-8 0 -14 1l-14 1q-5 -9 -13 -61
q-5 -28 -10 -83l-4 -33l-8 -75q-10 -65 -36 -190q-27 -122 -36 -179l-22 -135l-12 -72q-7 -46 -14 -83l-23 -127q-28 -158 -62 -289l-2 -6l-2 -6q0 -12 14 -23.5t27 -11.5q16 0 31 35q13 34 24 86q18 95 23 147l4 41q1 1 1 3t1 4q1 5 4 7t10 2q19 0 71 -5zM311 674
q5 20 111 547q63 -656 78 -871h-21q-57 0 -136 8t-79 18q0 65 47 298z" />
    <glyph glyph-name="amacron" unicode="&#x101;" horiz-adv-x="740" 
d="M644 1690q-10 7 -34 10q-23 3 -46 3.5t-58 0.5h-116q-129 0 -131 -17q0 -7 5 -14q6 -8 39 -15q19 -4 65 -4h40h115q129 0 131 17q0 12 -10 19zM333 310q52 -5 75 -5q64 0 101 -10l34 -268q3 -22 7 -31t13 -11.5t31 -2.5q16 9 16 30v6q-89 703 -114 992l-12 108
q-8 70 -11.5 118.5t-3.5 106.5q0 13 -11.5 22t-25.5 9q-12 -12 -37 -12q-8 0 -14 1l-14 1q-5 -9 -13 -61q-5 -28 -10 -83l-4 -33l-8 -75q-10 -65 -36 -190q-27 -122 -36 -179l-22 -135l-12 -72q-7 -46 -14 -83l-23 -127q-28 -158 -62 -289l-2 -6l-2 -6q0 -12 14 -23.5
t27 -11.5q16 0 31 35q13 34 24 86q18 95 23 147l4 41q1 1 1 3t1 4q1 5 4 7t10 2q19 0 71 -5zM311 674q5 20 111 547q63 -656 78 -871h-21q-57 0 -136 8t-79 18q0 65 47 298z" />
    <glyph glyph-name="aogonek" unicode="&#x105;" horiz-adv-x="740" 
d="M648 -394q0 -25 -28 -40t-60 -15q-39 0 -75 26.5t-58 65t-22 70.5q0 47 14 97t36 88q45 77 77 109l12 13l-1 7l-34 268q-37 10 -101 10q-23 0 -75 5t-71 5q-7 0 -10 -2t-4 -7q-1 -2 -1 -4t-1 -3l-4 -41q-5 -52 -23 -147q-11 -52 -24 -86q-15 -35 -31 -35q-13 0 -27 11.5
t-14 23.5l2 6l2 6q34 131 62 289l23 127q7 37 14 83l12 72l22 135q9 57 36 179q26 125 36 190l8 75l4 33q5 55 10 83q8 52 13 61l14 -1q6 -1 14 -1q25 0 37 12q14 0 25.5 -9t11.5 -22q0 -58 3.5 -106.5t11.5 -118.5l12 -108q25 -289 114 -992v-6q0 -21 -16 -30h-7
q-46 -60 -72 -123q-18 -44 -18 -79q0 -22 -4 -47l-1 -20q-1 -10 -1 -23q0 -27 22.5 -55.5t46.5 -28.5q11 0 33 11q20 10 33 10q22 0 22 -21zM500 350q-15 215 -78 871q-106 -527 -111 -547q-47 -233 -47 -298q0 -10 79 -18t136 -8h21z" />
    <glyph glyph-name="aring" unicode="&#xe5;" horiz-adv-x="740" 
d="M315 1664q14 -25 37 -40.5t49 -15.5q59 0 95 30.5t36 86.5q0 25 -17 53t-43.5 46.5t-51.5 18.5q-29 0 -56.5 -19t-45 -48.5t-17.5 -59.5q0 -27 14 -52zM371.5 1779q23.5 25 48.5 25q28 0 43.5 -30t15.5 -70q0 -22 -29.5 -39.5t-56.5 -17.5q-19 0 -29 16q-10 14 -13 28.5
t-3 35.5q0 27 23.5 52zM333 310q52 -5 75 -5q64 0 101 -10l34 -268q3 -22 7 -31t13 -11.5t31 -2.5q16 9 16 30v6q-89 703 -114 992l-12 108q-8 70 -11.5 118.5t-3.5 106.5q0 13 -11.5 22t-25.5 9q-12 -12 -37 -12q-8 0 -14 1l-14 1q-5 -9 -13 -61q-5 -28 -10 -83l-4 -33
l-8 -75q-10 -65 -36 -190q-27 -122 -36 -179l-22 -135l-12 -72q-7 -46 -14 -83l-23 -127q-28 -158 -62 -289l-2 -6l-2 -6q0 -12 14 -23.5t27 -11.5q16 0 31 35q13 34 24 86q18 95 23 147l4 41q1 1 1 3t1 4q1 5 4 7t10 2q19 0 71 -5zM311 674q5 20 111 547q63 -656 78 -871
h-21q-57 0 -136 8t-79 18q0 65 47 298z" />
    <glyph glyph-name="aringacute" unicode="&#x1fb;" horiz-adv-x="740" 
d="M388.5 1973q10.5 -8 26.5 -8q151 129 256 176l6 31q0 32 -45 32q-7 -7 -76 -60q-77 -59 -122 -96q-56 -45 -56 -53q0 -14 10.5 -22zM315 1664q14 -25 37 -40.5t49 -15.5q59 0 95 30.5t36 86.5q0 25 -17 53t-43.5 46.5t-51.5 18.5q-29 0 -56.5 -19t-45 -48.5t-17.5 -59.5
q0 -27 14 -52zM371.5 1779q23.5 25 48.5 25q28 0 43.5 -30t15.5 -70q0 -22 -29.5 -39.5t-56.5 -17.5q-19 0 -29 16q-10 14 -13 28.5t-3 35.5q0 27 23.5 52zM333 310q52 -5 75 -5q64 0 101 -10l34 -268q3 -22 7 -31t13 -11.5t31 -2.5q16 9 16 30v6q-89 703 -114 992l-12 108
q-8 70 -11.5 118.5t-3.5 106.5q0 13 -11.5 22t-25.5 9q-12 -12 -37 -12q-8 0 -14 1l-14 1q-5 -9 -13 -61q-5 -28 -10 -83l-4 -33l-8 -75q-10 -65 -36 -190q-27 -122 -36 -179l-22 -135l-12 -72q-7 -46 -14 -83l-23 -127q-28 -158 -62 -289l-2 -6l-2 -6q0 -12 14 -23.5
t27 -11.5q16 0 31 35q13 34 24 86q18 95 23 147l4 41q1 1 1 3t1 4q1 5 4 7t10 2q19 0 71 -5zM311 674q5 20 111 547q63 -656 78 -871h-21q-57 0 -136 8t-79 18q0 65 47 298z" />
    <glyph glyph-name="atilde" unicode="&#xe3;" horiz-adv-x="740" 
d="M196 1582.5q13 -11.5 26 -11.5l22 31q-10 33 -10 43q0 23 23 39t53 16l14 -6q33 -39 52 -58q22 -23 59 -43t71 -20q28 0 53 15t40.5 40t15.5 53q0 29 -12 49.5t-35 20.5q-15 0 -21 -12q2 -8 7 -18q5 -15 5 -21q0 -73 -53 -73q-30 0 -66 24.5t-51 54.5q-36 42 -87 42
q-50 0 -84.5 -39t-34.5 -103q0 -12 13 -23.5zM333 310q52 -5 75 -5q64 0 101 -10l34 -268q3 -22 7 -31t13 -11.5t31 -2.5q16 9 16 30v6q-89 703 -114 992l-12 108q-8 70 -11.5 118.5t-3.5 106.5q0 13 -11.5 22t-25.5 9q-12 -12 -37 -12q-8 0 -14 1l-14 1q-5 -9 -13 -61
q-5 -28 -10 -83l-4 -33l-8 -75q-10 -65 -36 -190q-27 -122 -36 -179l-22 -135l-12 -72q-7 -46 -14 -83l-23 -127q-28 -158 -62 -289l-2 -6l-2 -6q0 -12 14 -23.5t27 -11.5q16 0 31 35q13 34 24 86q18 95 23 147l4 41q1 1 1 3t1 4q1 5 4 7t10 2q19 0 71 -5zM311 674
q5 20 111 547q63 -656 78 -871h-21q-57 0 -136 8t-79 18q0 65 47 298z" />
    <glyph glyph-name="ae" unicode="&#xe6;" horiz-adv-x="940" 
d="M558 -13l14 1q8 0 16 -2q11 5 85 7q71 1 133 9q61 7 61 29q0 12 -14 19t-31 7q-36 0 -116 -11t-116 -11q-18 0 -18 35q0 23 1 42t1 42q0 97 -4 234t-4 233h55q145 0 145 34l-28 35q-105 0 -162 -20l-10 12q0 83 -1 147q-1 63 -1 146q0 51 -3 157q-3 107 -3 156
q29 4 100 4h102l13 25q0 33 -64 33q-45 0 -80 -1t-78 -1q-50 0 -88 -131l-1 -4l-1 -5l-4 -12q-162 -427 -268 -764q-81 -312 -82 -405q0 -8 5 -16.5t11 -8.5q17 0 32 41q12 34 24.5 90.5t15.5 75.5l102 371q3 11 48 18q32 5 100 11q52 3 63 5l11 -14q0 -47 5 -184
q5 -138 5 -187q0 -116 -17 -215l29 -28q10 0 17 1zM519 1163v-78q0 -38 -1 -69t-1 -68v-280q-113 -25 -205 -25q3 26 50 170t95.5 278t59.5 146q2 -34 2 -74z" />
    <glyph glyph-name="aeacute" unicode="&#x1fd;" horiz-adv-x="940" 
d="M677.5 1506q10.5 -8 26.5 -8q151 129 256 176l6 31q0 32 -45 32q-7 -7 -76 -60q-77 -59 -122 -96q-56 -45 -56 -53q0 -14 10.5 -22zM558 -13l14 1q8 0 16 -2q11 5 85 7q71 1 133 9q61 7 61 29q0 12 -14 19t-31 7q-36 0 -116 -11t-116 -11q-18 0 -18 35q0 23 1 42t1 42
q0 97 -4 234t-4 233h55q145 0 145 34l-28 35q-105 0 -162 -20l-10 12q0 83 -1 147q-1 63 -1 146q0 51 -3 157q-3 107 -3 156q29 4 100 4h102l13 25q0 33 -64 33q-45 0 -80 -1t-78 -1q-50 0 -88 -131l-1 -4l-1 -5l-4 -12q-162 -427 -268 -764q-81 -312 -82 -405q0 -8 5 -16.5
t11 -8.5q17 0 32 41q12 34 24.5 90.5t15.5 75.5l102 371q3 11 48 18q32 5 100 11q52 3 63 5l11 -14q0 -47 5 -184q5 -138 5 -187q0 -116 -17 -215l29 -28q10 0 17 1zM519 1163v-78q0 -38 -1 -69t-1 -68v-280q-113 -25 -205 -25q3 26 50 170t95.5 278t59.5 146q2 -34 2 -74z
" />
    <glyph glyph-name="uni01E3" unicode="&#x1e3;" horiz-adv-x="940" 
d="M890 1534q-10 7 -34 10q-23 3 -46 3.5t-58 0.5h-116q-129 0 -131 -17q0 -7 5 -14q6 -8 39 -15q19 -4 65 -4h40h115q129 0 131 17q0 12 -10 19zM558 -13l14 1q8 0 16 -2q11 5 85 7q71 1 133 9q61 7 61 29q0 12 -14 19t-31 7q-36 0 -116 -11t-116 -11q-18 0 -18 35
q0 23 1 42t1 42q0 97 -4 234t-4 233h55q145 0 145 34l-28 35q-105 0 -162 -20l-10 12q0 83 -1 147q-1 63 -1 146q0 51 -3 157q-3 107 -3 156q29 4 100 4h102l13 25q0 33 -64 33q-45 0 -80 -1t-78 -1q-50 0 -88 -131l-1 -4l-1 -5l-4 -12q-162 -427 -268 -764
q-81 -312 -82 -405q0 -8 5 -16.5t11 -8.5q17 0 32 41q12 34 24.5 90.5t15.5 75.5l102 371q3 11 48 18q32 5 100 11q52 3 63 5l11 -14q0 -47 5 -184q5 -138 5 -187q0 -116 -17 -215l29 -28q10 0 17 1zM519 1163v-78q0 -38 -1 -69t-1 -68v-280q-113 -25 -205 -25q3 26 50 170
t95.5 278t59.5 146q2 -34 2 -74z" />
    <glyph glyph-name="b" unicode="b" horiz-adv-x="660" 
d="M183.5 -10.5q10.5 -12.5 28.5 -12.5q92 0 157 50q122 94 122 290v29l-2 53q-3 53 -8 108q-7 51 -31.5 107t-61.5 84q4 8 29 44q26 40 31 53h-2q33 90 33 243q0 93 -13.5 153t-50.5 118l2 6q0 12 -37 27.5t-82.5 27.5t-64.5 12q-24 0 -33.5 -13.5t-9.5 -39.5v-12l8 -10
q2 -54 2 -119q0 -81 -6 -245q-6 -163 -6 -245l2 -90l2 -92q0 -78 -10 -215q-11 -152 -11 -217q0 -38 2 -64q0 -18 10.5 -30.5zM252 864q1 31 1 70q0 21 -1 40t-1 70q0 269 45 269q27 0 48.5 -17t32.5 -46q17 -46 22 -107l4 -4l3 -39q3 -48 3 -88q0 -273 -135 -273h-15l-4 14
l-4 13v25q0 41 1 73zM247 342v47q0 133 10 279q43 0 77 -26q32 -26 50 -62t29 -90q10 -47 12.5 -82.5t2.5 -82.5v-22v-17l-1 -7q0 -52 -25 -104t-67.5 -85t-91.5 -33l-1 40q-1 21 -1 53q0 76 12 98q-6 35 -6 94z" />
    <glyph glyph-name="uni1E03" unicode="&#x1e03;" horiz-adv-x="660" 
d="M276.5 1719.5q13.5 -15.5 31.5 -15.5q57 0 57 51q0 18 -15.5 35.5t-33.5 17.5q-20 0 -36.5 -17.5t-16.5 -37.5q0 -18 13.5 -33.5zM183.5 -10.5q10.5 -12.5 28.5 -12.5q92 0 157 50q122 94 122 290v29l-2 53q-3 53 -8 108q-7 51 -31.5 107t-61.5 84q4 8 29 44q26 40 31 53
h-2q33 90 33 243q0 93 -13.5 153t-50.5 118l2 6q0 12 -37 27.5t-82.5 27.5t-64.5 12q-24 0 -33.5 -13.5t-9.5 -39.5v-12l8 -10q2 -54 2 -119q0 -81 -6 -245q-6 -163 -6 -245l2 -90l2 -92q0 -78 -10 -215q-11 -152 -11 -217q0 -38 2 -64q0 -18 10.5 -30.5zM252 864q1 31 1 70
q0 21 -1 40t-1 70q0 269 45 269q27 0 48.5 -17t32.5 -46q17 -46 22 -107l4 -4l3 -39q3 -48 3 -88q0 -273 -135 -273h-15l-4 14l-4 13v25q0 41 1 73zM247 342v47q0 133 10 279q43 0 77 -26q32 -26 50 -62t29 -90q10 -47 12.5 -82.5t2.5 -82.5v-22v-17l-1 -7q0 -52 -25 -104
t-67.5 -85t-91.5 -33l-1 40q-1 21 -1 53q0 76 12 98q-6 35 -6 94z" />
    <glyph glyph-name="c" unicode="c" horiz-adv-x="720" 
d="M514 -3.5q26 19.5 26 34.5q0 22 -31 22q-21 -18 -51 -18q-49 0 -86 16.5t-60 48.5q-24 34 -39 68.5t-21 79.5q-6 46 -8.5 82t-2.5 84q0 83 4 206t4 207l4 11q0 41 3 89q3 53 13.5 123t25.5 120q18 58 49 95.5t71 37.5h86l27 30q0 5 -2 13q-1 3 -6 8q-1 1 -9 5q-2 0 -11 3
q-3 0 -5 1l-6 1h-82q-19 -10 -51 -22q-37 -15 -56 -29q-37 -28 -63 -93q-26 -63 -38.5 -126t-18.5 -157q-6 -86 -7.5 -131.5t-1.5 -125.5v-234q0 -76 4 -123q9 -154 51 -234q25 -46 53 -69t67 -35q34 -10 48 -18h68q26 10 52 29.5z" />
    <glyph glyph-name="cacute" unicode="&#x107;" horiz-adv-x="720" 
d="M321.5 1668q10.5 -8 26.5 -8q151 129 256 176l6 31q0 32 -45 32q-7 -7 -76 -60q-77 -59 -122 -96q-56 -45 -56 -53q0 -14 10.5 -22zM514 -3.5q26 19.5 26 34.5q0 22 -31 22q-21 -18 -51 -18q-49 0 -86 16.5t-60 48.5q-24 34 -39 68.5t-21 79.5q-6 46 -8.5 82t-2.5 84
q0 83 4 206t4 207l4 11q0 41 3 89q3 53 13.5 123t25.5 120q18 58 49 95.5t71 37.5h86l27 30q0 5 -2 13q-1 3 -6 8q-1 1 -9 5q-2 0 -11 3q-3 0 -5 1l-6 1h-82q-19 -10 -51 -22q-37 -15 -56 -29q-37 -28 -63 -93q-26 -63 -38.5 -126t-18.5 -157q-6 -86 -7.5 -131.5
t-1.5 -125.5v-234q0 -76 4 -123q9 -154 51 -234q25 -46 53 -69t67 -35q34 -10 48 -18h68q26 10 52 29.5z" />
    <glyph glyph-name="ccaron" unicode="&#x10d;" horiz-adv-x="720" 
d="M443 1561q-9 24 -31.5 88t-36.5 108q-16 49 -18 70l-35 47l-37 -27q1 -30 36.5 -116t76 -158t59.5 -72q29 0 29 43q0 38 9 76t28 90q15 45 24 74l-2 12l15 31l-2 10q8 18 8 23q0 18 -37 24l-27 -16q-11 -129 -59 -307zM514 -3.5q26 19.5 26 34.5q0 22 -31 22
q-21 -18 -51 -18q-49 0 -86 16.5t-60 48.5q-24 34 -39 68.5t-21 79.5q-6 46 -8.5 82t-2.5 84q0 83 4 206t4 207l4 11q0 41 3 89q3 53 13.5 123t25.5 120q18 58 49 95.5t71 37.5h86l27 30q0 5 -2 13q-1 3 -6 8q-1 1 -9 5q-2 0 -11 3q-3 0 -5 1l-6 1h-82q-19 -10 -51 -22
q-37 -15 -56 -29q-37 -28 -63 -93q-26 -63 -38.5 -126t-18.5 -157q-6 -86 -7.5 -131.5t-1.5 -125.5v-234q0 -76 4 -123q9 -154 51 -234q25 -46 53 -69t67 -35q34 -10 48 -18h68q26 10 52 29.5z" />
    <glyph glyph-name="ccedilla" unicode="&#xe7;" horiz-adv-x="720" 
d="M551 -287q0 -32 -22 -70.5t-58 -65t-75 -26.5q-32 0 -60 15t-28 40q0 21 22 21q13 0 33 -10q22 -11 33 -11q35 0 57.5 43t22.5 100q0 67 -31 91q-9 0 -27 -3q-17 -4 -28 -4q-30 0 -56 41q16 39 17 109l-5 2q-39 12 -67 35t-53 69q-42 80 -51 234q-4 47 -4 123v234
q0 80 1.5 125.5t7.5 131.5q6 94 18.5 157t38.5 126q26 65 63 93q19 14 56 29q32 12 51 22h82l6 -1q2 -1 5 -1q9 -3 11 -3q8 -4 9 -5q5 -5 6 -8q2 -8 2 -13l-27 -30h-86q-40 0 -71 -37.5t-49 -95.5q-15 -50 -25.5 -120t-13.5 -123q-3 -48 -3 -89l-4 -11q0 -84 -4 -207
t-4 -206q0 -48 2.5 -84t8.5 -82q6 -45 21 -79.5t39 -68.5q23 -32 60 -48.5t86 -16.5q30 0 51 18q31 0 31 -22q0 -15 -26 -34.5t-52 -29.5h-58q-2 -30 -2 -48q149 -11 149 -206z" />
    <glyph glyph-name="ccircumflex" unicode="&#x109;" horiz-adv-x="720" 
d="M576 1526q0 4 -8 22l2 11l-15 30l2 13q-9 29 -24 74q-19 51 -28 89t-9 76q0 43 -29 43q-19 0 -59.5 -72t-76 -158t-36.5 -116l37 -26l35 47q2 21 18 70q14 44 36.5 108t31.5 88q48 -178 59 -307l27 -17q37 6 37 25zM514 -3.5q26 19.5 26 34.5q0 22 -31 22
q-21 -18 -51 -18q-49 0 -86 16.5t-60 48.5q-24 34 -39 68.5t-21 79.5q-6 46 -8.5 82t-2.5 84q0 83 4 206t4 207l4 11q0 41 3 89q3 53 13.5 123t25.5 120q18 58 49 95.5t71 37.5h86l27 30q0 5 -2 13q-1 3 -6 8q-1 1 -9 5q-2 0 -11 3q-3 0 -5 1l-6 1h-82q-19 -10 -51 -22
q-37 -15 -56 -29q-37 -28 -63 -93q-26 -63 -38.5 -126t-18.5 -157q-6 -86 -7.5 -131.5t-1.5 -125.5v-234q0 -76 4 -123q9 -154 51 -234q25 -46 53 -69t67 -35q34 -10 48 -18h68q26 10 52 29.5z" />
    <glyph glyph-name="cdotaccent" unicode="&#x10b;" horiz-adv-x="720" 
d="M390.5 1719.5q13.5 -15.5 31.5 -15.5q57 0 57 51q0 18 -15.5 35.5t-33.5 17.5q-20 0 -36.5 -17.5t-16.5 -37.5q0 -18 13.5 -33.5zM514 -3.5q26 19.5 26 34.5q0 22 -31 22q-21 -18 -51 -18q-49 0 -86 16.5t-60 48.5q-24 34 -39 68.5t-21 79.5q-6 46 -8.5 82t-2.5 84
q0 83 4 206t4 207l4 11q0 41 3 89q3 53 13.5 123t25.5 120q18 58 49 95.5t71 37.5h86l27 30q0 5 -2 13q-1 3 -6 8q-1 1 -9 5q-2 0 -11 3q-3 0 -5 1l-6 1h-82q-19 -10 -51 -22q-37 -15 -56 -29q-37 -28 -63 -93q-26 -63 -38.5 -126t-18.5 -157q-6 -86 -7.5 -131.5
t-1.5 -125.5v-234q0 -76 4 -123q9 -154 51 -234q25 -46 53 -69t67 -35q34 -10 48 -18h68q26 10 52 29.5z" />
    <glyph glyph-name="d" unicode="d" 
d="M210 -10h142q63 34 109 79.5t70 90.5q21 40 36 99.5t20 111.5q17 182 29 247q-11 22 -11 62q0 11 1 20v17q0 27 1 48t1 48q0 156 -33 244q-8 20 -35 58q-30 41 -31 52l2 4q-23 17 -69 62q-52 48 -82 63q-12 7 -48 13q-34 5 -48 12q-3 1 -21 19q-17 16 -31 16
q-15 0 -32 -15t-17 -30q0 -27 17 -41q8 -184 8 -385l-2 -242l-2 -242q0 -186 8 -356q0 -55 18 -55zM270 119q-23 331 -23 764q0 379 23 379q58 0 109.5 -40t84.5 -104q31 -62 49.5 -126.5t20.5 -119.5l10 -206q0 -19 1 -35q1 -17 1 -39q0 -362 -145 -492l-16 -13
q-4 -3 -7.5 -5.5t-6.5 -5.5q-14 -10 -26 -27h-63l-6 27l-8 4z" />
    <glyph glyph-name="eth" unicode="&#xf0;" horiz-adv-x="680" 
d="M533 1333q-34 0 -82 -4q-53 240 -158 240q-7 0 -15.5 -6.5t-8.5 -12.5q0 -12 11.5 -21.5t33.5 -18.5q16 -6 25 -13q37 -31 61 -174q-69 -10 -131 -10q-23 0 -23 -29q0 -8 11 -8q33 0 147 12q26 -165 33 -391q-23 16 -45 16q-38 0 -69.5 -24t-52.5 -70q-24 -50 -39.5 -101
t-23.5 -116q-11 -79 -16.5 -131t-7.5 -116q-4 -93 -4 -185q0 -33 3 -59q2 -28 11 -55t23 -44q16 -19 42.5 -30t61.5 -11q38 0 67.5 21.5t45.5 56.5q14 31 23.5 77.5t12.5 89.5q7 127 11 153q10 230 10 438v8q0 288 -35 481q88 10 88 17l2 10q0 10 -12 10zM404 166
q-2 -6 -3 -28q-3 -30 -9 -59q-3 -17 -8.5 -25t-18.5 -22q-19 -20 -61 -20q-76 0 -76 162q0 69 7 231q6 147 40 308q15 72 41 113.5t59 41.5q41 -8 62 -24v-117q0 -294 -33 -561z" />
    <glyph glyph-name="dcaron" unicode="&#x10f;" 
d="M785 1060q0 -10 7 -16.5t19 -6.5q13 0 28 9q43 29 80.5 74.5t60.5 92.5t23 81q0 82 -90 82q-33 0 -55 -16t-22 -48q0 -40 13.5 -61.5t45.5 -28.5q0 -18 -6 -35q-11 -28 -45 -62q-24 -24 -56 -52q-3 -6 -3 -13zM210 -10h142q63 34 109 79.5t70 90.5q21 40 36 99.5
t20 111.5q17 182 29 247q-11 22 -11 62q0 11 1 20v17q0 27 1 48t1 48q0 156 -33 244q-8 20 -35 58q-30 41 -31 52l2 4q-23 17 -69 62q-52 48 -82 63q-12 7 -48 13q-34 5 -48 12q-3 1 -21 19q-17 16 -31 16q-15 0 -32 -15t-17 -30q0 -27 17 -41q8 -184 8 -385l-2 -242
l-2 -242q0 -186 8 -356q0 -55 18 -55zM270 119q-23 331 -23 764q0 379 23 379q58 0 109.5 -40t84.5 -104q31 -62 49.5 -126.5t20.5 -119.5l10 -206q0 -19 1 -35q1 -17 1 -39q0 -362 -145 -492l-16 -13q-4 -3 -7.5 -5.5t-6.5 -5.5q-14 -10 -26 -27h-63l-6 27l-8 4z" />
    <glyph glyph-name="dcroat" unicode="&#x111;" horiz-adv-x="780" 
d="M644 618q-12 -65 -29 -247q-5 -52 -20 -111.5t-36 -99.5q-24 -45 -70 -90.5t-109 -79.5h-142q-18 0 -18 55q-8 170 -8 356l2 237h-29q-17 0 -30 9.5t-13 24.5q0 2 21 4.5t51 4.5l2 204q0 201 -8 385q-17 14 -17 41q0 15 17 30t32 15q14 0 31 -16q18 -18 21 -19
q13 -7 48 -12q36 -6 48 -13q30 -15 82 -63q46 -45 69 -62l-2 -4q1 -11 31 -52q27 -38 35 -58q33 -88 33 -244q0 -27 -1 -48t-1 -48v-17q-1 -9 -1 -20q0 -40 11 -62zM574 592q0 22 -1 39q-1 16 -1 35l-10 206q-2 55 -20.5 119.5t-49.5 126.5q-33 64 -84.5 104t-109.5 40
q-23 0 -23 -379q0 -134 1 -198q60 2 81 2q16 0 30.5 -10.5t14.5 -24.5q0 -6 -125 -12q5 -290 21 -521l-2 -39l8 -4l6 -27h63q12 17 26 27q3 3 6.5 5.5t7.5 5.5l16 13q145 130 145 492z" />
    <glyph glyph-name="uni1E0B" unicode="&#x1e0b;" 
d="M320.5 1719.5q13.5 -15.5 31.5 -15.5q57 0 57 51q0 18 -15.5 35.5t-33.5 17.5q-20 0 -36.5 -17.5t-16.5 -37.5q0 -18 13.5 -33.5zM210 -10h142q63 34 109 79.5t70 90.5q21 40 36 99.5t20 111.5q17 182 29 247q-11 22 -11 62q0 11 1 20v17q0 27 1 48t1 48q0 156 -33 244
q-8 20 -35 58q-30 41 -31 52l2 4q-23 17 -69 62q-52 48 -82 63q-12 7 -48 13q-34 5 -48 12q-3 1 -21 19q-17 16 -31 16q-15 0 -32 -15t-17 -30q0 -27 17 -41q8 -184 8 -385l-2 -242l-2 -242q0 -186 8 -356q0 -55 18 -55zM270 119q-23 331 -23 764q0 379 23 379
q58 0 109.5 -40t84.5 -104q31 -62 49.5 -126.5t20.5 -119.5l10 -206q0 -19 1 -35q1 -17 1 -39q0 -362 -145 -492l-16 -13q-4 -3 -7.5 -5.5t-6.5 -5.5q-14 -10 -26 -27h-63l-6 27l-8 4z" />
    <glyph glyph-name="uni01F3" unicode="&#x1f3;" horiz-adv-x="1500" 
d="M210 -10h142q63 34 109 79.5t70 90.5q21 40 36 99.5t20 111.5q17 182 29 247q-11 22 -11 62q0 11 1 20v17q0 27 1 48t1 48q0 156 -33 244q-8 20 -35 58q-30 41 -31 52l2 4q-23 17 -69 62q-52 48 -82 63q-12 7 -48 13q-34 5 -48 12q-3 1 -21 19q-17 16 -31 16
q-15 0 -32 -15t-17 -30q0 -27 17 -41q8 -184 8 -385l-2 -242l-2 -242q0 -186 8 -356q0 -55 18 -55zM994 -4q5 0 29 11q22 11 44 11q21 0 61 -3q41 -3 60 -3q47 0 47 27t-59 27q-14 0 -43 -3q-25 -4 -43 -4q-42 0 -59 4q1 198 130 625q52 175 62 227q0 28 50 184t50 224
q0 14 -8 22t-16.5 9.5t-26.5 1.5q-84 0 -153 -7q-74 -8 -74 -26q0 -12 8.5 -22.5t20.5 -10.5q36 0 96 7q65 6 96 6q0 -83 -25 -191.5t-74 -263.5q-42 -130 -56 -185t-39 -177q-23 -113 -39 -169l-31 -114l-18 -70q-21 -81 -21 -106q0 -31 31 -31zM270 119q-23 331 -23 764
q0 379 23 379q58 0 109.5 -40t84.5 -104q31 -62 49.5 -126.5t20.5 -119.5l10 -206q0 -19 1 -35q1 -17 1 -39q0 -362 -145 -492l-16 -13q-4 -3 -7.5 -5.5t-6.5 -5.5q-14 -10 -26 -27h-63l-6 27l-8 4z" />
    <glyph glyph-name="uni01C6" unicode="&#x1c6;" horiz-adv-x="1500" 
d="M1223 1561q-9 24 -31.5 88t-36.5 108q-16 49 -18 70l-35 47l-37 -27q1 -30 36.5 -116t76 -158t59.5 -72q29 0 29 43q0 38 9 76t28 90q15 45 24 74l-2 12l15 31l-2 10q8 18 8 23q0 18 -37 24l-27 -16q-11 -129 -59 -307zM210 -10h142q63 34 109 79.5t70 90.5
q21 40 36 99.5t20 111.5q17 182 29 247q-11 22 -11 62q0 11 1 20v17q0 27 1 48t1 48q0 156 -33 244q-8 20 -35 58q-30 41 -31 52l2 4q-23 17 -69 62q-52 48 -82 63q-12 7 -48 13q-34 5 -48 12q-3 1 -21 19q-17 16 -31 16q-15 0 -32 -15t-17 -30q0 -27 17 -41q8 -184 8 -385
l-2 -242l-2 -242q0 -186 8 -356q0 -55 18 -55zM994 -4q5 0 29 11q22 11 44 11q21 0 61 -3q41 -3 60 -3q47 0 47 27t-59 27q-14 0 -43 -3q-25 -4 -43 -4q-42 0 -59 4q1 198 130 625q52 175 62 227q0 28 50 184t50 224q0 14 -8 22t-16.5 9.5t-26.5 1.5q-84 0 -153 -7
q-74 -8 -74 -26q0 -12 8.5 -22.5t20.5 -10.5q36 0 96 7q65 6 96 6q0 -83 -25 -191.5t-74 -263.5q-42 -130 -56 -185t-39 -177q-23 -113 -39 -169l-31 -114l-18 -70q-21 -81 -21 -106q0 -31 31 -31zM270 119q-23 331 -23 764q0 379 23 379q58 0 109.5 -40t84.5 -104
q31 -62 49.5 -126.5t20.5 -119.5l10 -206q0 -19 1 -35q1 -17 1 -39q0 -362 -145 -492l-16 -13q-4 -3 -7.5 -5.5t-6.5 -5.5q-14 -10 -26 -27h-63l-6 27l-8 4z" />
    <glyph glyph-name="e" unicode="e" horiz-adv-x="640" 
d="M185 42q-1 -12 -1 -26q3 -43 41 -43h169q89 0 89 37q0 27 -60 27l-39 -2l-37 -2q-49 0 -67 15.5t-21 62.5q-6 83 -6 163l2 146l2 145q0 115 -4 162v6l10 10h9l67 -10q13 -16 47 -16q19 0 30 15.5t11 37.5q-1 37 -80 37q-5 0 -35 -2l-34 -2q-29 0 -29 57q0 64 4 159t4 159
q0 50 -2 88l10 12q54 -2 166 -39q38 22 38 41t-38 31t-89 18q-47 5 -60 8q-10 13 -33 13q-32 0 -45.5 -14t-13.5 -44q0 -50 4 -122q4 -73 4 -123q0 -117 -7 -309t-7 -308q0 -35 5 -135t5 -135q0 -43 -15 -84l7 -8q0 -14 -1 -26z" />
    <glyph glyph-name="eacute" unicode="&#xe9;" horiz-adv-x="640" 
d="M241.5 1668q10.5 -8 26.5 -8q151 129 256 176l6 31q0 32 -45 32q-7 -7 -76 -60q-77 -59 -122 -96q-56 -45 -56 -53q0 -14 10.5 -22zM185 42q-1 -12 -1 -26q3 -43 41 -43h169q89 0 89 37q0 27 -60 27l-39 -2l-37 -2q-49 0 -67 15.5t-21 62.5q-6 83 -6 163l2 146l2 145
q0 115 -4 162v6l10 10h9l67 -10q13 -16 47 -16q19 0 30 15.5t11 37.5q-1 37 -80 37q-5 0 -35 -2l-34 -2q-29 0 -29 57q0 64 4 159t4 159q0 50 -2 88l10 12q54 -2 166 -39q38 22 38 41t-38 31t-89 18q-47 5 -60 8q-10 13 -33 13q-32 0 -45.5 -14t-13.5 -44q0 -50 4 -122
q4 -73 4 -123q0 -117 -7 -309t-7 -308q0 -35 5 -135t5 -135q0 -43 -15 -84l7 -8q0 -14 -1 -26z" />
    <glyph glyph-name="ebreve" unicode="&#x115;" horiz-adv-x="640" 
d="M262 1622q16 -33 46.5 -51.5t71.5 -18.5q26 0 44 7q21 7 32.5 14t22.5 24q11 16 17.5 29t15.5 34q6 15 10 23l6 12l-5 15l6 15q5 13 5 17q0 12 -9.5 20.5t-21.5 8.5q-37 0 -37 -39q0 -8 1 -14q1 -7 1 -15q0 -20 -10 -44.5t-26.5 -42t-33.5 -17.5h-51l-22 16
q-22 16 -33 50.5t-19 81.5q-6 30 -20 32l-22 -18q0 -76 31 -139zM185 42q-1 -12 -1 -26q3 -43 41 -43h169q89 0 89 37q0 27 -60 27l-39 -2l-37 -2q-49 0 -67 15.5t-21 62.5q-6 83 -6 163l2 146l2 145q0 115 -4 162v6l10 10h9l67 -10q13 -16 47 -16q19 0 30 15.5t11 37.5
q-1 37 -80 37q-5 0 -35 -2l-34 -2q-29 0 -29 57q0 64 4 159t4 159q0 50 -2 88l10 12q54 -2 166 -39q38 22 38 41t-38 31t-89 18q-47 5 -60 8q-10 13 -33 13q-32 0 -45.5 -14t-13.5 -44q0 -50 4 -122q4 -73 4 -123q0 -117 -7 -309t-7 -308q0 -35 5 -135t5 -135q0 -43 -15 -84
l7 -8q0 -14 -1 -26z" />
    <glyph glyph-name="ecaron" unicode="&#x11b;" horiz-adv-x="640" 
d="M363 1561q-9 24 -31.5 88t-36.5 108q-16 49 -18 70l-35 47l-37 -27q1 -30 36.5 -116t76 -158t59.5 -72q29 0 29 43q0 38 9 76t28 90q15 45 24 74l-2 12l15 31l-2 10q8 18 8 23q0 18 -37 24l-27 -16q-11 -129 -59 -307zM185 42q-1 -12 -1 -26q3 -43 41 -43h169q89 0 89 37
q0 27 -60 27l-39 -2l-37 -2q-49 0 -67 15.5t-21 62.5q-6 83 -6 163l2 146l2 145q0 115 -4 162v6l10 10h9l67 -10q13 -16 47 -16q19 0 30 15.5t11 37.5q-1 37 -80 37q-5 0 -35 -2l-34 -2q-29 0 -29 57q0 64 4 159t4 159q0 50 -2 88l10 12q54 -2 166 -39q38 22 38 41t-38 31
t-89 18q-47 5 -60 8q-10 13 -33 13q-32 0 -45.5 -14t-13.5 -44q0 -50 4 -122q4 -73 4 -123q0 -117 -7 -309t-7 -308q0 -35 5 -135t5 -135q0 -43 -15 -84l7 -8q0 -14 -1 -26z" />
    <glyph glyph-name="uni0229" unicode="&#x229;" horiz-adv-x="640" 
d="M496 -320q0 -32 -22 -70.5t-58 -65t-75 -26.5q-32 0 -60 15t-28 40q0 21 22 21q13 0 33 -10q22 -11 33 -11q35 0 57.5 43t22.5 100q0 67 -31 91q-9 0 -27 -3q-17 -4 -28 -4q-30 0 -56 41q17 40 17 117v15h-71q-38 0 -41 43q0 14 1 26t1 26l-7 8q15 41 15 84q0 35 -5 135
t-5 135q0 116 7 308t7 309q0 50 -4 123q-4 72 -4 122q0 30 13.5 44t45.5 14q23 0 33 -13q13 -3 60 -8q51 -6 89 -18t38 -31t-38 -41q-112 37 -166 39l-10 -12q2 -38 2 -88q0 -64 -4 -159t-4 -159q0 -57 29 -57l34 2q30 2 35 2q79 0 80 -37q0 -22 -11 -37.5t-30 -15.5
q-34 0 -47 16l-67 10h-9l-10 -10v-6q4 -47 4 -162l-2 -145l-2 -146q0 -80 6 -163q3 -47 21 -62.5t67 -15.5l37 2l39 2q60 0 60 -27q0 -37 -89 -37h-41q-6 -41 -6 -87q149 -11 149 -206z" />
    <glyph glyph-name="ecircumflex" unicode="&#xea;" horiz-adv-x="640" 
d="M496 1526q0 4 -8 22l2 11l-15 30l2 13q-9 29 -24 74q-19 51 -28 89t-9 76q0 43 -29 43q-19 0 -59.5 -72t-76 -158t-36.5 -116l37 -26l35 47q2 21 18 70q14 44 36.5 108t31.5 88q48 -178 59 -307l27 -17q37 6 37 25zM185 42q-1 -12 -1 -26q3 -43 41 -43h169q89 0 89 37
q0 27 -60 27l-39 -2l-37 -2q-49 0 -67 15.5t-21 62.5q-6 83 -6 163l2 146l2 145q0 115 -4 162v6l10 10h9l67 -10q13 -16 47 -16q19 0 30 15.5t11 37.5q-1 37 -80 37q-5 0 -35 -2l-34 -2q-29 0 -29 57q0 64 4 159t4 159q0 50 -2 88l10 12q54 -2 166 -39q38 22 38 41t-38 31
t-89 18q-47 5 -60 8q-10 13 -33 13q-32 0 -45.5 -14t-13.5 -44q0 -50 4 -122q4 -73 4 -123q0 -117 -7 -309t-7 -308q0 -35 5 -135t5 -135q0 -43 -15 -84l7 -8q0 -14 -1 -26z" />
    <glyph glyph-name="uni0205" unicode="&#x205;" horiz-adv-x="640" 
d="M419.5 1791q-79.5 68 -164 131.5t-95.5 63.5q-4 0 -13 -11t-9 -20q0 -13 13 -20q147 -118 186 -145q23 -10 71 -46q51 -38 85 -45l9 11q-3 13 -82.5 81zM8 1911q-105 60 -115 60q-11 0 -25 -17t-17 -33l107 -60q33 -14 110 -55q3 -1 27 -16l23 -15q35 -24 74 -48
q34 -22 42 -22q11 0 11 15t-97 90q-106 80 -140 101zM185 42q-1 -12 -1 -26q3 -43 41 -43h169q89 0 89 37q0 27 -60 27l-39 -2l-37 -2q-49 0 -67 15.5t-21 62.5q-6 83 -6 163l2 146l2 145q0 115 -4 162v6l10 10h9l67 -10q13 -16 47 -16q19 0 30 15.5t11 37.5q-1 37 -80 37
q-5 0 -35 -2l-34 -2q-29 0 -29 57q0 64 4 159t4 159q0 50 -2 88l10 12q54 -2 166 -39q38 22 38 41t-38 31t-89 18q-47 5 -60 8q-10 13 -33 13q-32 0 -45.5 -14t-13.5 -44q0 -50 4 -122q4 -73 4 -123q0 -117 -7 -309t-7 -308q0 -35 5 -135t5 -135q0 -43 -15 -84l7 -8
q0 -14 -1 -26z" />
    <glyph glyph-name="edieresis" unicode="&#xeb;" horiz-adv-x="640" 
d="M556 1654.5q13 -14.5 28 -14.5q54 0 54 47q0 16 -14 32.5t-31 16.5q-19 0 -34.5 -16t-15.5 -35q0 -16 13 -30.5zM94.5 1648q11.5 -16 27.5 -16q20 0 35.5 9.5t15.5 25.5q0 28 -10.5 47.5t-30.5 19.5q-18 0 -33.5 -16.5t-15.5 -34.5q0 -19 11.5 -35zM185 42q-1 -12 -1 -26
q3 -43 41 -43h169q89 0 89 37q0 27 -60 27l-39 -2l-37 -2q-49 0 -67 15.5t-21 62.5q-6 83 -6 163l2 146l2 145q0 115 -4 162v6l10 10h9l67 -10q13 -16 47 -16q19 0 30 15.5t11 37.5q-1 37 -80 37q-5 0 -35 -2l-34 -2q-29 0 -29 57q0 64 4 159t4 159q0 50 -2 88l10 12
q54 -2 166 -39q38 22 38 41t-38 31t-89 18q-47 5 -60 8q-10 13 -33 13q-32 0 -45.5 -14t-13.5 -44q0 -50 4 -122q4 -73 4 -123q0 -117 -7 -309t-7 -308q0 -35 5 -135t5 -135q0 -43 -15 -84l7 -8q0 -14 -1 -26z" />
    <glyph glyph-name="edotaccent" unicode="&#x117;" horiz-adv-x="640" 
d="M310.5 1719.5q13.5 -15.5 31.5 -15.5q57 0 57 51q0 18 -15.5 35.5t-33.5 17.5q-20 0 -36.5 -17.5t-16.5 -37.5q0 -18 13.5 -33.5zM185 42q-1 -12 -1 -26q3 -43 41 -43h169q89 0 89 37q0 27 -60 27l-39 -2l-37 -2q-49 0 -67 15.5t-21 62.5q-6 83 -6 163l2 146l2 145
q0 115 -4 162v6l10 10h9l67 -10q13 -16 47 -16q19 0 30 15.5t11 37.5q-1 37 -80 37q-5 0 -35 -2l-34 -2q-29 0 -29 57q0 64 4 159t4 159q0 50 -2 88l10 12q54 -2 166 -39q38 22 38 41t-38 31t-89 18q-47 5 -60 8q-10 13 -33 13q-32 0 -45.5 -14t-13.5 -44q0 -50 4 -122
q4 -73 4 -123q0 -117 -7 -309t-7 -308q0 -35 5 -135t5 -135q0 -43 -15 -84l7 -8q0 -14 -1 -26z" />
    <glyph glyph-name="egrave" unicode="&#xe8;" horiz-adv-x="640" 
d="M264.5 1731.5q97.5 -34.5 101.5 -34.5q7 0 15.5 5.5t8.5 11.5q0 17 -39 39q-34 19 -84 39q-54 21 -81 30q-10 3 -16.5 5t-8.5 3q-18 23 -79 23h-13q-13 -9 -13 -45q0 -41 70 -41q16 0 33 4q8 -5 105.5 -39.5zM185 42q-1 -12 -1 -26q3 -43 41 -43h169q89 0 89 37
q0 27 -60 27l-39 -2l-37 -2q-49 0 -67 15.5t-21 62.5q-6 83 -6 163l2 146l2 145q0 115 -4 162v6l10 10h9l67 -10q13 -16 47 -16q19 0 30 15.5t11 37.5q-1 37 -80 37q-5 0 -35 -2l-34 -2q-29 0 -29 57q0 64 4 159t4 159q0 50 -2 88l10 12q54 -2 166 -39q38 22 38 41t-38 31
t-89 18q-47 5 -60 8q-10 13 -33 13q-32 0 -45.5 -14t-13.5 -44q0 -50 4 -122q4 -73 4 -123q0 -117 -7 -309t-7 -308q0 -35 5 -135t5 -135q0 -43 -15 -84l7 -8q0 -14 -1 -26z" />
    <glyph glyph-name="uni0207" unicode="&#x207;" horiz-adv-x="640" 
d="M263 1673q8 47 19 81.5t33 50.5l22 16h51q17 0 33.5 -17.5t26.5 -42t10 -44.5q0 -8 -1 -14q-1 -7 -1 -15q0 -39 37 -39q12 0 21.5 8.5t9.5 20.5q0 4 -5 17l-6 15l5 15q-2 4 -6 12.5t-10 23.5t-10 23l-6 12q-22 42 -41 52q-36 20 -75 20q-41 0 -71.5 -18.5t-46.5 -51.5
q-31 -63 -31 -139l22 -18q14 2 20 32zM185 42q-1 -12 -1 -26q3 -43 41 -43h169q89 0 89 37q0 27 -60 27l-39 -2l-37 -2q-49 0 -67 15.5t-21 62.5q-6 83 -6 163l2 146l2 145q0 115 -4 162v6l10 10h9l67 -10q13 -16 47 -16q19 0 30 15.5t11 37.5q-1 37 -80 37q-5 0 -35 -2
l-34 -2q-29 0 -29 57q0 64 4 159t4 159q0 50 -2 88l10 12q54 -2 166 -39q38 22 38 41t-38 31t-89 18q-47 5 -60 8q-10 13 -33 13q-32 0 -45.5 -14t-13.5 -44q0 -50 4 -122q4 -73 4 -123q0 -117 -7 -309t-7 -308q0 -35 5 -135t5 -135q0 -43 -15 -84l7 -8q0 -14 -1 -26z" />
    <glyph glyph-name="emacron" unicode="&#x113;" horiz-adv-x="640" 
d="M584 1690q-10 7 -34 10q-23 3 -46 3.5t-58 0.5h-116q-129 0 -131 -17q0 -7 5 -14q6 -8 39 -15q19 -4 65 -4h40h115q129 0 131 17q0 12 -10 19zM185 42q-1 -12 -1 -26q3 -43 41 -43h169q89 0 89 37q0 27 -60 27l-39 -2l-37 -2q-49 0 -67 15.5t-21 62.5q-6 83 -6 163l2 146
l2 145q0 115 -4 162v6l10 10h9l67 -10q13 -16 47 -16q19 0 30 15.5t11 37.5q-1 37 -80 37q-5 0 -35 -2l-34 -2q-29 0 -29 57q0 64 4 159t4 159q0 50 -2 88l10 12q54 -2 166 -39q38 22 38 41t-38 31t-89 18q-47 5 -60 8q-10 13 -33 13q-32 0 -45.5 -14t-13.5 -44
q0 -50 4 -122q4 -73 4 -123q0 -117 -7 -309t-7 -308q0 -35 5 -135t5 -135q0 -43 -15 -84l7 -8q0 -14 -1 -26z" />
    <glyph glyph-name="eogonek" unicode="&#x119;" horiz-adv-x="640" 
d="M306 -287q-1 -10 -1 -23q0 -27 22.5 -55.5t46.5 -28.5q11 0 33 11q20 10 33 10q22 0 22 -21q0 -25 -28 -40t-60 -15q-39 0 -75 26.5t-58 65t-22 70.5q0 47 14 96.5t36 88.5q26 43 49 75h-93q-38 0 -41 43q0 14 1 26t1 26l-7 8q15 41 15 84q0 35 -5 135t-5 135
q0 116 7 308t7 309q0 50 -4 123q-4 72 -4 122q0 30 13.5 44t45.5 14q23 0 33 -13q13 -3 60 -8q51 -6 89 -18t38 -31t-38 -41q-112 37 -166 39l-10 -12q2 -38 2 -88q0 -64 -4 -159t-4 -159q0 -57 29 -57l34 2q30 2 35 2q79 0 80 -37q0 -22 -11 -37.5t-30 -15.5q-34 0 -47 16
l-67 10h-9l-10 -10v-6q4 -47 4 -162l-2 -145l-2 -146q0 -80 6 -163q3 -47 21 -62.5t67 -15.5l37 2l39 2q60 0 60 -27q0 -37 -89 -37q-39 -51 -65 -114q-18 -44 -18 -79q0 -22 -4 -47z" />
    <glyph glyph-name="uni1EBD" unicode="&#x1ebd;" horiz-adv-x="640" 
d="M136 1582.5q13 -11.5 26 -11.5l22 31q-10 33 -10 43q0 23 23 39t53 16l14 -6q33 -39 52 -58q22 -23 59 -43t71 -20q28 0 53 15t40.5 40t15.5 53q0 29 -12 49.5t-35 20.5q-15 0 -21 -12q2 -8 7 -18q5 -15 5 -21q0 -73 -53 -73q-30 0 -66 24.5t-51 54.5q-36 42 -87 42
q-50 0 -84.5 -39t-34.5 -103q0 -12 13 -23.5zM185 42q-1 -12 -1 -26q3 -43 41 -43h169q89 0 89 37q0 27 -60 27l-39 -2l-37 -2q-49 0 -67 15.5t-21 62.5q-6 83 -6 163l2 146l2 145q0 115 -4 162v6l10 10h9l67 -10q13 -16 47 -16q19 0 30 15.5t11 37.5q-1 37 -80 37
q-5 0 -35 -2l-34 -2q-29 0 -29 57q0 64 4 159t4 159q0 50 -2 88l10 12q54 -2 166 -39q38 22 38 41t-38 31t-89 18q-47 5 -60 8q-10 13 -33 13q-32 0 -45.5 -14t-13.5 -44q0 -50 4 -122q4 -73 4 -123q0 -117 -7 -309t-7 -308q0 -35 5 -135t5 -135q0 -43 -15 -84l7 -8
q0 -14 -1 -26z" />
    <glyph glyph-name="f" unicode="f" horiz-adv-x="620" 
d="M253 53q0 50 -6 147q-6 98 -6 146v232q0 100 37 100q12 0 34 -6q23 -6 34 -6q18 0 33.5 11.5t15.5 27.5q0 32 -103 32h-11q-23 0 -23 6v72q0 78 10 215q10 136 10 217q6 14 8 22q3 11 5 14t9 5q10 2 25 2q75 0 113 -20q73 0 73 35q0 18 -42.5 31.5t-101 20.5t-101.5 7
q-22 0 -39 -10.5t-17 -28.5q0 -127 -14 -412q-14 -286 -14 -413q0 -307 -19 -498l41 -31q49 0 49 82z" />
    <glyph glyph-name="uni1E1F" unicode="&#x1e1f;" horiz-adv-x="620" 
d="M320.5 1719.5q13.5 -15.5 31.5 -15.5q57 0 57 51q0 18 -15.5 35.5t-33.5 17.5q-20 0 -36.5 -17.5t-16.5 -37.5q0 -18 13.5 -33.5zM253 53q0 50 -6 147q-6 98 -6 146v232q0 100 37 100q12 0 34 -6q23 -6 34 -6q18 0 33.5 11.5t15.5 27.5q0 32 -103 32h-11q-23 0 -23 6v72
q0 78 10 215q10 136 10 217q6 14 8 22q3 11 5 14t9 5q10 2 25 2q75 0 113 -20q73 0 73 35q0 18 -42.5 31.5t-101 20.5t-101.5 7q-22 0 -39 -10.5t-17 -28.5q0 -127 -14 -412q-14 -286 -14 -413q0 -307 -19 -498l41 -31q49 0 49 82z" />
    <glyph glyph-name="g" unicode="g" horiz-adv-x="820" 
d="M180 302q17 -143 39 -207t67 -86.5t139 -22.5q103 0 209 106q0 64 -4 157t-4 157q0 26 12 77q11 53 11 76q0 14 -24 23q-22 8 -61 13q-61 5 -104 5q-49 0 -49 -35q0 -24 49 -24q14 0 23 1l16 1q51 0 72 -21v-113q0 -77 -5 -156q-3 -43 -11 -75t-22 -68q-13 -31 -35 -48
t-50 -17q-71 0 -112 35q-37 32 -51 82.5t-18 121.5q-6 86 -11 129.5t-19 65.5q-6 50 -6 150q0 74 3 158q2 59 6.5 107.5t13.5 117.5q8 60 21.5 107t34.5 94q18 42 45.5 64.5t61.5 22.5l20 -2l19 -2q15 0 28 9t13 22q0 29 -63 29q-12 0 -32 -2q-93 -10 -139 -66t-61 -134
t-24 -215l-2 -28l-11 -128q-10 -99 -10 -160q0 -121 25 -321z" />
    <glyph glyph-name="uni01F5" unicode="&#x1f5;" horiz-adv-x="820" 
d="M301.5 1668q10.5 -8 26.5 -8q151 129 256 176l6 31q0 32 -45 32q-7 -7 -76 -60q-77 -59 -122 -96q-56 -45 -56 -53q0 -14 10.5 -22zM180 302q17 -143 39 -207t67 -86.5t139 -22.5q103 0 209 106q0 64 -4 157t-4 157q0 26 12 77q11 53 11 76q0 14 -24 23q-22 8 -61 13
q-61 5 -104 5q-49 0 -49 -35q0 -24 49 -24q14 0 23 1l16 1q51 0 72 -21v-113q0 -77 -5 -156q-3 -43 -11 -75t-22 -68q-13 -31 -35 -48t-50 -17q-71 0 -112 35q-37 32 -51 82.5t-18 121.5q-6 86 -11 129.5t-19 65.5q-6 50 -6 150q0 74 3 158q2 59 6.5 107.5t13.5 117.5
q8 60 21.5 107t34.5 94q18 42 45.5 64.5t61.5 22.5l20 -2l19 -2q15 0 28 9t13 22q0 29 -63 29q-12 0 -32 -2q-93 -10 -139 -66t-61 -134t-24 -215l-2 -28l-11 -128q-10 -99 -10 -160q0 -121 25 -321z" />
    <glyph glyph-name="gbreve" unicode="&#x11f;" horiz-adv-x="820" 
d="M322 1622q16 -33 46.5 -51.5t71.5 -18.5q26 0 44 7q21 7 32.5 14t22.5 24q11 16 17.5 29t15.5 34q6 15 10 23l6 12l-5 15l6 15q5 13 5 17q0 12 -9.5 20.5t-21.5 8.5q-37 0 -37 -39q0 -8 1 -14q1 -7 1 -15q0 -20 -10 -44.5t-26.5 -42t-33.5 -17.5h-51l-22 16
q-22 16 -33 50.5t-19 81.5q-6 30 -20 32l-22 -18q0 -76 31 -139zM180 302q17 -143 39 -207t67 -86.5t139 -22.5q103 0 209 106q0 64 -4 157t-4 157q0 26 12 77q11 53 11 76q0 14 -24 23q-22 8 -61 13q-61 5 -104 5q-49 0 -49 -35q0 -24 49 -24q14 0 23 1l16 1q51 0 72 -21
v-113q0 -77 -5 -156q-3 -43 -11 -75t-22 -68q-13 -31 -35 -48t-50 -17q-71 0 -112 35q-37 32 -51 82.5t-18 121.5q-6 86 -11 129.5t-19 65.5q-6 50 -6 150q0 74 3 158q2 59 6.5 107.5t13.5 117.5q8 60 21.5 107t34.5 94q18 42 45.5 64.5t61.5 22.5l20 -2l19 -2q15 0 28 9
t13 22q0 29 -63 29q-12 0 -32 -2q-93 -10 -139 -66t-61 -134t-24 -215l-2 -28l-11 -128q-10 -99 -10 -160q0 -121 25 -321z" />
    <glyph glyph-name="gcaron" unicode="&#x1e7;" horiz-adv-x="820" 
d="M423 1561q-9 24 -31.5 88t-36.5 108q-16 49 -18 70l-35 47l-37 -27q1 -30 36.5 -116t76 -158t59.5 -72q29 0 29 43q0 38 9 76t28 90q15 45 24 74l-2 12l15 31l-2 10q8 18 8 23q0 18 -37 24l-27 -16q-11 -129 -59 -307zM180 302q17 -143 39 -207t67 -86.5t139 -22.5
q103 0 209 106q0 64 -4 157t-4 157q0 26 12 77q11 53 11 76q0 14 -24 23q-22 8 -61 13q-61 5 -104 5q-49 0 -49 -35q0 -24 49 -24q14 0 23 1l16 1q51 0 72 -21v-113q0 -77 -5 -156q-3 -43 -11 -75t-22 -68q-13 -31 -35 -48t-50 -17q-71 0 -112 35q-37 32 -51 82.5t-18 121.5
q-6 86 -11 129.5t-19 65.5q-6 50 -6 150q0 74 3 158q2 59 6.5 107.5t13.5 117.5q8 60 21.5 107t34.5 94q18 42 45.5 64.5t61.5 22.5l20 -2l19 -2q15 0 28 9t13 22q0 29 -63 29q-12 0 -32 -2q-93 -10 -139 -66t-61 -134t-24 -215l-2 -28l-11 -128q-10 -99 -10 -160
q0 -121 25 -321z" />
    <glyph glyph-name="gcircumflex" unicode="&#x11d;" horiz-adv-x="820" 
d="M556 1526q0 4 -8 22l2 11l-15 30l2 13q-9 29 -24 74q-19 51 -28 89t-9 76q0 43 -29 43q-19 0 -59.5 -72t-76 -158t-36.5 -116l37 -26l35 47q2 21 18 70q14 44 36.5 108t31.5 88q48 -178 59 -307l27 -17q37 6 37 25zM180 302q17 -143 39 -207t67 -86.5t139 -22.5
q103 0 209 106q0 64 -4 157t-4 157q0 26 12 77q11 53 11 76q0 14 -24 23q-22 8 -61 13q-61 5 -104 5q-49 0 -49 -35q0 -24 49 -24q14 0 23 1l16 1q51 0 72 -21v-113q0 -77 -5 -156q-3 -43 -11 -75t-22 -68q-13 -31 -35 -48t-50 -17q-71 0 -112 35q-37 32 -51 82.5t-18 121.5
q-6 86 -11 129.5t-19 65.5q-6 50 -6 150q0 74 3 158q2 59 6.5 107.5t13.5 117.5q8 60 21.5 107t34.5 94q18 42 45.5 64.5t61.5 22.5l20 -2l19 -2q15 0 28 9t13 22q0 29 -63 29q-12 0 -32 -2q-93 -10 -139 -66t-61 -134t-24 -215l-2 -28l-11 -128q-10 -99 -10 -160
q0 -121 25 -321z" />
    <glyph glyph-name="gcommaaccent" unicode="&#x123;" horiz-adv-x="820" 
d="M515 1764q0 10 -7 16.5t-19 6.5q-13 0 -28 -9q-43 -29 -80.5 -74.5t-60.5 -92.5t-23 -81q0 -82 90 -82q33 0 55 16t22 48q0 40 -13.5 61.5t-45.5 28.5q0 20 7 35q10 28 44 62q24 24 56 52q3 6 3 13zM180 302q17 -143 39 -207t67 -86.5t139 -22.5q103 0 209 106
q0 64 -4 157t-4 157q0 26 12 77q11 53 11 76q0 14 -24 23q-22 8 -61 13q-61 5 -104 5q-49 0 -49 -35q0 -24 49 -24q14 0 23 1l16 1q51 0 72 -21v-113q0 -77 -5 -156q-3 -43 -11 -75t-22 -68q-13 -31 -35 -48t-50 -17q-71 0 -112 35q-37 32 -51 82.5t-18 121.5
q-6 86 -11 129.5t-19 65.5q-6 50 -6 150q0 74 3 158q2 59 6.5 107.5t13.5 117.5q8 60 21.5 107t34.5 94q18 42 45.5 64.5t61.5 22.5l20 -2l19 -2q15 0 28 9t13 22q0 29 -63 29q-12 0 -32 -2q-93 -10 -139 -66t-61 -134t-24 -215l-2 -28l-11 -128q-10 -99 -10 -160
q0 -121 25 -321z" />
    <glyph glyph-name="gdotaccent" unicode="&#x121;" horiz-adv-x="820" 
d="M370.5 1719.5q13.5 -15.5 31.5 -15.5q57 0 57 51q0 18 -15.5 35.5t-33.5 17.5q-20 0 -36.5 -17.5t-16.5 -37.5q0 -18 13.5 -33.5zM180 302q17 -143 39 -207t67 -86.5t139 -22.5q103 0 209 106q0 64 -4 157t-4 157q0 26 12 77q11 53 11 76q0 14 -24 23q-22 8 -61 13
q-61 5 -104 5q-49 0 -49 -35q0 -24 49 -24q14 0 23 1l16 1q51 0 72 -21v-113q0 -77 -5 -156q-3 -43 -11 -75t-22 -68q-13 -31 -35 -48t-50 -17q-71 0 -112 35q-37 32 -51 82.5t-18 121.5q-6 86 -11 129.5t-19 65.5q-6 50 -6 150q0 74 3 158q2 59 6.5 107.5t13.5 117.5
q8 60 21.5 107t34.5 94q18 42 45.5 64.5t61.5 22.5l20 -2l19 -2q15 0 28 9t13 22q0 29 -63 29q-12 0 -32 -2q-93 -10 -139 -66t-61 -134t-24 -215l-2 -28l-11 -128q-10 -99 -10 -160q0 -121 25 -321z" />
    <glyph glyph-name="h" unicode="h" horiz-adv-x="740" 
d="M556 -23l13 23q-13 169 -13 406q0 170 -13 478q-13 306 -13 478l-18 7q-18 5 -19 5q-13 0 -24 -9.5t-11 -21.5q0 -88 14 -282q13 -182 13 -283q0 -37 -17 -52t-57 -15h-7q-157 0 -157 24q0 97 4 248q4 149 4 252q0 119 -41 119q-14 0 -24.5 -12t-10.5 -27q0 -69 8 -239
q7 -150 7 -240q0 -117 -10 -136q6 -13 6 -200l-2 -187l-2 -188q0 -123 45 -123q17 0 25.5 15.5t8.5 37.5q0 57 -6 171t-6 171l-6 9q0 44 3 129q3 86 3 129l21 8q24 0 65 -10q46 -11 66 -11q23 0 41 6l32 -8q7 -41 7 -76l-7 -18l5 -8q0 -116 10 -549q62 0 63 -21zM431 735
l-4 4v-4h4z" />
    <glyph glyph-name="hbar" unicode="&#x127;" horiz-adv-x="740" 
d="M569 0l-13 -23q-1 21 -63 21q-10 433 -10 549l-5 8l7 18q0 35 -7 76l-32 8q-18 -6 -41 -6q-20 0 -66 11q-41 10 -65 10l-21 -8q0 -43 -3 -129q-3 -85 -3 -129l6 -9q0 -57 6 -171t6 -171q0 -22 -8.5 -37.5t-25.5 -15.5q-45 0 -45 123l2 188l2 187q0 187 -6 200
q10 19 10 136q0 89 -5 195q-14 2 -25 11t-11 23q0 9 34 19q-8 163 -8 231q0 15 10.5 27t24.5 12q41 0 41 -119q0 -80 -1 -136q103 19 214 24q-10 136 -10 220q0 12 11 21.5t24 9.5q1 0 19 -5l18 -7q0 -121 5 -250q13 -11 13 -23q0 -6 -12 -12l7 -193q13 -308 13 -478
q0 -237 13 -406zM468 726q17 15 17 52q0 100 -13 281q-45 -9 -105 -16.5t-115 -10.5l-1 -49q-4 -151 -4 -248q0 -24 157 -24h7q40 0 57 15zM427 739l4 -4h-4v4z" />
    <glyph glyph-name="uni021F" unicode="&#x21f;" horiz-adv-x="740" 
d="M363 1561q-9 24 -31.5 88t-36.5 108q-16 49 -18 70l-35 47l-37 -27q1 -30 36.5 -116t76 -158t59.5 -72q29 0 29 43q0 38 9 76t28 90q15 45 24 74l-2 12l15 31l-2 10q8 18 8 23q0 18 -37 24l-27 -16q-11 -129 -59 -307zM556 -23l13 23q-13 169 -13 406q0 170 -13 478
q-13 306 -13 478l-18 7q-18 5 -19 5q-13 0 -24 -9.5t-11 -21.5q0 -88 14 -282q13 -182 13 -283q0 -37 -17 -52t-57 -15h-7q-157 0 -157 24q0 97 4 248q4 149 4 252q0 119 -41 119q-14 0 -24.5 -12t-10.5 -27q0 -69 8 -239q7 -150 7 -240q0 -117 -10 -136q6 -13 6 -200
l-2 -187l-2 -188q0 -123 45 -123q17 0 25.5 15.5t8.5 37.5q0 57 -6 171t-6 171l-6 9q0 44 3 129q3 86 3 129l21 8q24 0 65 -10q46 -11 66 -11q23 0 41 6l32 -8q7 -41 7 -76l-7 -18l5 -8q0 -116 10 -549q62 0 63 -21zM431 735l-4 4v-4h4z" />
    <glyph glyph-name="hcircumflex" unicode="&#x125;" horiz-adv-x="740" 
d="M496 1526q0 4 -8 22l2 11l-15 30l2 13q-9 29 -24 74q-19 51 -28 89t-9 76q0 43 -29 43q-19 0 -59.5 -72t-76 -158t-36.5 -116l37 -26l35 47q2 21 18 70q14 44 36.5 108t31.5 88q48 -178 59 -307l27 -17q37 6 37 25zM556 -23l13 23q-13 169 -13 406q0 170 -13 478
q-13 306 -13 478l-18 7q-18 5 -19 5q-13 0 -24 -9.5t-11 -21.5q0 -88 14 -282q13 -182 13 -283q0 -37 -17 -52t-57 -15h-7q-157 0 -157 24q0 97 4 248q4 149 4 252q0 119 -41 119q-14 0 -24.5 -12t-10.5 -27q0 -69 8 -239q7 -150 7 -240q0 -117 -10 -136q6 -13 6 -200
l-2 -187l-2 -188q0 -123 45 -123q17 0 25.5 15.5t8.5 37.5q0 57 -6 171t-6 171l-6 9q0 44 3 129q3 86 3 129l21 8q24 0 65 -10q46 -11 66 -11q23 0 41 6l32 -8q7 -41 7 -76l-7 -18l5 -8q0 -116 10 -549q62 0 63 -21zM431 735l-4 4v-4h4z" />
    <glyph glyph-name="i" unicode="i" horiz-adv-x="700" 
d="M356 0q13 0 35 12q24 11 38 11q12 0 34 -3q20 -4 34 -4q19 0 32 11.5t13 29.5q0 29 -61 29q-17 0 -30 -1t-30 -1q-45 0 -45 20l2 5q-6 9 -6 57q0 22 1 37l1 26q0 85 -7 225q-7 139 -7 224q0 81 3 244q3 162 3 243q0 91 -6 109l10 6q43 0 59 -12l47 4q5 12 5 16
q0 22 -36 35q-41 15 -94 19q-88 8 -155 8q-13 0 -31 -8.5t-18 -16.5q0 -35 39 -35l25 2l24 2q42 0 61 -6q10 -93 10 -237q0 -61 -5 -238q-5 -178 -5 -240q0 -66 8 -224q7 -139 7 -224q0 -7 -3 -24q-4 -15 -4 -19l-8 -8h-59l-12 -11q-9 -6 -12 -11t-3 -13q12 -21 56 -21
q9 0 17 1q7 1 17 1q8 -20 56 -20z" />
    <glyph glyph-name="dotlessi" unicode="&#x131;" horiz-adv-x="700" 
d="M356 0q13 0 35 12q24 11 38 11q12 0 34 -3q20 -4 34 -4q19 0 32 11.5t13 29.5q0 29 -61 29q-17 0 -30 -1t-30 -1q-45 0 -45 20l2 5q-6 9 -6 57q0 22 1 37l1 26q0 85 -7 225q-7 139 -7 224q0 81 3 244q3 162 3 243q0 91 -6 109l10 6q43 0 59 -12l47 4q5 12 5 16
q0 22 -36 35q-41 15 -94 19q-88 8 -155 8q-13 0 -31 -8.5t-18 -16.5q0 -35 39 -35l25 2l24 2q42 0 61 -6q10 -93 10 -237q0 -61 -5 -238q-5 -178 -5 -240q0 -66 8 -224q7 -139 7 -224q0 -7 -3 -24q-4 -15 -4 -19l-8 -8h-59l-12 -11q-9 -6 -12 -11t-3 -13q12 -21 56 -21
q9 0 17 1q7 1 17 1q8 -20 56 -20z" />
    <glyph glyph-name="iacute" unicode="&#xed;" horiz-adv-x="700" 
d="M213.5 1668q10.5 -8 26.5 -8q151 129 256 176l6 31q0 32 -45 32q-7 -7 -76 -60q-77 -59 -122 -96q-56 -45 -56 -53q0 -14 10.5 -22zM356 0q13 0 35 12q24 11 38 11q12 0 34 -3q20 -4 34 -4q19 0 32 11.5t13 29.5q0 29 -61 29q-17 0 -30 -1t-30 -1q-45 0 -45 20l2 5
q-6 9 -6 57q0 22 1 37l1 26q0 85 -7 225q-7 139 -7 224q0 81 3 244q3 162 3 243q0 91 -6 109l10 6q43 0 59 -12l47 4q5 12 5 16q0 22 -36 35q-41 15 -94 19q-88 8 -155 8q-13 0 -31 -8.5t-18 -16.5q0 -35 39 -35l25 2l24 2q42 0 61 -6q10 -93 10 -237q0 -61 -5 -238
q-5 -178 -5 -240q0 -66 8 -224q7 -139 7 -224q0 -7 -3 -24q-4 -15 -4 -19l-8 -8h-59l-12 -11q-9 -6 -12 -11t-3 -13q12 -21 56 -21q9 0 17 1q7 1 17 1q8 -20 56 -20z" />
    <glyph glyph-name="ibreve" unicode="&#x12d;" horiz-adv-x="700" 
d="M234 1622q16 -33 46.5 -51.5t71.5 -18.5q26 0 44 7q21 7 32.5 14t22.5 24q11 16 17.5 29t15.5 34q6 15 10 23l6 12l-5 15l6 15q5 13 5 17q0 12 -9.5 20.5t-21.5 8.5q-37 0 -37 -39q0 -8 1 -14q1 -7 1 -15q0 -20 -10 -44.5t-26.5 -42t-33.5 -17.5h-51l-22 16
q-22 16 -33 50.5t-19 81.5q-6 30 -20 32l-22 -18q0 -76 31 -139zM356 0q13 0 35 12q24 11 38 11q12 0 34 -3q20 -4 34 -4q19 0 32 11.5t13 29.5q0 29 -61 29q-17 0 -30 -1t-30 -1q-45 0 -45 20l2 5q-6 9 -6 57q0 22 1 37l1 26q0 85 -7 225q-7 139 -7 224q0 81 3 244
q3 162 3 243q0 91 -6 109l10 6q43 0 59 -12l47 4q5 12 5 16q0 22 -36 35q-41 15 -94 19q-88 8 -155 8q-13 0 -31 -8.5t-18 -16.5q0 -35 39 -35l25 2l24 2q42 0 61 -6q10 -93 10 -237q0 -61 -5 -238q-5 -178 -5 -240q0 -66 8 -224q7 -139 7 -224q0 -7 -3 -24q-4 -15 -4 -19
l-8 -8h-59l-12 -11q-9 -6 -12 -11t-3 -13q12 -21 56 -21q9 0 17 1q7 1 17 1q8 -20 56 -20z" />
    <glyph glyph-name="uni01D0" unicode="&#x1d0;" horiz-adv-x="700" 
d="M335 1561q-9 24 -31.5 88t-36.5 108q-16 49 -18 70l-35 47l-37 -27q1 -30 36.5 -116t76 -158t59.5 -72q29 0 29 43q0 38 9 76t28 90q15 45 24 74l-2 12l15 31l-2 10q8 18 8 23q0 18 -37 24l-27 -16q-11 -129 -59 -307zM356 0q13 0 35 12q24 11 38 11q12 0 34 -3
q20 -4 34 -4q19 0 32 11.5t13 29.5q0 29 -61 29q-17 0 -30 -1t-30 -1q-45 0 -45 20l2 5q-6 9 -6 57q0 22 1 37l1 26q0 85 -7 225q-7 139 -7 224q0 81 3 244q3 162 3 243q0 91 -6 109l10 6q43 0 59 -12l47 4q5 12 5 16q0 22 -36 35q-41 15 -94 19q-88 8 -155 8
q-13 0 -31 -8.5t-18 -16.5q0 -35 39 -35l25 2l24 2q42 0 61 -6q10 -93 10 -237q0 -61 -5 -238q-5 -178 -5 -240q0 -66 8 -224q7 -139 7 -224q0 -7 -3 -24q-4 -15 -4 -19l-8 -8h-59l-12 -11q-9 -6 -12 -11t-3 -13q12 -21 56 -21q9 0 17 1q7 1 17 1q8 -20 56 -20z" />
    <glyph glyph-name="icircumflex" unicode="&#xee;" horiz-adv-x="700" 
d="M468 1526q0 4 -8 22l2 11l-15 30l2 13q-9 29 -24 74q-19 51 -28 89t-9 76q0 43 -29 43q-19 0 -59.5 -72t-76 -158t-36.5 -116l37 -26l35 47q2 21 18 70q14 44 36.5 108t31.5 88q48 -178 59 -307l27 -17q37 6 37 25zM356 0q13 0 35 12q24 11 38 11q12 0 34 -3q20 -4 34 -4
q19 0 32 11.5t13 29.5q0 29 -61 29q-17 0 -30 -1t-30 -1q-45 0 -45 20l2 5q-6 9 -6 57q0 22 1 37l1 26q0 85 -7 225q-7 139 -7 224q0 81 3 244q3 162 3 243q0 91 -6 109l10 6q43 0 59 -12l47 4q5 12 5 16q0 22 -36 35q-41 15 -94 19q-88 8 -155 8q-13 0 -31 -8.5t-18 -16.5
q0 -35 39 -35l25 2l24 2q42 0 61 -6q10 -93 10 -237q0 -61 -5 -238q-5 -178 -5 -240q0 -66 8 -224q7 -139 7 -224q0 -7 -3 -24q-4 -15 -4 -19l-8 -8h-59l-12 -11q-9 -6 -12 -11t-3 -13q12 -21 56 -21q9 0 17 1q7 1 17 1q8 -20 56 -20z" />
    <glyph glyph-name="uni0209" unicode="&#x209;" horiz-adv-x="700" 
d="M391.5 1791q-79.5 68 -164 131.5t-95.5 63.5q-4 0 -13 -11t-9 -20q0 -13 13 -20q147 -118 186 -145q23 -10 71 -46q51 -38 85 -45l9 11q-3 13 -82.5 81zM-20 1911q-105 60 -115 60q-11 0 -25 -17t-17 -33l107 -60q33 -14 110 -55q3 -1 27 -16l23 -15q35 -24 74 -48
q34 -22 42 -22q11 0 11 15t-97 90q-106 80 -140 101zM356 0q13 0 35 12q24 11 38 11q12 0 34 -3q20 -4 34 -4q19 0 32 11.5t13 29.5q0 29 -61 29q-17 0 -30 -1t-30 -1q-45 0 -45 20l2 5q-6 9 -6 57q0 22 1 37l1 26q0 85 -7 225q-7 139 -7 224q0 81 3 244q3 162 3 243
q0 91 -6 109l10 6q43 0 59 -12l47 4q5 12 5 16q0 22 -36 35q-41 15 -94 19q-88 8 -155 8q-13 0 -31 -8.5t-18 -16.5q0 -35 39 -35l25 2l24 2q42 0 61 -6q10 -93 10 -237q0 -61 -5 -238q-5 -178 -5 -240q0 -66 8 -224q7 -139 7 -224q0 -7 -3 -24q-4 -15 -4 -19l-8 -8h-59
l-12 -11q-9 -6 -12 -11t-3 -13q12 -21 56 -21q9 0 17 1q7 1 17 1q8 -20 56 -20z" />
    <glyph glyph-name="idieresis" unicode="&#xef;" horiz-adv-x="700" 
d="M528 1654.5q13 -14.5 28 -14.5q54 0 54 47q0 16 -14 32.5t-31 16.5q-19 0 -34.5 -16t-15.5 -35q0 -16 13 -30.5zM66.5 1648q11.5 -16 27.5 -16q20 0 35.5 9.5t15.5 25.5q0 28 -10.5 47.5t-30.5 19.5q-18 0 -33.5 -16.5t-15.5 -34.5q0 -19 11.5 -35zM356 0q13 0 35 12
q24 11 38 11q12 0 34 -3q20 -4 34 -4q19 0 32 11.5t13 29.5q0 29 -61 29q-17 0 -30 -1t-30 -1q-45 0 -45 20l2 5q-6 9 -6 57q0 22 1 37l1 26q0 85 -7 225q-7 139 -7 224q0 81 3 244q3 162 3 243q0 91 -6 109l10 6q43 0 59 -12l47 4q5 12 5 16q0 22 -36 35q-41 15 -94 19
q-88 8 -155 8q-13 0 -31 -8.5t-18 -16.5q0 -35 39 -35l25 2l24 2q42 0 61 -6q10 -93 10 -237q0 -61 -5 -238q-5 -178 -5 -240q0 -66 8 -224q7 -139 7 -224q0 -7 -3 -24q-4 -15 -4 -19l-8 -8h-59l-12 -11q-9 -6 -12 -11t-3 -13q12 -21 56 -21q9 0 17 1q7 1 17 1q8 -20 56 -20
z" />
    <glyph glyph-name="igrave" unicode="&#xec;" horiz-adv-x="700" 
d="M236.5 1731.5q97.5 -34.5 101.5 -34.5q7 0 15.5 5.5t8.5 11.5q0 17 -39 39q-34 19 -84 39q-54 21 -81 30q-10 3 -16.5 5t-8.5 3q-18 23 -79 23h-13q-13 -9 -13 -45q0 -41 70 -41q16 0 33 4q8 -5 105.5 -39.5zM356 0q13 0 35 12q24 11 38 11q12 0 34 -3q20 -4 34 -4
q19 0 32 11.5t13 29.5q0 29 -61 29q-17 0 -30 -1t-30 -1q-45 0 -45 20l2 5q-6 9 -6 57q0 22 1 37l1 26q0 85 -7 225q-7 139 -7 224q0 81 3 244q3 162 3 243q0 91 -6 109l10 6q43 0 59 -12l47 4q5 12 5 16q0 22 -36 35q-41 15 -94 19q-88 8 -155 8q-13 0 -31 -8.5t-18 -16.5
q0 -35 39 -35l25 2l24 2q42 0 61 -6q10 -93 10 -237q0 -61 -5 -238q-5 -178 -5 -240q0 -66 8 -224q7 -139 7 -224q0 -7 -3 -24q-4 -15 -4 -19l-8 -8h-59l-12 -11q-9 -6 -12 -11t-3 -13q12 -21 56 -21q9 0 17 1q7 1 17 1q8 -20 56 -20z" />
    <glyph glyph-name="uni020B" unicode="&#x20b;" horiz-adv-x="700" 
d="M235 1673q8 47 19 81.5t33 50.5l22 16h51q17 0 33.5 -17.5t26.5 -42t10 -44.5q0 -8 -1 -14q-1 -7 -1 -15q0 -39 37 -39q12 0 21.5 8.5t9.5 20.5q0 4 -5 17l-6 15l5 15q-2 4 -6 12.5t-10 23.5t-10 23l-6 12q-22 42 -41 52q-36 20 -75 20q-41 0 -71.5 -18.5t-46.5 -51.5
q-31 -63 -31 -139l22 -18q14 2 20 32zM356 0q13 0 35 12q24 11 38 11q12 0 34 -3q20 -4 34 -4q19 0 32 11.5t13 29.5q0 29 -61 29q-17 0 -30 -1t-30 -1q-45 0 -45 20l2 5q-6 9 -6 57q0 22 1 37l1 26q0 85 -7 225q-7 139 -7 224q0 81 3 244q3 162 3 243q0 91 -6 109l10 6
q43 0 59 -12l47 4q5 12 5 16q0 22 -36 35q-41 15 -94 19q-88 8 -155 8q-13 0 -31 -8.5t-18 -16.5q0 -35 39 -35l25 2l24 2q42 0 61 -6q10 -93 10 -237q0 -61 -5 -238q-5 -178 -5 -240q0 -66 8 -224q7 -139 7 -224q0 -7 -3 -24q-4 -15 -4 -19l-8 -8h-59l-12 -11
q-9 -6 -12 -11t-3 -13q12 -21 56 -21q9 0 17 1q7 1 17 1q8 -20 56 -20z" />
    <glyph glyph-name="ij" unicode="&#x133;" horiz-adv-x="1320" 
d="M803 -201l1 -4l47 -47h14q49 0 91.5 34t67.5 88q24 51 37 102.5t13 93.5q0 59 12 86v225q0 154 -10 424t-10 426q0 41 18 41q22 0 56 -10q36 -11 55 -11q13 0 23 7.5t10 19.5q0 17 -66.5 37t-151 34.5t-124.5 14.5q-10 0 -26.5 -8.5t-16.5 -16.5q0 -16 30 -27
q32 -12 70 -16q41 -6 49 -10l12 -22q0 -198 10 -544q9 -363 9 -544q0 -73 -17.5 -147t-48.5 -109q-6 -7 -47 -34l-46 -30l-28 -19q-34 -22 -34 -30zM356 0q13 0 35 12q24 11 38 11q12 0 34 -3q20 -4 34 -4q19 0 32 11.5t13 29.5q0 29 -61 29q-17 0 -30 -1t-30 -1
q-45 0 -45 20l2 5q-6 9 -6 57q0 22 1 37l1 26q0 85 -7 225q-7 139 -7 224q0 81 3 244q3 162 3 243q0 91 -6 109l10 6q43 0 59 -12l47 4q5 12 5 16q0 22 -36 35q-41 15 -94 19q-88 8 -155 8q-13 0 -31 -8.5t-18 -16.5q0 -35 39 -35l25 2l24 2q42 0 61 -6q10 -93 10 -237
q0 -61 -5 -238q-5 -178 -5 -240q0 -66 8 -224q7 -139 7 -224q0 -7 -3 -24q-4 -15 -4 -19l-8 -8h-59l-12 -11q-9 -6 -12 -11t-3 -13q12 -21 56 -21q9 0 17 1q7 1 17 1q8 -20 56 -20z" />
    <glyph glyph-name="imacron" unicode="&#x12b;" horiz-adv-x="700" 
d="M556 1690q-10 7 -34 10q-23 3 -46 3.5t-58 0.5h-116q-129 0 -131 -17q0 -7 5 -14q6 -8 39 -15q19 -4 65 -4h40h115q129 0 131 17q0 12 -10 19zM356 0q13 0 35 12q24 11 38 11q12 0 34 -3q20 -4 34 -4q19 0 32 11.5t13 29.5q0 29 -61 29q-17 0 -30 -1t-30 -1q-45 0 -45 20
l2 5q-6 9 -6 57q0 22 1 37l1 26q0 85 -7 225q-7 139 -7 224q0 81 3 244q3 162 3 243q0 91 -6 109l10 6q43 0 59 -12l47 4q5 12 5 16q0 22 -36 35q-41 15 -94 19q-88 8 -155 8q-13 0 -31 -8.5t-18 -16.5q0 -35 39 -35l25 2l24 2q42 0 61 -6q10 -93 10 -237q0 -61 -5 -238
q-5 -178 -5 -240q0 -66 8 -224q7 -139 7 -224q0 -7 -3 -24q-4 -15 -4 -19l-8 -8h-59l-12 -11q-9 -6 -12 -11t-3 -13q12 -21 56 -21q9 0 17 1q7 1 17 1q8 -20 56 -20z" />
    <glyph glyph-name="iogonek" unicode="&#x12f;" horiz-adv-x="700" 
d="M542 57q0 -18 -13 -29.5t-32 -11.5q-14 0 -34 4q-22 3 -34 3q-14 0 -38 -11l-4 -2l13 -2l2 1l1 -1q0 -1 -17 -26q-24 -32 -42.5 -61.5t-33.5 -67.5q-18 -44 -18 -79q0 -22 -4 -47l-1 -20q-1 -10 -1 -23q0 -27 22.5 -55.5t46.5 -28.5q11 0 33 11q20 10 33 10q22 0 22 -21
q0 -25 -28 -40t-60 -15q-39 0 -75 26.5t-58 65t-22 70.5q0 47 14 96.5t36 88.5q45 77 77 109l1 1q-24 5 -28 18q-10 0 -17 -1q-8 -1 -17 -1q-44 0 -56 21q0 8 3 13t12 11l12 11h59l8 8q0 4 4 19q3 17 3 24q0 85 -7 224q-8 158 -8 224q0 62 5 240q5 177 5 238q0 144 -10 237
q-19 6 -61 6l-24 -2l-25 -2q-39 0 -39 35q0 8 18 16.5t31 8.5q67 0 155 -8q53 -4 94 -19q36 -13 36 -35q0 -4 -5 -16l-47 -4q-16 12 -59 12l-10 -6q6 -18 6 -109q0 -81 -3 -243q-3 -163 -3 -244q0 -85 7 -224q7 -140 7 -225l-1 -26q-1 -15 -1 -37q0 -48 6 -57l-2 -5
q0 -20 45 -20q17 0 30 1t30 1q61 0 61 -29z" />
    <glyph glyph-name="itilde" unicode="&#x129;" horiz-adv-x="700" 
d="M108 1582.5q13 -11.5 26 -11.5l22 31q-10 33 -10 43q0 23 23 39t53 16l14 -6q33 -39 52 -58q22 -23 59 -43t71 -20q28 0 53 15t40.5 40t15.5 53q0 29 -12 49.5t-35 20.5q-15 0 -21 -12q2 -8 7 -18q5 -15 5 -21q0 -73 -53 -73q-30 0 -66 24.5t-51 54.5q-36 42 -87 42
q-50 0 -84.5 -39t-34.5 -103q0 -12 13 -23.5zM356 0q13 0 35 12q24 11 38 11q12 0 34 -3q20 -4 34 -4q19 0 32 11.5t13 29.5q0 29 -61 29q-17 0 -30 -1t-30 -1q-45 0 -45 20l2 5q-6 9 -6 57q0 22 1 37l1 26q0 85 -7 225q-7 139 -7 224q0 81 3 244q3 162 3 243q0 91 -6 109
l10 6q43 0 59 -12l47 4q5 12 5 16q0 22 -36 35q-41 15 -94 19q-88 8 -155 8q-13 0 -31 -8.5t-18 -16.5q0 -35 39 -35l25 2l24 2q42 0 61 -6q10 -93 10 -237q0 -61 -5 -238q-5 -178 -5 -240q0 -66 8 -224q7 -139 7 -224q0 -7 -3 -24q-4 -15 -4 -19l-8 -8h-59l-12 -11
q-9 -6 -12 -11t-3 -13q12 -21 56 -21q9 0 17 1q7 1 17 1q8 -20 56 -20z" />
    <glyph glyph-name="j" unicode="j" horiz-adv-x="620" 
d="M103 -201l1 -4l47 -47h14q49 0 91.5 34t67.5 88q24 51 37 102.5t13 93.5q0 59 12 86v225q0 154 -10 424t-10 426q0 41 18 41q22 0 56 -10q36 -11 55 -11q13 0 23 7.5t10 19.5q0 17 -66.5 37t-151 34.5t-124.5 14.5q-10 0 -26.5 -8.5t-16.5 -16.5q0 -16 30 -27
q32 -12 70 -16q41 -6 49 -10l12 -22q0 -198 10 -544q9 -363 9 -544q0 -73 -17.5 -147t-48.5 -109q-6 -7 -47 -34l-46 -30l-28 -19q-34 -22 -34 -30z" />
    <glyph glyph-name="uni0237" unicode="&#x237;" horiz-adv-x="720" 
d="M132 -201l1 -4l47 -47h14q49 0 91.5 34t67.5 88q24 51 37 102.5t13 93.5q0 59 12 86v225q0 154 -10 424t-10 426q0 41 18 41q21 0 55 -10q38 -11 56 -11q13 0 23 7.5t10 19.5q0 17 -66.5 37t-151 34.5t-124.5 14.5q-10 0 -26.5 -8.5t-16.5 -16.5q0 -16 30 -27
q32 -12 70 -16q41 -6 49 -10l12 -22q0 -198 10 -544q9 -363 9 -544q0 -73 -17.5 -147t-48.5 -109q-6 -7 -47 -34l-46 -30l-28 -19q-34 -22 -34 -30z" />
    <glyph glyph-name="uni01F0" unicode="&#x1f0;" horiz-adv-x="720" 
d="M377 1561q-9 24 -31.5 88t-36.5 108q-16 49 -18 70l-35 47l-37 -27q1 -30 36.5 -116t76 -158t59.5 -72q29 0 29 43q0 38 9 76t28 90q15 45 24 74l-2 12l15 31l-2 10q8 18 8 23q0 18 -37 24l-27 -16q-11 -129 -59 -307zM132 -201l1 -4l47 -47h14q49 0 91.5 34t67.5 88
q24 51 37 102.5t13 93.5q0 59 12 86v225q0 154 -10 424t-10 426q0 41 18 41q21 0 55 -10q38 -11 56 -11q13 0 23 7.5t10 19.5q0 17 -66.5 37t-151 34.5t-124.5 14.5q-10 0 -26.5 -8.5t-16.5 -16.5q0 -16 30 -27q32 -12 70 -16q41 -6 49 -10l12 -22q0 -198 10 -544
q9 -363 9 -544q0 -73 -17.5 -147t-48.5 -109q-6 -7 -47 -34l-46 -30l-28 -19q-34 -22 -34 -30z" />
    <glyph glyph-name="jcircumflex" unicode="&#x135;" horiz-adv-x="720" 
d="M510 1526q0 4 -8 22l2 11l-15 30l2 13q-9 29 -24 74q-19 51 -28 89t-9 76q0 43 -29 43q-19 0 -59.5 -72t-76 -158t-36.5 -116l37 -26l35 47q2 21 18 70q14 44 36.5 108t31.5 88q48 -178 59 -307l27 -17q37 6 37 25zM132 -201l1 -4l47 -47h14q49 0 91.5 34t67.5 88
q24 51 37 102.5t13 93.5q0 59 12 86v225q0 154 -10 424t-10 426q0 41 18 41q21 0 55 -10q38 -11 56 -11q13 0 23 7.5t10 19.5q0 17 -66.5 37t-151 34.5t-124.5 14.5q-10 0 -26.5 -8.5t-16.5 -16.5q0 -16 30 -27q32 -12 70 -16q41 -6 49 -10l12 -22q0 -198 10 -544
q9 -363 9 -544q0 -73 -17.5 -147t-48.5 -109q-6 -7 -47 -34l-46 -30l-28 -19q-34 -22 -34 -30z" />
    <glyph glyph-name="k" unicode="k" horiz-adv-x="760" 
d="M372.5 637q22.5 -109 59 -241.5t79.5 -248.5q67 -184 115 -184q15 0 25 8.5t10 22.5q0 19 -9.5 39.5t-29.5 47.5q-16 20 -25 36q-32 61 -77.5 202t-79 281t-33.5 199l2 65l2 66q93 194 219 379q-3 34 -55 34q-14 0 -153 -274q-140 -275 -160 -283q0 88 4 217t4 216
q0 65 18 98q0 15 -12 27t-27 12q-27 0 -39 -23v-284q0 -72 -10 -198q-10 -127 -10 -198q0 -43 -9 -129q-10 -81 -10 -129v-385q0 -26 9 -34.5t36 -8.5q13 0 23 7t10 18q0 22 -7 58t-7 59v262q0 19 5 74t5 73q0 37 11 81q10 39 18.5 60t36.5 78l32 66l5 -8q2 -49 24.5 -158z
" />
    <glyph glyph-name="uni01E9" unicode="&#x1e9;" horiz-adv-x="760" 
d="M423 1561q-9 24 -31.5 88t-36.5 108q-16 49 -18 70l-35 47l-37 -27q1 -30 36.5 -116t76 -158t59.5 -72q29 0 29 43q0 38 9 76t28 90q15 45 24 74l-2 12l15 31l-2 10q8 18 8 23q0 18 -37 24l-27 -16q-11 -129 -59 -307zM372.5 637q22.5 -109 59 -241.5t79.5 -248.5
q67 -184 115 -184q15 0 25 8.5t10 22.5q0 19 -9.5 39.5t-29.5 47.5q-16 20 -25 36q-32 61 -77.5 202t-79 281t-33.5 199l2 65l2 66q93 194 219 379q-3 34 -55 34q-14 0 -153 -274q-140 -275 -160 -283q0 88 4 217t4 216q0 65 18 98q0 15 -12 27t-27 12q-27 0 -39 -23v-284
q0 -72 -10 -198q-10 -127 -10 -198q0 -43 -9 -129q-10 -81 -10 -129v-385q0 -26 9 -34.5t36 -8.5q13 0 23 7t10 18q0 22 -7 58t-7 59v262q0 19 5 74t5 73q0 37 11 81q10 39 18.5 60t36.5 78l32 66l5 -8q2 -49 24.5 -158z" />
    <glyph glyph-name="kcommaaccent" unicode="&#x137;" horiz-adv-x="760" 
d="M372.5 637q22.5 -109 59 -241.5t79.5 -248.5q67 -184 115 -184q15 0 25 8.5t10 22.5q0 19 -9.5 39.5t-29.5 47.5q-16 20 -25 36q-32 61 -77.5 202t-79 281t-33.5 199l2 65l2 66q93 194 219 379q-3 34 -55 34q-14 0 -153 -274q-140 -275 -160 -283q0 88 4 217t4 216
q0 65 18 98q0 15 -12 27t-27 12q-27 0 -39 -23v-284q0 -72 -10 -198q-10 -127 -10 -198q0 -43 -9 -129q-10 -81 -10 -129v-385q0 -26 9 -34.5t36 -8.5q13 0 23 7t10 18q0 22 -7 58t-7 59v262q0 19 5 74t5 73q0 37 11 81q10 39 18.5 60t36.5 78l32 66l5 -8q2 -49 24.5 -158z
M646 -448q38 46 64 104.5t26 93.5q0 18 -4 25l4 6q-22 60 -68 60q-30 0 -54 -18.5t-24 -45.5q0 -25 17 -49.5t43 -40.5q0 -19 -6 -35q-8 -23 -44 -62q-13 -13 -30 -29t-27 -24l-4 -18l33 -16q34 1 74 49z" />
    <glyph glyph-name="kgreenlandic" unicode="&#x138;" 
d="M372.5 637q22.5 -109 59 -241.5t79.5 -248.5q67 -184 115 -184q15 0 25 8.5t10 22.5q0 19 -9.5 39.5t-29.5 47.5q-16 20 -25 36q-32 61 -77.5 202t-79 281t-33.5 199l2 65l2 66q93 194 219 379q-3 34 -55 34q-14 0 -153 -274q-140 -275 -160 -283q0 88 4 217t4 216
q0 65 18 98q0 15 -12 27t-27 12q-27 0 -39 -23v-284q0 -72 -10 -198q-10 -127 -10 -198q0 -43 -9 -129q-10 -81 -10 -129v-385q0 -26 9 -34.5t36 -8.5q13 0 23 7t10 18q0 22 -7 58t-7 59v262q0 19 5 74t5 73q0 37 11 81q10 39 18.5 60t36.5 78l32 66l5 -8q2 -49 24.5 -158z
" />
    <glyph glyph-name="l" unicode="l" horiz-adv-x="640" 
d="M455 -20q33 3 33 26q0 12 -10 23.5t-21 11.5h-6l-87 3q-76 3 -106 3q-9 0 -10 10q-2 12 -2 41v13l6 196q-6 12 -6 29q0 5 1 8t1 8l-2 -2l6 17l-2 87l-2 87q0 23 3 84l3 88q0 124 -1 223t-1 223q0 45 1 81t1 81q0 -1 -5 1q-19 7 -29 7q-15 0 -15 -14l-5 -62q-5 -65 -5 -73
q0 -164 -6 -533q-6 -370 -6 -559q0 -51 -4 -68q5 -47 34 -47q15 0 38 4q26 3 38 3l-4 2q100 0 170 -2z" />
    <glyph glyph-name="lacute" unicode="&#x13a;" horiz-adv-x="640" 
d="M301.5 1668q10.5 -8 26.5 -8q151 129 256 176l6 31q0 32 -45 32q-7 -7 -76 -60q-77 -59 -122 -96q-56 -45 -56 -53q0 -14 10.5 -22zM455 -20q33 3 33 26q0 12 -10 23.5t-21 11.5h-6l-87 3q-76 3 -106 3q-9 0 -10 10q-2 12 -2 41v13l6 196q-6 12 -6 29q0 5 1 8t1 8l-2 -2
l6 17l-2 87l-2 87q0 23 3 84l3 88q0 124 -1 223t-1 223q0 45 1 81t1 81q0 -1 -5 1q-19 7 -29 7q-15 0 -15 -14l-5 -62q-5 -65 -5 -73q0 -164 -6 -533q-6 -370 -6 -559q0 -51 -4 -68q5 -47 34 -47q15 0 38 4q26 3 38 3l-4 2q100 0 170 -2z" />
    <glyph glyph-name="lcaron" unicode="&#x13e;" horiz-adv-x="640" 
d="M347 1060q0 -10 7 -16.5t19 -6.5q13 0 28 9q43 29 80.5 74.5t60.5 92.5t23 81q0 82 -90 82q-33 0 -55 -16t-22 -48q0 -40 13.5 -61.5t45.5 -28.5q0 -18 -6 -35q-11 -28 -45 -62q-24 -24 -56 -52q-3 -6 -3 -13zM455 -20q33 3 33 26q0 12 -10 23.5t-21 11.5h-6l-87 3
q-76 3 -106 3q-9 0 -10 10q-2 12 -2 41v13l6 196q-6 12 -6 29q0 5 1 8t1 8l-2 -2l6 17l-2 87l-2 87q0 23 3 84l3 88q0 124 -1 223t-1 223q0 45 1 81t1 81q0 -1 -5 1q-19 7 -29 7q-15 0 -15 -14l-5 -62q-5 -65 -5 -73q0 -164 -6 -533q-6 -370 -6 -559q0 -51 -4 -68
q5 -47 34 -47q15 0 38 4q26 3 38 3l-4 2q100 0 170 -2z" />
    <glyph glyph-name="lcommaaccent" unicode="&#x13c;" horiz-adv-x="640" 
d="M455 -20q33 3 33 26q0 12 -10 23.5t-21 11.5h-6l-87 3q-76 3 -106 3q-9 0 -10 10q-2 12 -2 41v13l6 196q-6 12 -6 29q0 5 1 8t1 8l-2 -2l6 17l-2 87l-2 87q0 23 3 84l3 88q0 124 -1 223t-1 223q0 45 1 81t1 81q0 -1 -5 1q-19 7 -29 7q-15 0 -15 -14l-5 -62q-5 -65 -5 -73
q0 -164 -6 -533q-6 -370 -6 -559q0 -51 -4 -68q5 -47 34 -47q15 0 38 4q26 3 38 3l-4 2q100 0 170 -2zM233 -438q38 46 64 104.5t26 93.5q0 18 -4 25l4 6q-22 60 -68 60q-30 0 -54 -18.5t-24 -45.5q0 -25 17 -49.5t43 -40.5q0 -19 -6 -35q-8 -23 -44 -62q-13 -13 -30 -29
t-27 -24l-4 -18l33 -16q34 1 74 49z" />
    <glyph glyph-name="ldot" unicode="&#x140;" horiz-adv-x="640" 
d="M455 -20q33 3 33 26q0 12 -10 23.5t-21 11.5h-6l-87 3q-76 3 -106 3q-9 0 -10 10q-2 12 -2 41v13l6 196q-6 12 -6 29q0 5 1 8t1 8l-2 -2l6 17l-2 87l-2 87q0 23 3 84l3 88q0 124 -1 223t-1 223q0 45 1 81t1 81q0 -1 -5 1q-19 7 -29 7q-15 0 -15 -14l-5 -62q-5 -65 -5 -73
q0 -164 -6 -533q-6 -370 -6 -559q0 -51 -4 -68q5 -47 34 -47q15 0 38 4q26 3 38 3l-4 2q100 0 170 -2zM856.5 711.5q13.5 -15.5 31.5 -15.5q57 0 57 52q0 18 -15.5 35.5t-33.5 17.5q-20 0 -36.5 -17.5t-16.5 -38.5q0 -18 13.5 -33.5z" />
    <glyph glyph-name="uni01C9" unicode="&#x1c9;" horiz-adv-x="1260" 
d="M743 -201l1 -4l47 -47h14q49 0 91.5 34t67.5 88q24 51 37 102.5t13 93.5q0 59 12 86v225q0 154 -10 424t-10 426q0 41 18 41q22 0 56 -10q36 -11 55 -11q13 0 23 7.5t10 19.5q0 17 -66.5 37t-151 34.5t-124.5 14.5q-10 0 -26.5 -8.5t-16.5 -16.5q0 -16 30 -27
q32 -12 70 -16q41 -6 49 -10l12 -22q0 -198 10 -544q9 -363 9 -544q0 -73 -17.5 -147t-48.5 -109q-6 -7 -47 -34l-46 -30l-28 -19q-34 -22 -34 -30zM455 -20q33 3 33 26q0 12 -10 23.5t-21 11.5h-6l-87 3q-76 3 -106 3q-9 0 -10 10q-2 12 -2 41v13l6 196q-6 12 -6 29
q0 5 1 8t1 8l-2 -2l6 17l-2 87l-2 87q0 23 3 84l3 88q0 124 -1 223t-1 223q0 45 1 81t1 81q0 -1 -5 1q-19 7 -29 7q-15 0 -15 -14l-5 -62q-5 -65 -5 -73q0 -164 -6 -533q-6 -370 -6 -559q0 -51 -4 -68q5 -47 34 -47q15 0 38 4q26 3 38 3l-4 2q100 0 170 -2z" />
    <glyph glyph-name="lslash" unicode="&#x142;" horiz-adv-x="740" 
d="M603 29.5q10 -11.5 10 -23.5q0 -23 -33 -26q-70 2 -170 2l4 -2q-14 0 -38 -3q-21 -4 -38 -4q-29 0 -34 47q4 17 4 68q0 189 6 559v27l-115 -53q-11 -4 -20 -4q-11 0 -22 6t-11 15q0 21 170 107q4 261 4 435q0 8 5 73l5 62q0 14 15 14q10 0 29 -7q5 -2 5 -1q0 -45 -1 -81
t-1 -81q0 -124 1 -223q1 -64 1 -160q74 35 143 66q9 4 20 4q12 0 23.5 -6t11.5 -14q0 -25 -198 -121l-3 -80q-3 -61 -3 -84l2 -87l2 -87l-6 -17l2 2q0 -5 -1 -8t-1 -8q0 -17 6 -29l-6 -196v-13q0 -29 2 -41q1 -10 10 -10q29 0 105 -3l88 -3h6q11 0 21 -11.5z" />
    </font>
</defs>
</svg>
